<svg width="801" height="166" viewBox="0 0 801 166" fill="none" xmlns="http://www.w3.org/2000/svg">
<g clip-path="url(#clip0_357_2427)">
<path d="M800.695 0H0.695312V165.714H800.695V0Z" fill="#FAFF01"/>
<path fill-rule="evenodd" clip-rule="evenodd" d="M311.876 133.298C312.381 133.583 312.902 133.837 313.435 134.058C313.996 135.264 314.681 136.408 315.48 137.472C316.62 138.999 318.029 140.306 319.637 141.329C321.998 142.87 324.76 143.684 327.58 143.672C328.858 143.667 330.13 143.499 331.365 143.172C332.811 142.831 334.201 142.288 335.494 141.557C337.008 140.729 338.351 140.014 339.551 139.414C340.751 138.814 341.851 138.329 342.78 137.986L342.937 137.914H343.08C344.065 137.443 344.98 137.029 345.823 136.686C347.008 136.186 348.165 135.643 349.265 135.1L349.623 134.929C350.308 137.133 351.583 139.109 353.308 140.643C355.743 142.738 358.854 143.88 362.065 143.857C363.504 143.862 364.939 143.728 366.351 143.457C367.672 143.227 368.972 142.888 370.237 142.443C371.108 142.143 372.051 141.786 373.023 141.4L375.594 140.429L378.951 139.314C380.894 138.672 382.48 138.114 383.808 137.614C387.157 136.659 390.007 134.448 391.765 131.443L392.665 129.786L393.808 127.686L394.023 125.314L394.937 115.314C398.53 114.92 402.078 114.193 405.537 113.143H405.623C410.543 111.626 415.215 109.408 419.497 106.563C419.477 106.77 419.457 106.973 419.437 107.172V107.386C419.294 109.1 419.151 110.686 419.008 112.114C418.866 113.543 418.708 115.172 418.594 116.629V116.929C418.508 118.472 418.466 120.186 418.466 122.043C418.416 124.15 418.885 126.237 419.831 128.121C420.778 130.004 422.173 131.626 423.894 132.843L424.094 133L424.323 133.129C425.345 133.779 426.443 134.289 427.587 134.651C427.8 135.351 428.072 136.034 428.403 136.692C429.35 138.576 430.745 140.197 432.465 141.414L432.666 141.572L432.894 141.7C435.14 143.128 437.748 143.881 440.408 143.872C442.203 143.874 443.986 143.594 445.694 143.043C446.594 142.772 447.408 142.5 448.151 142.2L451.737 140.772L455.008 139.643L456.723 139.043H456.794C458.48 138.429 459.937 137.914 461.194 137.486H461.28H461.38C462.491 137.113 463.583 136.684 464.651 136.2C466.098 135.519 467.403 134.577 468.503 133.426C469.004 133.708 469.52 133.96 470.049 134.179L470.051 134.186C470.624 135.417 471.323 136.585 472.137 137.672C473.277 139.19 474.68 140.492 476.28 141.514C478.646 143.057 481.412 143.872 484.237 143.857C485.51 143.853 486.778 143.685 488.008 143.357C489.46 143.015 490.855 142.467 492.151 141.729C493.651 140.914 495.008 140.2 496.208 139.6C497.408 139 498.48 138.514 499.437 138.172L499.58 138.1H499.723C500.708 137.629 501.637 137.214 502.465 136.872L503.637 136.357C504.461 138.199 505.715 139.816 507.294 141.072C509.724 143.016 512.754 144.056 515.865 144.014C517.548 144.014 519.225 143.828 520.865 143.457C522.108 143.174 523.334 142.821 524.537 142.4L527.565 141.486C528.566 141.186 529.78 140.886 531.18 140.572C532.58 140.257 533.637 139.986 534.751 139.657C535.865 139.329 536.708 139.072 537.508 138.8L537.78 138.714L538.037 138.614H538.194H538.666L540.923 137.586C542.563 136.859 544.029 135.789 545.221 134.449C546.414 133.108 547.306 131.528 547.837 129.814C548.154 128.804 548.374 127.766 548.494 126.714V126.4L548.717 123.677C549.104 123.995 549.496 124.308 549.892 124.614C550.846 125.855 551.862 127.047 552.937 128.186C557.38 132.881 562.725 136.632 568.651 139.214H568.737C574.819 141.809 581.368 143.131 587.98 143.1C590.151 143.1 592.423 143.014 594.723 142.857C597.279 142.711 599.823 142.391 602.337 141.9C604.957 141.426 607.532 140.733 610.037 139.829C611.93 139.11 613.764 138.245 615.523 137.243L616.665 139.129H618.68C619.897 139.755 621.21 140.175 622.565 140.372H622.808H623.037C626.037 140.672 629.323 140.972 632.794 141.229C633.918 141.312 635.062 141.401 636.221 141.492C638.643 141.68 641.13 141.874 643.623 142.029C647.308 142.257 651.008 142.443 654.694 142.6C658.38 142.757 662.165 142.829 665.651 142.829C666.68 142.829 667.637 142.829 668.508 142.757C670.13 142.676 671.734 142.383 673.28 141.886C676.078 140.979 678.583 139.342 680.537 137.143C681.482 138.577 682.709 139.805 684.143 140.75C685.577 141.696 687.189 142.34 688.88 142.643L689.894 142.829H701.08C706.813 142.824 712.54 142.438 718.223 141.672C724.128 140.888 729.951 139.578 735.623 137.757C741.309 135.94 746.776 133.497 751.923 130.472C757.269 127.375 762.091 123.45 766.208 118.843C770.468 113.981 773.816 108.392 776.094 102.343C778.582 95.6057 779.808 88.4674 779.708 81.2859C779.721 77.3134 779.241 73.3547 778.28 69.5002C777.384 65.9025 775.974 62.4527 774.094 59.2573C772.264 56.1025 770.005 53.2177 767.38 50.6859C765.983 49.3578 764.528 48.0927 763.02 46.894C761.749 45.1915 760.341 43.5928 758.808 42.1145C756.371 39.7976 753.758 37.6723 750.994 35.7573C746.251 32.4649 740.959 30.0459 735.366 28.6145C729.096 27.0243 722.647 26.2559 716.18 26.3288C712.38 26.3288 709.265 26.4002 706.665 26.5716C704.036 26.6686 701.42 27.0033 698.851 27.5716C696.325 28.1418 693.895 29.0754 691.637 30.3431C690.179 31.1782 688.793 32.1339 687.494 33.2002C687.192 32.6338 686.844 32.0938 686.451 31.5859C685.28 29.9677 683.736 28.6547 681.951 27.7573C680.733 27.1302 679.42 26.7056 678.065 26.5002C677.364 26.3672 676.651 26.3002 675.937 26.3002H675.523H675.108L647.965 28.2859H618.551L615.237 34.0716L614.508 35.3145C613.354 34.4067 612.147 33.5671 610.894 32.8002C608.731 31.4661 606.42 30.3874 604.008 29.5859C601.297 28.6326 598.505 27.9297 595.666 27.4859C592.187 26.9 588.664 26.6228 585.137 26.6573C580.109 26.6385 575.101 27.3017 570.251 28.6288C565.613 29.9285 561.173 31.8508 557.051 34.3431C554.91 35.6191 552.863 37.0404 550.922 38.5959C550.136 37.8142 549.244 37.138 548.27 36.5883C547.407 36.1015 546.493 35.7219 545.548 35.4544C545.244 34.457 544.834 33.4904 544.323 32.5716C543.212 30.6705 541.616 29.0987 539.698 28.0168C537.781 26.935 535.61 26.382 533.408 26.4145C531.912 26.4134 530.422 26.6153 528.98 27.0145L510.065 31.5573C508.055 31.9498 506.166 32.8113 504.551 34.0716C502.736 35.5362 501.353 37.4671 500.551 39.6573C500.39 40.0634 500.251 40.4784 500.137 40.9002C497.604 37.4513 494.359 34.5867 490.623 32.5002C486.488 30.1677 481.985 28.5588 477.308 27.7431C472.972 26.8876 468.57 26.4096 464.151 26.3145H463.923C460.223 26.3145 456.651 26.4573 453.323 26.7431C449.994 27.0288 446.937 27.3002 444.023 27.7002C441.108 28.1002 438.308 28.5716 435.723 29.1288C434.658 29.3583 433.67 29.5562 432.73 29.7447C431.388 30.0137 430.143 30.2633 428.908 30.5573L423.937 31.6431L421.423 36.0431L420.78 37.1716C419.204 35.5559 417.456 34.1187 415.566 32.8859C411.322 30.1049 406.584 28.165 401.608 27.1716C396.883 26.2137 392.073 25.7351 387.251 25.7431C385.294 25.7431 383.194 25.8288 381.023 25.9859L380.822 26.0004C378.727 26.152 376.771 26.2934 374.708 26.5288C374.018 26.6075 373.337 26.6803 372.662 26.7524C371.255 26.9026 369.874 27.05 368.494 27.2431C366.451 27.5288 364.494 27.8145 362.694 28.1288L362.623 28.1412C360.851 28.4506 359.232 28.7333 357.766 29.0716C356.424 29.3313 355.098 29.6652 353.794 30.0716H353.708H353.623L351.88 30.6145C350.58 30.9541 349.32 31.4331 348.123 32.0431C346.127 33.0939 344.413 34.6076 343.123 36.4573V36.5573L343.051 36.6716C342.661 37.2484 342.317 37.855 342.023 38.4859C339.813 36.0269 337.211 33.9511 334.323 32.3431C330.194 30.0077 325.696 28.3986 321.023 27.5859C316.682 26.7312 312.275 26.2532 307.851 26.1573H307.637C303.937 26.1573 300.365 26.3002 297.023 26.5859C293.68 26.8716 290.651 27.1431 287.723 27.5431C284.794 27.9431 282.008 28.4145 279.423 28.9716C278.351 29.2025 277.36 29.4016 276.417 29.5911C275.084 29.8588 273.846 30.1074 272.608 30.4002L271.894 30.5573C270.843 29.3717 269.572 28.4014 268.151 27.7002C266.937 27.0779 265.629 26.6581 264.28 26.4573C263.583 26.3231 262.875 26.2561 262.165 26.2573H261.737H261.323L234.18 28.2431H204.708C202.1 26.7683 199.131 26.0509 196.137 26.1716C194.123 26.2027 192.114 26.3698 190.123 26.6716C188.008 26.9716 185.494 27.4431 182.423 28.1002C180.408 28.5145 178.766 28.9145 177.466 29.3145C175.769 29.8216 174.153 30.5671 172.666 31.5288C170.398 32.8562 168.562 34.8108 167.38 37.1573L167.166 37.5859L166.98 38.0288C166.912 38.1984 166.84 38.3859 166.761 38.5931C165.474 37.4075 163.973 36.4764 162.337 35.8502C162.252 35.8177 162.167 35.7861 162.082 35.7553L162.066 35.7145C161.239 33.6371 159.983 31.7579 158.38 30.2002C157.05 28.9306 155.481 27.9383 153.765 27.281C152.048 26.6237 150.217 26.3146 148.38 26.3716C147.219 26.3764 146.06 26.4527 144.908 26.6002C143.837 26.7002 142.608 26.8431 141.18 27.0431C138.48 27.4145 136.108 27.7716 134.18 28.0716C132.146 28.3842 130.136 28.8377 128.166 29.4288C125.357 30.1839 122.796 31.6615 120.737 33.7145C119.939 34.5234 119.248 35.4307 118.68 36.4145C118.266 36.0431 117.837 35.6859 117.408 35.3288C111.928 30.8553 105.616 27.5101 98.8369 25.4859C91.7717 23.3284 84.506 21.8924 77.1512 21.2002H76.5655L76.4512 21.2145H75.8655C73.2586 21.2533 70.7277 22.0981 68.62 23.6328C66.5124 25.1674 64.9314 27.3168 64.0941 29.7859C64.0941 29.879 64.0516 29.9661 64.0101 30.051C63.988 30.0964 63.9662 30.1411 63.9512 30.1859C59.9988 31.5873 56.2138 33.4223 52.6655 35.6573C47.5035 38.9378 42.9462 43.0844 39.1941 47.9145C35.3553 52.8665 32.3889 58.4368 30.4227 64.3859C28.3409 70.7726 27.3085 77.4545 27.3655 84.1716C27.3418 90.4846 28.3553 96.7586 30.3655 102.743C32.379 108.547 35.4337 113.935 39.3798 118.643C41.4461 121.028 43.7514 123.182 46.2543 125.075C46.8 125.803 47.3658 126.516 47.9512 127.214C52.0789 131.978 57.1597 135.823 62.8655 138.5C69.0831 141.389 75.8671 142.853 82.7227 142.786C87.9955 142.841 93.2549 142.242 98.3798 141C103.357 139.784 108.158 137.936 112.666 135.5C117.075 133.109 121.152 130.15 124.794 126.7C128.419 123.265 131.56 119.354 134.133 115.075L136.58 124.8V124.986V125.172C137.172 127.284 138.232 129.237 139.68 130.886C140.943 132.274 142.489 133.375 144.214 134.115C144.607 134.283 145.007 134.431 145.412 134.56C146.033 136.338 146.991 137.981 148.237 139.4C149.5 140.789 151.046 141.89 152.772 142.629C154.497 143.368 156.36 143.729 158.237 143.686C159.39 143.684 160.54 143.554 161.666 143.3C162.36 143.14 163.004 142.942 163.809 142.695L163.98 142.643C165.98 141.986 167.98 141.4 169.937 140.929C172.523 140.343 175.151 139.614 177.766 138.786C181.142 137.726 184.081 135.595 186.137 132.714C186.931 131.579 187.575 130.345 188.051 129.043L188.58 127.729L190.224 123.63C190.618 124.651 191.14 125.62 191.78 126.514L192.08 126.943L192.423 127.343L192.523 127.457L194.294 130.386H196.294C196.993 130.745 197.723 131.037 198.475 131.257C198.886 132.605 199.515 133.879 200.337 135.029L200.637 135.457L200.98 135.857L201.08 135.972L202.851 138.9H204.851C206.069 139.527 207.382 139.947 208.737 140.143H208.98H209.208C212.208 140.443 215.494 140.729 218.98 141C219.572 141.046 220.17 141.093 220.772 141.141C223.71 141.372 226.749 141.61 229.808 141.8C233.494 142.029 237.194 142.214 240.866 142.372C244.537 142.529 248.337 142.6 251.823 142.6C252.851 142.6 253.808 142.6 254.68 142.529C256.301 142.447 257.905 142.154 259.451 141.657C261.38 141.054 263.175 140.084 264.737 138.8C266.215 137.599 267.472 136.149 268.451 134.514L268.517 134.418C268.671 134.192 268.832 133.957 269 133.711C269.66 134.038 270.343 134.313 271.044 134.532C271.301 135.369 271.644 136.18 272.069 136.951C273.001 138.646 274.304 140.108 275.88 141.229L276.094 141.372L276.294 141.514C278.55 142.942 281.167 143.695 283.837 143.686C285.627 143.689 287.406 143.409 289.108 142.857C290.023 142.586 290.837 142.314 291.58 142.014L295.165 140.586L298.437 139.457L300.151 138.857H300.223C301.908 138.243 303.365 137.729 304.623 137.3H304.708H304.794C306.794 136.572 307.465 136.314 308.08 136.014C309.503 135.345 310.788 134.423 311.876 133.298ZM587.479 92.4623C587.389 91.5547 587.346 90.6423 587.351 89.7288C587.32 87.7196 587.61 85.7183 588.208 83.8002C588.609 82.3479 589.283 80.9854 590.194 79.7859C590.86 78.9705 591.706 78.3202 592.666 77.8859C593.69 77.4153 594.809 77.1856 595.937 77.2145C596.767 77.1954 597.593 77.3211 598.38 77.5859H598.494H598.623C599.764 77.9594 600.869 78.4376 601.923 79.0145L602.065 79.1002L602.208 79.1716C603.274 79.7343 604.309 80.3543 605.308 81.0288L605.523 81.2145H605.623C605.69 81.2611 605.758 81.3072 605.826 81.353C604.734 83.3628 604.136 85.6126 604.094 87.9145V88.1573C603.661 88.1356 603.227 88.1356 602.794 88.1573C600.861 88.1218 598.948 88.5427 597.208 89.3859L596.966 89.5002L596.751 89.6288C595.708 90.1998 594.635 90.7148 593.537 91.1716C592.769 91.4928 591.976 91.7508 591.166 91.9431C590.189 92.1732 589.195 92.326 588.194 92.4002C587.964 92.4232 587.726 92.4438 587.479 92.4623ZM83.549 91.8659C83.5265 91.4445 83.513 91.0225 83.5084 90.6002C83.556 89.4564 83.6704 88.3163 83.8512 87.1859C84.0839 85.8963 84.4134 84.626 84.8369 83.3859C85.2564 82.1452 85.7772 80.9412 86.3941 79.7859C86.6975 79.2316 87.0579 78.7112 87.4689 78.233C87.4302 79.4055 87.3481 80.5763 87.2227 81.743V81.943C87.0948 83.3888 86.8511 84.822 86.4941 86.2288C86.1641 87.4536 85.7192 88.6446 85.1655 89.7859C84.7877 90.4876 84.3061 91.1281 83.7369 91.6859C83.6758 91.7475 83.6131 91.8076 83.549 91.8659Z" fill="black"/>
<path d="M63.4239 81.9438C63.4307 84.6606 63.7131 87.3697 64.2668 90.0295C64.8017 92.5928 65.7678 95.0467 67.1239 97.2867C68.4445 99.4341 70.2623 101.232 72.4239 102.53C74.8987 103.944 77.7182 104.641 80.5668 104.544C82.8179 104.448 85.0317 103.934 87.0953 103.03C88.909 102.203 90.5553 101.051 91.9525 99.6295C93.3327 98.2163 94.4845 96.5969 95.3668 94.8295C96.2604 93.0001 96.9687 91.0858 97.4811 89.1152C97.9986 87.0995 98.3521 85.0452 98.5382 82.9724C98.7772 80.9667 98.9059 78.9493 98.9239 76.9295C98.9317 74.3439 98.5709 71.7705 97.8525 69.2867C97.2089 66.9152 96.1338 64.6827 94.6811 62.701C93.2686 60.8091 91.4597 59.2489 89.3811 58.1295C87.1316 56.9354 84.6128 56.3401 82.0668 56.401C80.0102 56.3669 77.9714 56.7863 76.0954 57.6295C74.3532 58.4422 72.7673 59.5543 71.4096 60.9152C70.001 62.2981 68.7982 63.8761 67.8382 65.601C66.869 67.3536 66.0472 69.1837 65.3811 71.0724C64.7632 72.9389 64.2857 74.849 63.9525 76.7867C63.6694 78.4931 63.4929 80.2155 63.4239 81.9438V81.9438ZM74.3096 122.901C69.1536 122.997 64.0419 121.932 59.3525 119.787C55.0806 117.795 51.2783 114.923 48.1954 111.358C45.137 107.707 42.7785 103.522 41.2382 99.0152C39.6224 94.2345 38.8114 89.2187 38.8382 84.1724C38.7678 78.7023 39.5781 73.2564 41.2382 68.0438C42.8062 63.3079 45.1685 58.8732 48.2239 54.9295C51.1761 51.1253 54.7619 47.8584 58.8239 45.2724C63.0059 42.6174 67.5814 40.6405 72.3811 39.4152C72.8239 39.4152 73.1668 39.0724 73.3811 38.3581C73.6798 37.5969 73.9186 36.8136 74.0954 36.0152C74.265 35.2198 74.4893 34.4369 74.7668 33.6724C75.0239 32.9581 75.4096 32.6152 75.8811 32.6152C82.489 33.2376 89.0173 34.525 95.3668 36.4581C100.718 38.0293 105.705 40.6465 110.038 44.1581C114.104 47.5983 117.263 51.9837 119.238 56.9295C121.548 62.8859 122.646 69.2434 122.467 75.6295C122.497 80.1302 121.916 84.6141 120.738 88.9581C119.633 93.0068 118 96.8926 115.881 100.515C113.825 103.974 111.301 107.132 108.381 109.901C105.461 112.667 102.184 115.031 98.6382 116.93C94.9942 118.886 91.1152 120.37 87.0953 121.344C82.9151 122.394 78.6198 122.918 74.3096 122.901V122.901ZM169.452 115.087C169.267 115.572 169.081 116.044 168.895 116.515C168.752 116.953 168.545 117.366 168.281 117.744C168.003 118.129 167.666 118.466 167.281 118.744C166.855 119.074 166.37 119.322 165.852 119.472C163.51 120.215 161.186 120.849 158.881 121.372C156.567 121.93 154.252 122.601 151.91 123.372C151.526 123.509 151.135 123.623 150.738 123.715C150.424 123.786 150.103 123.824 149.781 123.83C149.52 123.854 149.256 123.821 149.009 123.732C148.762 123.643 148.538 123.501 148.352 123.315C148.032 122.95 147.802 122.515 147.681 122.044L128.552 46.1152C128.289 45.3409 128.14 44.5325 128.11 43.7152C128.097 43.345 128.159 42.9759 128.291 42.63C128.424 42.284 128.624 41.9681 128.881 41.701C129.587 41.0437 130.455 40.5852 131.395 40.3724C132.875 39.9325 134.384 39.5936 135.91 39.3581C137.781 39.0724 140.052 38.7295 142.724 38.3581C144.019 38.1676 145.119 38.039 146.024 37.9724C146.781 37.8672 147.545 37.8099 148.31 37.801C149.06 37.699 149.821 37.8994 150.424 38.3581C150.874 38.8146 151.215 39.3663 151.424 39.9724L162.095 86.0724L177.095 43.7152L177.652 42.2867C177.868 41.8783 178.201 41.5446 178.61 41.3295C179.274 40.9592 179.985 40.6805 180.724 40.501C181.695 40.201 183.067 39.8581 184.852 39.4867C187.71 38.901 189.952 38.4724 191.781 38.2009C193.237 37.9738 194.707 37.845 196.181 37.8152C197.124 37.7153 198.077 37.8888 198.924 38.3152C199.141 38.4829 199.315 38.7 199.432 38.9484C199.549 39.1968 199.605 39.4695 199.595 39.7438C199.617 40.0306 199.558 40.3178 199.424 40.5724C199.31 40.8438 199.181 41.1724 199.024 41.5867L169.452 115.087ZM250.367 73.6581C250.13 74.4151 249.854 75.159 249.538 75.8867C249.124 76.8152 248.638 77.8724 248.11 79.0724C247.581 80.2724 247.01 81.5438 246.381 82.9152C245.752 84.2867 245.195 85.6152 244.595 86.9867C244.431 87.3971 244.225 87.7896 243.981 88.1581C243.741 88.4183 243.427 88.5979 243.081 88.6724C242.513 88.8009 241.934 88.8727 241.352 88.8867C240.652 88.8867 239.652 88.8867 238.338 88.8867L230.581 89.0581L229.024 106.201H257.595V108.358C257.524 108.444 257.21 108.944 256.652 109.872C256.095 110.801 255.438 111.844 254.695 113.101C253.952 114.358 253.167 115.658 252.352 116.958C251.538 118.258 250.838 119.244 250.281 120.03C249.965 120.632 249.527 121.163 248.995 121.587C248.527 121.998 247.977 122.305 247.381 122.487C246.766 122.685 246.127 122.796 245.481 122.815C244.81 122.815 244.052 122.815 243.252 122.815C239.91 122.815 236.414 122.739 232.767 122.587C229.152 122.444 225.552 122.258 221.938 122.03C218.324 121.801 214.795 121.558 211.338 121.258C207.881 120.958 204.724 120.715 201.795 120.415C201.508 120.357 201.251 120.2 201.067 119.972C200.877 119.711 200.777 119.395 200.781 119.072C200.638 119.072 200.781 118.758 201.067 118.13C201.352 117.501 201.938 116.701 202.495 115.672C203.052 114.644 203.824 113.53 204.567 112.272C205.31 111.015 206.195 109.787 206.952 108.444L207.852 95.8867C207.995 93.7724 208.11 92.1867 208.181 91.1438C208.252 90.101 208.352 89.5438 208.352 89.4724C206.671 89.4806 204.99 89.3708 203.324 89.1438C202.252 88.9581 201.71 88.5438 201.71 87.9152C201.841 87.3056 202.11 86.7339 202.495 86.2438C203.052 85.4152 203.724 84.4867 204.495 83.3867L206.952 80.101C207.852 78.9438 208.624 77.8867 209.295 76.9152L210.724 57.9438H210.552L208.324 58.0581H206.481C205.194 58.098 203.906 58.0023 202.638 57.7724C201.881 57.5581 201.51 57.1581 201.51 56.601C201.633 56.0264 201.861 55.4793 202.181 54.9867C202.638 54.1676 203.195 53.2152 203.852 52.1295C204.524 51.0438 205.281 49.9295 205.981 48.7724C206.681 47.6152 207.41 46.4867 207.995 45.4867L211.338 39.7724H234.667L262.181 37.7581H262.452C262.651 37.7619 262.844 37.8213 263.01 37.9295C263.22 38.0183 263.396 38.1739 263.51 38.3724C263.714 38.6428 263.815 38.977 263.795 39.3152L262.952 42.1724C262.695 43.001 262.381 43.8724 262.01 44.801C261.638 45.7295 261.224 46.6295 260.781 47.6581L258.324 54.1295C258.122 54.6607 257.816 55.1463 257.424 55.5581C256.802 55.9776 256.057 56.174 255.31 56.1152C252.452 56.1914 249.291 56.32 245.824 56.501C242.367 56.6581 238.381 56.801 233.881 56.9581C233.751 57.3705 233.675 57.7978 233.652 58.2295C233.652 58.5295 233.652 59.1295 233.552 60.0152L233.267 62.5867C233.195 63.7724 233.081 65.0581 232.938 66.4438C232.795 67.8295 232.595 69.501 232.381 71.5152L237.895 71.2867C239.724 71.2867 241.381 71.1581 242.867 71.1295L246.71 70.9581C247.838 70.9581 248.61 70.9581 249.067 70.9581C249.425 70.9799 249.771 71.0984 250.067 71.301C250.267 71.442 250.424 71.635 250.522 71.8591C250.621 72.0832 250.656 72.3298 250.624 72.5724C250.6 72.9554 250.513 73.3318 250.367 73.6867V73.6581ZM295.738 115.501C295.696 115.846 295.62 116.186 295.51 116.515C295.452 116.682 295.358 116.834 295.235 116.96C295.111 117.086 294.961 117.183 294.795 117.244L292.552 118.072C291.252 118.515 289.695 119.058 287.981 119.687L282.852 121.472L278.995 122.901C278.45 123.121 277.892 123.307 277.324 123.458C276.715 123.678 276.072 123.789 275.424 123.787C274.92 123.798 274.424 123.664 273.995 123.401C273.793 123.226 273.637 123.005 273.54 122.756C273.443 122.507 273.408 122.238 273.438 121.972C273.438 120.33 273.438 118.844 273.552 117.501C273.667 116.158 273.795 114.644 273.952 113.215C274.11 111.787 274.238 110.101 274.395 108.315C274.552 106.53 274.752 104.33 274.895 101.83C275.076 98.5533 275.281 95.4105 275.51 92.401C275.738 89.3581 275.952 86.1867 276.181 82.9152L276.952 73.3724C277.067 71.8152 277.181 70.2295 277.295 68.6295C277.41 67.0295 277.524 65.3152 277.624 63.6152L278.238 56.801C278.238 56.801 278.138 56.6867 277.91 56.6867C277.399 56.7143 276.892 56.7908 276.395 56.9152C275.695 57.0295 274.852 57.1724 273.895 57.3581L270.652 57.9724L267.081 58.5295C266.778 58.5292 266.477 58.471 266.195 58.3581C265.924 58.2152 265.795 58.0438 265.795 57.8581C265.789 57.7378 265.83 57.6197 265.91 57.5295L274.952 41.7295C276.995 41.2867 279.238 40.8438 281.538 40.401C283.838 39.9581 286.467 39.4867 289.181 39.1152C291.895 38.7438 294.781 38.4438 297.752 38.2152C300.724 37.9867 304.052 37.8295 307.467 37.8295C311.251 37.8894 315.023 38.2814 318.738 39.001C322.17 39.5841 325.475 40.7536 328.51 42.4581C331.389 44.0069 333.809 46.2886 335.524 49.0724C337.387 52.2434 338.299 55.8832 338.152 59.5581C338.175 61.7799 337.758 63.9843 336.924 66.0438C336.169 67.9706 335.134 69.7756 333.852 71.401C332.647 72.9364 331.282 74.3395 329.781 75.5867C328.412 76.6867 326.981 77.7074 325.495 78.6438C324.152 79.501 322.967 80.1867 321.924 80.7152C320.881 81.2438 320.181 81.5152 319.81 81.6581C319.792 81.7525 319.792 81.8494 319.81 81.9438C319.81 82.0581 320.01 82.2724 320.195 82.6152L320.981 83.9438C321.352 84.5152 321.81 85.2867 322.41 86.301C323.01 87.3152 323.71 88.3724 324.538 89.8724C325.367 91.3724 326.324 93.1152 327.395 95.1724C328.467 97.2295 329.867 99.4581 331.352 101.915C332.838 104.372 334.552 107.087 336.495 109.958C337.105 110.507 337.858 110.874 338.667 111.015C339.481 111.13 340.252 111.201 340.952 111.244C341.549 111.235 342.146 111.268 342.738 111.344C343.224 111.344 343.467 111.615 343.467 112.015C343.467 112.415 343.152 112.672 342.51 113.087C341.867 113.501 341.21 113.844 340.395 114.258C339.581 114.672 338.738 115.058 337.881 115.43C337.024 115.801 336.452 116.087 335.981 116.315C335.095 116.763 334.167 117.191 333.195 117.601C332.224 118.015 331.181 118.472 330.067 119.03C328.952 119.587 327.71 120.087 326.338 120.758C324.967 121.43 323.481 122.187 321.752 123.158C321.357 123.4 320.922 123.569 320.467 123.658C320.125 123.768 319.769 123.826 319.41 123.83C318.793 123.849 318.187 123.669 317.681 123.315C317.201 123.03 316.783 122.651 316.452 122.201C316.126 121.756 315.848 121.277 315.624 120.772C315.438 120.315 315.267 119.944 315.11 119.644L298.467 84.6152L295.738 115.501ZM299.138 77.7295C301.192 77.7012 303.213 77.2131 305.052 76.301C307.087 75.3689 308.97 74.1361 310.638 72.6438C312.286 71.1446 313.68 69.3886 314.767 67.4438C315.806 65.6655 316.363 63.6464 316.381 61.5867C316.381 56.1962 313.148 53.5009 306.681 53.5009C305.65 53.4803 304.621 53.5714 303.61 53.7724C302.781 53.9248 302.038 54.039 301.381 54.1152L299.138 77.7295ZM418.667 62.0152C418.671 64.8985 418.355 67.7733 417.724 70.5867C417.22 72.9734 416.394 75.2804 415.267 77.4438C414.24 79.4337 412.947 81.2745 411.424 82.9152C409.856 84.5836 408.134 86.0999 406.281 87.4438C402.577 90.125 398.461 92.1853 394.095 93.5438C389.76 94.855 385.253 95.5146 380.724 95.501C379.981 95.501 379.295 95.501 378.495 95.501C377.695 95.501 377.067 95.4152 376.324 95.3295L374.481 115.701L373.524 117.43C372.95 117.842 372.306 118.147 371.624 118.33C370.438 118.772 368.952 119.287 367.167 119.887L363.652 121.058L360.695 122.172C359.838 122.515 359.038 122.815 358.295 123.072C357.589 123.32 356.862 123.506 356.124 123.63C355.385 123.775 354.634 123.846 353.881 123.844C353.438 123.868 353.002 123.731 352.652 123.458C352.326 123.057 352.167 122.545 352.21 122.03L352.824 112.487C352.938 110.582 353.067 108.677 353.21 106.772C353.395 104.844 353.567 102.644 353.724 100.187L354.781 86.8581C354.995 84.1438 355.21 81.4152 355.395 78.701C355.581 75.9867 355.767 73.401 355.952 70.9438C356.138 68.4867 356.31 66.201 356.452 64.0867C356.595 61.9724 356.738 60.0438 356.838 58.4438C354.838 58.901 353.21 59.2295 351.981 59.4581C351.079 59.6146 350.167 59.7053 349.252 59.7295C348.467 59.7295 348.081 59.4009 348.081 58.7295C348.595 56.9009 349.071 55.1152 349.51 53.3724C349.91 51.9438 350.324 50.3581 350.738 48.801L351.852 44.7724C351.979 44.2437 352.186 43.7377 352.467 43.2724C352.705 42.9161 353.029 42.6261 353.41 42.4295C353.892 42.1889 354.4 42.002 354.924 41.8724C355.552 41.6867 356.352 41.4438 357.21 41.1438C358.067 40.8438 358.895 40.6867 360.167 40.4295C361.438 40.1724 362.938 39.8438 364.567 39.5867C366.195 39.3295 368.052 39.0152 369.981 38.7581C371.91 38.501 373.867 38.2724 375.838 38.0867C377.81 37.9009 379.824 37.6867 381.752 37.5724C383.681 37.4581 385.51 37.3581 387.224 37.3581C391.272 37.3369 395.312 37.7294 399.281 38.5295C402.842 39.21 406.238 40.5731 409.281 42.5438C412.179 44.4305 414.529 47.0467 416.095 50.1295C417.922 53.8178 418.806 57.9016 418.667 62.0152V62.0152ZM377.881 78.7581C377.872 79.142 377.95 79.523 378.11 79.8724C378.252 80.1724 378.667 80.3295 379.338 80.3295C380.588 80.2886 381.826 80.0623 383.01 79.6581C384.524 79.1364 385.964 78.4209 387.295 77.5295C388.79 76.5673 390.146 75.404 391.324 74.0724C392.593 72.6621 393.565 71.01 394.181 69.2152C394.478 68.2849 394.683 67.3281 394.795 66.3581C394.992 65.0101 395.083 63.6488 395.067 62.2867C395.142 61.1799 394.931 60.0723 394.453 59.0712C393.975 58.0701 393.246 57.2094 392.338 56.5724C390.238 55.2568 387.785 54.6138 385.31 54.7295C384.746 54.7317 384.184 54.7651 383.624 54.8295C383.04 54.874 382.462 54.9696 381.895 55.1152C381.429 55.2379 380.981 55.4254 380.567 55.6724C380.403 55.7356 380.259 55.842 380.151 55.9804C380.043 56.1187 379.974 56.2838 379.952 56.4581L379.838 57.6867C379.838 58.1581 379.724 58.9581 379.61 60.0867C379.495 61.2152 379.367 62.401 379.224 63.8152C379.081 65.2295 378.981 66.6724 378.824 68.2867C378.667 69.901 378.595 71.3295 378.438 72.7438C378.281 74.1581 378.224 75.4152 378.11 76.4867C377.995 77.5581 377.924 78.3581 377.881 78.7581ZM452.095 115.501C452.058 115.845 451.986 116.185 451.881 116.515C451.82 116.683 451.724 116.835 451.598 116.961C451.472 117.087 451.32 117.183 451.152 117.244L448.924 118.072C447.61 118.515 446.067 119.058 444.338 119.687L439.21 121.472L435.352 122.901C434.807 123.121 434.249 123.307 433.681 123.458C433.072 123.679 432.429 123.79 431.781 123.787C431.277 123.803 430.78 123.669 430.352 123.401C430.15 123.226 429.994 123.005 429.897 122.756C429.8 122.507 429.765 122.238 429.795 121.972C429.795 120.33 429.795 118.844 429.91 117.501C430.024 116.158 430.138 114.644 430.295 113.215C430.452 111.787 430.595 110.101 430.738 108.315C430.881 106.53 431.095 104.33 431.238 101.83C431.424 98.5581 431.638 95.4152 431.852 92.401C432.067 89.3867 432.295 86.1867 432.524 82.9152L433.31 73.3724C433.424 71.8152 433.524 70.2295 433.638 68.6295C433.752 67.0295 433.867 65.3152 433.981 63.6152L434.595 56.801C434.595 56.801 434.481 56.6867 434.252 56.6867C433.746 56.7136 433.244 56.7901 432.752 56.9152C432.038 57.0295 431.21 57.1724 430.238 57.3581L426.995 57.9724L423.424 58.5295C423.121 58.5266 422.821 58.4685 422.538 58.3581C422.281 58.2152 422.152 58.0438 422.152 57.8581C422.142 57.7397 422.178 57.6219 422.252 57.5295L431.295 41.7295C433.338 41.2867 435.581 40.8438 437.881 40.401C440.181 39.9581 442.81 39.4867 445.524 39.1152C448.238 38.7438 451.124 38.4438 454.181 38.2152C457.238 37.9867 460.467 37.8295 463.881 37.8295C467.665 37.8894 471.437 38.2814 475.152 39.001C478.584 39.5841 481.889 40.7536 484.924 42.4581C487.747 44.0192 490.116 46.2889 491.795 49.0438C493.647 52.2191 494.554 55.8567 494.41 59.5295C494.433 61.7514 494.015 63.9557 493.181 66.0152C492.431 67.9447 491.396 69.7505 490.11 71.3724C488.904 72.9078 487.54 74.3109 486.038 75.5581C484.672 76.6614 483.24 77.6823 481.752 78.6152C480.598 79.3665 479.406 80.0579 478.181 80.6867C477.138 81.1724 476.438 81.4867 476.067 81.6295C476.049 81.7239 476.049 81.8208 476.067 81.9152C476.138 82.0295 476.267 82.2438 476.452 82.5867L477.238 83.9152C477.61 84.4867 478.081 85.2581 478.667 86.2724C479.252 87.2867 479.967 88.3438 480.781 89.8438C481.595 91.3438 482.567 93.0867 483.638 95.1438C484.71 97.201 486.11 99.4295 487.595 101.887C489.081 104.344 490.795 107.058 492.738 109.93C493.348 110.479 494.101 110.845 494.91 110.987C495.724 111.101 496.495 111.172 497.195 111.215C497.792 111.206 498.389 111.24 498.981 111.315C499.467 111.315 499.71 111.587 499.71 111.987C499.71 112.387 499.395 112.644 498.767 113.058C498.138 113.472 497.467 113.815 496.638 114.23C495.81 114.644 494.981 115.03 494.138 115.401C493.295 115.772 492.71 116.058 492.238 116.287C491.338 116.73 490.41 117.158 489.381 117.572C488.352 117.987 487.381 118.444 486.267 119.001C485.152 119.558 483.895 120.058 482.524 120.73C481.152 121.401 479.667 122.158 477.952 123.13C477.555 123.366 477.12 123.535 476.667 123.63C476.325 123.739 475.968 123.796 475.61 123.801C474.989 123.817 474.379 123.637 473.867 123.287C473.391 123.001 472.978 122.622 472.652 122.172C472.322 121.727 472.039 121.249 471.81 120.744C471.624 120.287 471.452 119.915 471.31 119.615L454.838 84.6152L452.095 115.501ZM455.524 77.7581C457.577 77.7264 459.597 77.2384 461.438 76.3295C463.448 75.3801 465.307 74.138 466.952 72.6438C468.604 71.1485 469.999 69.3917 471.081 67.4438C472.124 65.6664 472.686 63.6475 472.71 61.5867C472.71 56.1962 469.471 53.5009 462.995 53.5009C461.965 53.4803 460.935 53.5714 459.924 53.7724C459.105 53.9248 458.362 54.039 457.695 54.1152L455.524 77.7581ZM505.395 121.787L508.181 83.6152C509.133 70.8152 509.824 61.42 510.252 55.4295C510.681 49.439 510.9 46.4629 510.91 46.501C510.91 45.8438 510.995 45.2724 511.024 44.8295C511.051 44.4497 511.128 44.0751 511.252 43.7152C511.339 43.4568 511.492 43.2254 511.695 43.0438C511.948 42.8722 512.236 42.7599 512.538 42.7152L531.838 38.0867C532.328 37.9309 532.839 37.8537 533.352 37.8581C533.558 37.8353 533.765 37.87 533.952 37.9583C534.139 38.0466 534.297 38.185 534.41 38.3581C534.653 38.9601 534.751 39.6111 534.695 40.2581C534.424 42.5581 534.224 44.7152 534.081 46.7295C533.938 48.7438 533.795 50.6581 533.681 52.4438C533.567 54.2295 533.538 56.0438 533.467 57.7438C533.395 59.4438 533.295 61.101 533.181 62.7724C533.067 64.4438 532.752 66.4152 532.567 68.2438C532.381 70.0724 532.267 71.9581 532.124 73.9581C531.981 75.9581 531.81 77.9581 531.624 80.1581C531.438 82.3581 531.281 84.6724 531.067 87.301L528.61 116.715C528.566 117.055 528.489 117.39 528.381 117.715C528.325 117.885 528.23 118.04 528.103 118.166C527.977 118.293 527.822 118.388 527.652 118.444L526.981 118.658L525.367 119.272C524.695 119.501 523.938 119.744 523.024 120.001C522.11 120.258 521.181 120.501 520.167 120.73C518.5 121.101 517.029 121.472 515.752 121.844L512.467 122.844C511.588 123.159 510.691 123.421 509.781 123.63C508.975 123.812 508.151 123.903 507.324 123.901C506.81 123.932 506.302 123.775 505.895 123.458C505.689 123.237 505.537 122.971 505.45 122.681C505.364 122.391 505.345 122.085 505.395 121.787ZM541.938 82.2724C541.914 78.3039 542.394 74.3485 543.367 70.501C544.341 66.8004 545.781 63.2385 547.652 59.901C549.45 56.6508 551.664 53.6493 554.238 50.9724C559.489 45.5788 566.074 41.6704 573.324 39.6438C577.178 38.5905 581.157 38.0666 585.152 38.0867C588.023 38.0539 590.891 38.2738 593.724 38.7438C595.927 39.0825 598.094 39.6278 600.195 40.3724C601.823 40.8872 603.381 41.5971 604.838 42.4867C605.93 43.1516 606.971 43.8965 607.952 44.7152C607.952 44.7152 607.952 44.8581 607.952 45.1152C607.952 45.6724 607.952 46.6867 608.052 48.1867C608.152 49.6867 608.281 51.3295 608.395 53.1438C608.51 54.9581 608.652 56.8295 608.724 58.7295C608.795 60.6295 608.895 62.201 608.895 63.5867C608.884 63.8587 608.805 64.1236 608.667 64.3581C608.524 64.6295 608.152 64.7581 607.552 64.7581C607.138 64.7469 606.726 64.6894 606.324 64.5867C605.279 64.2434 604.285 63.763 603.367 63.1581C602.021 62.2395 600.624 61.4 599.181 60.6438C597.495 59.6923 595.72 58.9076 593.881 58.301C591.843 57.5687 589.69 57.2058 587.524 57.2295C584.725 57.1997 581.955 57.7961 579.416 58.9752C576.878 60.1542 574.635 61.886 572.852 64.0438C571.028 66.2943 569.642 68.8675 568.767 71.6295C567.784 74.7138 567.302 77.9356 567.338 81.1724C567.324 84.1254 567.66 87.0697 568.338 89.9438C568.902 92.4781 569.882 94.9014 571.238 97.1152C572.551 99.1385 574.286 100.854 576.324 102.144C578.487 103.411 580.961 104.049 583.467 103.987C585.581 103.987 587.467 103.987 589.095 103.758C590.635 103.631 592.163 103.387 593.667 103.03C595.082 102.701 596.468 102.257 597.81 101.701C599.316 101.077 600.785 100.367 602.21 99.5724C602.394 99.5441 602.582 99.5441 602.767 99.5724C602.877 99.5616 602.988 99.5901 603.079 99.6528C603.171 99.7155 603.237 99.8084 603.267 99.9152C603.417 100.306 603.476 100.727 603.438 101.144V107.83C603.438 109.058 603.438 110.272 603.438 111.458C603.438 112.644 603.438 113.658 603.438 114.587C603.438 115.515 603.438 116.287 603.438 116.872C603.438 117.458 603.438 117.715 603.438 117.715C601.712 118.805 599.86 119.683 597.924 120.33C595.966 121.049 593.949 121.594 591.895 121.958C589.791 122.345 587.662 122.574 585.524 122.644C583.438 122.801 581.438 122.872 579.495 122.872C574.508 122.93 569.563 121.953 564.972 120.003C560.382 118.053 556.245 115.173 552.824 111.544C549.379 107.808 546.687 103.442 544.895 98.6867C542.902 93.4455 541.899 87.8797 541.938 82.2724V82.2724ZM664.21 73.701C663.973 74.4599 663.692 75.2041 663.367 75.9295C662.967 76.8581 662.481 77.9152 661.938 79.1152C661.395 80.3152 660.838 81.5867 660.21 82.9581C659.581 84.3295 659.01 85.6581 658.424 87.0295C658.26 87.4399 658.054 87.8324 657.81 88.201C657.57 88.4611 657.255 88.6408 656.91 88.7152C656.342 88.8438 655.763 88.9155 655.181 88.9295C654.481 88.9295 653.467 88.9295 652.167 88.9295L644.41 89.101L642.852 106.244H671.424V108.358C671.352 108.444 671.024 108.944 670.467 109.872C669.91 110.801 669.267 111.844 668.524 113.101C667.781 114.358 666.995 115.658 666.181 116.958C665.367 118.258 664.667 119.244 664.11 120.03C663.794 120.632 663.356 121.163 662.824 121.587C662.354 121.995 661.804 122.301 661.21 122.487C660.595 122.685 659.955 122.796 659.31 122.815C658.638 122.815 657.881 122.815 657.081 122.815C653.724 122.815 650.238 122.744 646.581 122.587C642.924 122.43 639.438 122.258 635.767 122.03C632.095 121.801 628.624 121.558 625.152 121.258C621.681 120.958 618.552 120.715 615.624 120.415C615.334 120.364 615.074 120.206 614.895 119.972C614.706 119.711 614.605 119.395 614.61 119.072C614.467 119.072 614.61 118.758 614.895 118.13C615.181 117.501 615.767 116.701 616.395 115.672C617.024 114.644 617.724 113.53 618.467 112.272C619.21 111.015 619.981 109.658 620.695 108.358L621.581 95.801C621.738 93.6867 621.852 92.101 621.924 91.0581C621.995 90.0152 622.095 89.4581 622.095 89.3867C620.413 89.3957 618.733 89.2859 617.067 89.0581C615.995 88.8724 615.452 88.4581 615.452 87.8295C615.583 87.2222 615.846 86.6513 616.224 86.1581C616.795 85.3295 617.452 84.401 618.238 83.301L620.695 79.9581C621.581 78.801 622.367 77.7438 623.038 76.7724L624.467 57.801H624.295L622.067 57.9152H620.238C618.946 57.9545 617.653 57.8588 616.381 57.6295C615.638 57.4152 615.267 57.0152 615.267 56.4581C615.39 55.8835 615.618 55.3364 615.938 54.8438C616.376 54.0248 616.933 53.0724 617.61 51.9867C618.281 50.901 619.038 49.7867 619.738 48.6295C620.438 47.4724 621.167 46.3438 621.738 45.3438L625.095 39.6295H648.381L675.895 37.6152H676.181C676.379 37.619 676.572 37.6784 676.738 37.7867C676.949 37.8755 677.125 38.0311 677.238 38.2295C677.442 38.5 677.543 38.8342 677.524 39.1724L676.681 42.0295C676.424 42.8581 676.11 43.7295 675.738 44.6581C675.367 45.5867 674.952 46.4867 674.51 47.5152L672.052 53.9867C671.846 54.5157 671.54 55.0005 671.152 55.4152C670.53 55.8317 669.785 56.0278 669.038 55.9724C666.181 56.0486 663.019 56.1771 659.552 56.3581C656.095 56.5152 652.11 56.6581 647.61 56.8152C647.473 57.2259 647.396 57.6541 647.381 58.0867C647.381 58.3867 647.381 58.9867 647.267 59.8724L646.995 62.4438C646.929 63.6248 646.814 64.9105 646.652 66.301C646.51 67.7295 646.324 69.3581 646.095 71.3724L651.624 71.1438C653.452 71.1438 655.11 71.0152 656.595 70.9867L660.438 70.8152C661.552 70.8152 662.338 70.8152 662.781 70.8152C663.144 70.8345 663.495 70.9531 663.795 71.1581C663.995 71.2992 664.153 71.4922 664.251 71.7162C664.349 71.9403 664.384 72.1869 664.352 72.4295C664.382 72.8538 664.333 73.2798 664.21 73.6867V73.701ZM682.395 122.915C682.21 122.89 682.033 122.821 681.879 122.715C681.725 122.608 681.598 122.466 681.51 122.301C681.328 121.968 681.235 121.594 681.238 121.215C681.239 120.901 681.318 120.592 681.467 120.315L688.324 107.201C688.414 106.629 688.471 106.051 688.495 105.472C688.61 104.52 688.724 103.277 688.838 101.744C688.938 100.215 689.052 98.5152 689.167 96.6581C689.281 94.801 689.467 92.9581 689.61 91.1295C689.752 89.301 689.895 87.5867 690.01 85.9438C690.124 84.301 690.281 82.8724 690.395 81.7581L690.567 79.7581C690.638 78.8295 690.71 77.7581 690.781 76.5724C690.852 75.3867 690.952 74.101 691.067 72.7152L691.395 68.5867L692.181 56.9295L689.052 57.6581L685.881 58.2724L683.024 58.7724C682.247 58.8789 681.465 58.9362 680.681 58.9438C680.488 58.9459 680.298 58.8951 680.132 58.7969C679.966 58.6986 679.829 58.5568 679.738 58.3867C679.553 58.0186 679.455 57.6129 679.452 57.2009C679.436 57.0108 679.458 56.8192 679.517 56.6377C679.576 56.4561 679.67 56.2882 679.795 56.1438L693.967 42.9152C695.009 41.9643 696.148 41.1263 697.367 40.4152C698.657 39.6892 700.049 39.1596 701.495 38.8438C703.427 38.4284 705.392 38.1893 707.367 38.1295C709.71 37.9771 712.667 37.901 716.238 37.901C721.683 37.8238 727.115 38.4577 732.395 39.7867C736.69 40.8507 740.756 42.6852 744.395 45.201C746.692 46.7688 748.856 48.5223 750.867 50.4438C754.671 54.0784 757.362 58.7214 758.624 63.8295C759.332 66.7713 759.673 69.7896 759.638 72.8152C759.735 78.5998 758.767 84.3528 756.781 89.7867C755 94.5522 752.372 98.9563 749.024 102.787C745.732 106.493 741.875 109.656 737.595 112.158C733.151 114.743 728.431 116.823 723.524 118.358C718.505 119.971 713.351 121.128 708.124 121.815C702.962 122.509 697.76 122.862 692.552 122.872L682.395 122.915ZM714.824 55.7724L714.095 62.4724C713.867 64.8152 713.624 67.3152 713.367 70.001C713.11 72.6867 712.924 75.3438 712.695 78.0867C712.467 80.8295 712.252 83.501 712.038 86.1867C711.824 88.8724 711.61 91.301 711.424 93.601C711.238 95.901 711.067 97.9724 710.91 99.801C710.752 101.63 710.638 103.072 710.524 104.087L710.352 105.758C714.277 105.883 718.18 105.136 721.781 103.572C724.767 102.244 727.375 100.192 729.367 97.601C731.363 94.9296 732.788 91.8757 733.552 88.6295C734.473 85.0167 734.924 81.3005 734.895 77.5724C734.908 74.8152 734.513 72.0713 733.724 69.4295C732.935 66.7738 731.791 64.2367 730.324 61.8867C728.988 59.6629 727.104 57.8185 724.852 56.5295C722.607 55.3197 720.089 54.705 717.538 54.7438C717.043 54.7583 716.557 54.875 716.11 55.0867C715.663 55.2582 715.233 55.4685 714.824 55.7152V55.7724Z" fill="#FAFF01"/>
<path fill-rule="evenodd" clip-rule="evenodd" d="M52.7361 61.654C52.3237 65.5772 48.809 68.4234 44.8857 68.0111L39.8086 116.316L108.004 123.484L113.081 75.1787C109.158 74.7664 106.312 71.2517 106.724 67.3284C107.137 63.4051 110.651 60.5589 114.575 60.9713L119.652 12.6659L51.4561 5.49825L46.379 53.8036C50.3022 54.216 53.1484 57.7307 52.7361 61.654Z" fill="#E412B6"/>
<path d="M81.3724 105.668C81.5766 103.724 80.3623 101.666 77.9925 101.417L73.1847 100.911C70.8149 100.662 69.1991 102.423 68.9948 104.367C68.7905 106.31 70.0049 108.368 72.3747 108.618L77.1825 109.123C79.5523 109.372 81.1681 107.611 81.3724 105.668ZM80.0596 105.53C79.9073 106.979 78.7068 107.904 77.2406 107.75L72.6033 107.263C71.1541 107.11 70.1571 105.937 70.3076 104.505C70.4581 103.073 71.6774 102.132 73.1265 102.284L77.7639 102.772C79.2301 102.926 80.2119 104.08 80.0596 105.53ZM76.106 105.097C76.1616 104.568 75.7801 104.097 75.2516 104.042C74.7231 103.986 74.2521 104.368 74.1965 104.896C74.141 105.425 74.5206 105.913 75.0491 105.968C75.5777 106.024 76.0505 105.625 76.106 105.097Z" fill="black"/>
<path d="M82.5921 94.0626C82.6476 93.5341 82.2662 93.0631 81.7377 93.0075C81.2092 92.952 80.7382 93.3334 80.6826 93.8619C80.6271 94.3904 81.0067 94.8785 81.5352 94.934C82.0637 94.9896 82.5365 94.5911 82.5921 94.0626Z" fill="black"/>
<path d="M83.8082 82.4917C84.0125 80.5481 82.7982 78.4899 80.4283 78.2408L75.6205 77.7355C73.2507 77.4864 71.635 79.2472 71.4307 81.1908C71.2264 83.1343 72.4408 85.1925 74.8106 85.4416L79.6184 85.9469C81.9882 86.196 83.604 84.4353 83.8082 82.4917ZM82.4955 82.3537C82.3432 83.8029 81.1427 84.7282 79.6765 84.5741L75.0392 84.0867C73.59 83.9344 72.593 82.7608 72.7435 81.3287C72.894 79.8966 74.1133 78.9561 75.5624 79.1084L80.1997 79.5958C81.666 79.7499 82.6478 80.9045 82.4955 82.3537ZM78.5419 81.9209C78.5975 81.3924 78.216 80.9214 77.6875 80.8658C77.159 80.8103 76.688 81.1917 76.6324 81.7202C76.5769 82.2488 76.9565 82.7368 77.485 82.7924C78.0135 82.8479 78.4864 82.4495 78.5419 81.9209Z" fill="black"/>
<path d="M84.6415 72.4319L84.8063 70.8634L79.1581 66.874C78.5479 66.4479 77.8246 66.1133 77.0063 66.0273C74.7558 65.7907 72.887 67.3353 72.6504 69.5858C72.4139 71.8362 73.9513 73.7732 76.1676 74.0062C78.4011 74.2409 80.2475 72.7457 80.4858 70.4782C80.5252 70.1032 80.4866 69.6509 80.3959 69.3656L80.4712 69.3046L84.6415 72.4319ZM79.2484 70.2792C79.0835 71.8477 77.7655 72.7434 76.3164 72.5911C74.8502 72.437 73.7813 71.2904 73.9462 69.7219C74.1092 68.1705 75.3761 67.2694 76.8593 67.4253C78.3085 67.5776 79.4114 68.7278 79.2484 70.2792Z" fill="black"/>
<path d="M86.8731 51.1996L87.6078 44.2095L86.3632 44.0787L85.7737 49.6878L81.5626 49.2452L82.0536 44.5738L80.809 44.443L80.318 49.1144L76.3456 48.6969L76.9154 43.2753L75.6538 43.1427L74.9388 49.9452L86.8731 51.1996Z" fill="black"/>
<path d="M88.3867 36.7985L88.5318 35.4176L77.8592 34.2958L78.2642 30.4428L77.0026 30.3102L76.0475 39.3972L77.3091 39.5299L77.7141 35.6768L88.3867 36.7985Z" fill="black"/>
<path d="M89.2158 28.9102L89.3609 27.5292L83.9223 26.9576L84.5531 20.9564L89.9917 21.528L90.1368 20.147L78.2026 18.8927L78.0574 20.2737L83.2915 20.8238L82.6607 26.825L77.4267 26.2749L77.2815 27.6559L89.2158 28.9102Z" fill="black"/>
<path fill-rule="evenodd" clip-rule="evenodd" d="M122.353 68.9713C121.941 72.8946 118.426 75.7408 114.503 75.3284L109.426 123.634L177.622 130.801L182.699 82.4961C178.775 82.0838 175.929 78.569 176.342 74.6458C176.754 70.7225 180.269 67.8763 184.192 68.2887L189.269 19.9833L121.073 12.8156L115.996 61.121C119.919 61.5333 122.766 65.0481 122.353 68.9713Z" fill="#E412B6"/>
<path d="M150.99 112.985C151.194 111.041 149.979 108.983 147.61 108.734L142.802 108.229C140.432 107.98 138.816 109.74 138.612 111.684C138.408 113.628 139.622 115.686 141.992 115.935L146.8 116.44C149.17 116.689 150.785 114.929 150.99 112.985ZM149.677 112.847C149.524 114.296 148.324 115.221 146.858 115.067L142.22 114.58C140.771 114.428 139.774 113.254 139.925 111.822C140.075 110.39 141.295 109.449 142.744 109.602L147.381 110.089C148.847 110.243 149.829 111.398 149.677 112.847ZM145.723 112.414C145.779 111.886 145.397 111.415 144.869 111.359C144.34 111.304 143.869 111.685 143.814 112.214C143.758 112.742 144.138 113.23 144.666 113.286C145.195 113.341 145.668 112.943 145.723 112.414Z" fill="black"/>
<path d="M152.209 101.38C152.265 100.851 151.883 100.38 151.355 100.325C150.826 100.269 150.355 100.651 150.3 101.179C150.244 101.708 150.624 102.196 151.152 102.251C151.681 102.307 152.154 101.908 152.209 101.38Z" fill="black"/>
<path d="M153.425 89.8091C153.63 87.8655 152.415 85.8073 150.046 85.5582L145.238 85.0529C142.868 84.8038 141.252 86.5646 141.048 88.5081C140.844 90.4517 142.058 92.5099 144.428 92.759L149.236 93.2643C151.605 93.5134 153.221 91.7526 153.425 89.8091ZM152.113 89.6711C151.96 91.1203 150.76 92.0456 149.294 91.8915L144.656 91.4041C143.207 91.2517 142.21 90.0782 142.361 88.6461C142.511 87.214 143.73 86.2734 145.18 86.4258L149.817 86.9132C151.283 87.0673 152.265 88.2219 152.113 89.6711ZM148.159 89.2383C148.215 88.7098 147.833 88.2388 147.305 88.1832C146.776 88.1277 146.305 88.5091 146.25 89.0376C146.194 89.5661 146.574 90.0542 147.102 90.1098C147.631 90.1653 148.104 89.7668 148.159 89.2383Z" fill="black"/>
<path d="M154.259 79.7493L154.424 78.1808L148.775 74.1914C148.165 73.7653 147.442 73.4307 146.623 73.3447C144.373 73.1081 142.504 74.6527 142.268 76.9031C142.031 79.1536 143.568 81.0906 145.785 81.3236C148.018 81.5583 149.865 80.0631 150.103 77.7956C150.142 77.4205 150.104 76.9683 150.013 76.683L150.088 76.6219L154.259 79.7493ZM148.866 77.5966C148.701 79.1651 147.383 80.0608 145.934 79.9085C144.467 79.7544 143.398 78.6078 143.563 77.0393C143.726 75.4879 144.993 74.5868 146.477 74.7427C147.926 74.895 149.029 76.0452 148.866 77.5966Z" fill="black"/>
<path d="M156.49 58.5169L157.225 51.5269L155.98 51.3961L155.391 57.0052L151.18 56.5626L151.671 51.8912L150.426 51.7603L149.935 56.4318L145.963 56.0142L146.533 50.5927L145.271 50.4601L144.556 57.2626L156.49 58.5169Z" fill="black"/>
<path d="M158.004 44.1159L158.149 42.735L147.476 41.6132L147.881 37.7601L146.62 37.6275L145.665 46.7146L146.926 46.8472L147.331 42.9942L158.004 44.1159Z" fill="black"/>
<path d="M158.833 36.2276L158.978 34.8466L153.54 34.275L154.17 28.2738L159.609 28.8454L159.754 27.4644L147.82 26.2101L147.675 27.591L152.909 28.1412L152.278 34.1424L147.044 33.5923L146.899 34.9732L158.833 36.2276Z" fill="black"/>
<path fill-rule="evenodd" clip-rule="evenodd" d="M191.968 76.2887C191.556 80.212 188.041 83.0582 184.118 82.6458L179.041 130.951L247.237 138.119L252.314 89.8135C248.391 89.4011 245.544 85.8864 245.957 81.9631C246.369 78.0398 249.884 75.1937 253.807 75.606L258.884 27.3007L190.688 20.133L185.611 68.4384C189.535 68.8507 192.381 72.3654 191.968 76.2887Z" fill="#E412B6"/>
<path d="M220.605 120.302C220.809 118.359 219.595 116.301 217.225 116.051L212.417 115.546C210.047 115.297 208.432 117.058 208.227 119.001C208.023 120.945 209.237 123.003 211.607 123.252L216.415 123.758C218.785 124.007 220.4 122.246 220.605 120.302ZM219.292 120.164C219.14 121.614 217.939 122.539 216.473 122.385L211.836 121.897C210.387 121.745 209.389 120.572 209.54 119.139C209.691 117.707 210.91 116.767 212.359 116.919L216.996 117.406C218.462 117.561 219.444 118.715 219.292 120.164ZM215.338 119.732C215.394 119.203 215.013 118.732 214.484 118.677C213.956 118.621 213.485 119.002 213.429 119.531C213.373 120.059 213.753 120.548 214.282 120.603C214.81 120.659 215.283 120.26 215.338 119.732Z" fill="black"/>
<path d="M221.824 108.697C221.88 108.169 221.499 107.698 220.97 107.642C220.442 107.587 219.971 107.968 219.915 108.497C219.859 109.025 220.239 109.513 220.768 109.569C221.296 109.624 221.769 109.226 221.824 108.697Z" fill="black"/>
<path d="M223.041 97.1265C223.245 95.1829 222.031 93.1247 219.661 92.8756L214.853 92.3703C212.483 92.1212 210.867 93.8819 210.663 95.8255C210.459 97.7691 211.673 99.8273 214.043 100.076L218.851 100.582C221.221 100.831 222.836 99.07 223.041 97.1265ZM221.728 96.9885C221.576 98.4376 220.375 99.3629 218.909 99.2088L214.272 98.7214C212.822 98.5691 211.825 97.3956 211.976 95.9635C212.126 94.5314 213.346 93.5908 214.795 93.7431L219.432 94.2305C220.898 94.3846 221.88 95.5393 221.728 96.9885ZM217.774 96.5557C217.83 96.0272 217.448 95.5562 216.92 95.5006C216.391 95.4451 215.92 95.8265 215.865 96.355C215.809 96.8835 216.189 97.3716 216.717 97.4271C217.246 97.4827 217.719 97.0842 217.774 96.5557Z" fill="black"/>
<path d="M223.874 87.0667L224.039 85.4982L218.391 81.5088C217.78 81.0826 217.057 80.7481 216.239 80.662C213.988 80.4255 212.119 81.9701 211.883 84.2205C211.646 86.471 213.184 88.408 215.4 88.641C217.633 88.8757 219.48 87.3805 219.718 85.113C219.758 84.7379 219.719 84.2857 219.628 84.0004L219.704 83.9393L223.874 87.0667ZM218.481 84.914C218.316 86.4825 216.998 87.3782 215.549 87.2259C214.083 87.0718 213.014 85.9252 213.179 84.3567C213.342 82.8052 214.608 81.9042 216.092 82.0601C217.541 82.2124 218.644 83.3625 218.481 84.914Z" fill="black"/>
<path d="M226.105 65.8343L226.84 58.8443L225.596 58.7134L225.006 64.3226L220.795 63.8799L221.286 59.2085L220.041 59.0777L219.55 63.7491L215.578 63.3316L216.148 57.9101L214.886 57.7775L214.171 64.58L226.105 65.8343Z" fill="black"/>
<path d="M227.619 51.4333L227.764 50.0523L217.092 48.9306L217.497 45.0775L216.235 44.9449L215.28 54.032L216.541 54.1646L216.946 50.3116L227.619 51.4333Z" fill="black"/>
<path d="M228.448 43.545L228.593 42.164L223.155 41.5924L223.785 35.5911L229.224 36.1628L229.369 34.7818L217.435 33.5275L217.29 34.9084L222.524 35.4585L221.893 41.4598L216.659 40.9097L216.514 42.2906L228.448 43.545Z" fill="black"/>
<path fill-rule="evenodd" clip-rule="evenodd" d="M261.586 83.6051C261.173 87.5284 257.659 90.3746 253.735 89.9622L248.658 138.268L316.854 145.435L321.931 97.1299C318.008 96.7175 315.162 93.2028 315.574 89.2795C315.986 85.3563 319.501 82.5101 323.424 82.9224L328.501 34.6171L260.306 27.4494L255.229 75.7548C259.152 76.1671 261.998 79.6819 261.586 83.6051Z" fill="#E412B6"/>
<path d="M290.222 127.619C290.426 125.675 289.212 123.617 286.842 123.368L282.034 122.863C279.664 122.614 278.049 124.374 277.844 126.318C277.64 128.261 278.855 130.32 281.224 130.569L286.032 131.074C288.402 131.323 290.018 129.562 290.222 127.619ZM288.909 127.481C288.757 128.93 287.556 129.855 286.09 129.701L281.453 129.214C280.004 129.061 279.007 127.888 279.157 126.456C279.308 125.024 280.527 124.083 281.976 124.235L286.613 124.723C288.08 124.877 289.061 126.032 288.909 127.481ZM284.956 127.048C285.011 126.519 284.63 126.048 284.101 125.993C283.573 125.937 283.102 126.319 283.046 126.847C282.991 127.376 283.37 127.864 283.899 127.919C284.427 127.975 284.9 127.577 284.956 127.048Z" fill="black"/>
<path d="M291.442 116.014C291.497 115.485 291.116 115.014 290.587 114.959C290.059 114.903 289.588 115.285 289.532 115.813C289.477 116.342 289.856 116.83 290.385 116.885C290.913 116.941 291.386 116.542 291.442 116.014Z" fill="black"/>
<path d="M292.658 104.443C292.862 102.499 291.648 100.441 289.278 100.192L284.47 99.6867C282.1 99.4376 280.485 101.198 280.28 103.142C280.076 105.086 281.29 107.144 283.66 107.393L288.468 107.898C290.838 108.147 292.454 106.386 292.658 104.443ZM291.345 104.305C291.193 105.754 289.992 106.679 288.526 106.525L283.889 106.038C282.44 105.886 281.443 104.712 281.593 103.28C281.744 101.848 282.963 100.907 284.412 101.06L289.049 101.547C290.516 101.701 291.497 102.856 291.345 104.305ZM287.392 103.872C287.447 103.344 287.066 102.873 286.537 102.817C286.009 102.761 285.538 103.143 285.482 103.671C285.426 104.2 285.806 104.688 286.335 104.744C286.863 104.799 287.336 104.401 287.392 103.872Z" fill="black"/>
<path d="M293.491 94.3831L293.656 92.8146L288.008 88.8252C287.397 88.399 286.674 88.0645 285.856 87.9784C283.605 87.7419 281.737 89.2865 281.5 91.5369C281.264 93.7874 282.801 95.7244 285.017 95.9574C287.251 96.1921 289.097 94.6969 289.335 92.4294C289.375 92.0543 289.336 91.6021 289.245 91.3168L289.321 91.2557L293.491 94.3831ZM288.098 92.2304C287.933 93.7989 286.615 94.6946 285.166 94.5423C283.7 94.3882 282.631 93.2416 282.796 91.6731C282.959 90.1217 284.226 89.2206 285.709 89.3765C287.158 89.5288 288.261 90.6789 288.098 92.2304Z" fill="black"/>
<path d="M295.723 73.1507L296.457 66.1607L295.213 66.0298L294.623 71.639L290.412 71.1964L290.903 66.5249L289.659 66.3941L289.168 71.0655L285.195 70.648L285.765 65.2265L284.503 65.0939L283.788 71.8964L295.723 73.1507Z" fill="black"/>
<path d="M297.236 58.7497L297.381 57.3687L286.709 56.247L287.114 52.3939L285.852 52.2613L284.897 61.3484L286.159 61.481L286.564 57.628L297.236 58.7497Z" fill="black"/>
<path d="M298.065 50.8614L298.211 49.4804L292.772 48.9088L293.403 42.9075L298.841 43.4792L298.986 42.0982L287.052 40.8439L286.907 42.2248L292.141 42.7749L291.51 48.7762L286.276 48.2261L286.131 49.607L298.065 50.8614Z" fill="black"/>
<path fill-rule="evenodd" clip-rule="evenodd" d="M730.347 54.2758C726.425 53.8538 723.588 50.3321 724.01 46.4098L675.717 41.2139L668.381 109.392L716.674 114.588C717.096 110.666 720.618 107.828 724.54 108.25C728.462 108.672 731.3 112.194 730.878 116.116L779.171 121.312L786.506 53.134L738.213 47.938C737.791 51.8603 734.27 54.6978 730.347 54.2758Z" fill="#E412B6"/>
<path d="M702.326 85.7436L711.931 86.777L712.098 85.2259L704.104 84.3659L705.434 71.9972L703.824 71.8239L702.326 85.7436Z" fill="black"/>
<path d="M716.558 87.2748L724.711 88.152L724.867 86.7004L718.325 85.9965L718.853 81.0848L724.302 81.6711L724.458 80.2195L719.009 79.6332L719.508 75L725.831 75.6803L725.99 74.2088L718.055 73.3552L716.558 87.2748Z" fill="black"/>
<path d="M734.202 89.4347C737.244 89.762 739.222 88.2047 739.457 86.0173C740.063 80.3898 732.063 82.2044 732.471 78.4063C732.596 77.253 733.568 76.2513 735.537 76.4631C737.426 76.6663 738.375 77.7541 738.204 79.3449L739.854 79.5225C740.165 76.6392 737.823 75.2205 735.715 74.9937C732.911 74.6921 731.075 76.2445 730.861 78.233C730.262 83.8009 738.285 81.5864 737.816 85.9413C737.66 87.3929 736.251 88.1465 734.422 87.9497C732.314 87.7229 731.141 86.2892 731.314 84.6785L729.703 84.5052C729.425 87.0903 731.438 89.1373 734.202 89.4347Z" fill="black"/>
<path d="M747.717 90.8889C750.76 91.2162 752.738 89.6589 752.973 87.4715C753.579 81.844 745.579 83.6586 745.987 79.8605C746.111 78.7072 747.084 77.7055 749.053 77.9173C750.942 78.1205 751.891 79.2083 751.72 80.7991L753.37 80.9767C753.68 78.0934 751.339 76.6747 749.231 76.4479C746.427 76.1463 744.59 77.6987 744.377 79.6872C743.777 85.2551 751.8 83.0406 751.332 87.3955C751.176 88.8471 749.767 89.6007 747.938 89.4039C745.83 89.1771 744.656 87.7434 744.83 86.1327L743.219 85.9594C742.941 88.5444 744.953 90.5915 747.717 90.8889Z" fill="black"/>
</g>
<defs>
<clipPath id="clip0_357_2427">
<rect width="800" height="165.714" fill="white" transform="translate(0.695312)"/>
</clipPath>
</defs>
</svg>
