<svg width="801" height="300" viewBox="0 0 801 300" fill="none" xmlns="http://www.w3.org/2000/svg">
<g clip-path="url(#clip0_357_2222)">
<path fill-rule="evenodd" clip-rule="evenodd" d="M400.695 0H57.7657L54.8715 13.5384C50.6233 33.4107 41.8529 52.0306 29.2443 67.9461C-8.82103 115.995 -8.82103 184.005 29.2443 232.054C41.8529 247.969 50.6233 266.589 54.8715 286.462L57.7657 300H400.695H743.625L746.519 286.462C750.767 266.589 759.538 247.969 772.146 232.054C810.212 184.005 810.212 115.995 772.146 67.9461C759.538 52.0306 750.767 33.4107 746.519 13.5384L743.625 0H400.695Z" fill="#E412B6"/>
<path d="M145.738 97.249C155.363 97.249 162.051 90.499 162.051 81.499V67.624C162.051 58.624 155.363 51.874 145.738 51.874C136.113 51.874 129.426 58.624 129.426 67.624V81.499C129.426 90.499 136.113 97.249 145.738 97.249ZM145.738 92.4365C137.926 92.4365 134.426 86.874 134.426 81.1865V67.9365C134.426 62.3115 137.988 56.6865 145.738 56.6865C153.488 56.6865 157.051 62.3115 157.051 67.9365V81.1865C157.051 86.874 153.551 92.4365 145.738 92.4365Z" fill="black"/>
<path d="M172.156 96.4365H177.031V61.874H177.406L199.031 96.4365H204.281V52.6865H199.406V87.249H199.031L177.156 52.6865H172.156V96.4365Z" fill="black"/>
<path d="M217.887 96.4365H243.512V91.874H222.949V76.4365H240.074V71.874H222.949V57.3115H242.824V52.6865H217.887V96.4365Z" fill="black"/>
<path d="M301.098 96.4365H306.16V79.124H316.848C324.535 79.124 330.223 73.6865 330.223 65.8115C330.223 57.874 324.785 52.6865 316.848 52.6865H301.098V96.4365ZM306.16 74.624V57.1865H316.41C321.66 57.1865 325.035 60.8115 325.035 65.8115C325.035 70.874 321.66 74.624 316.41 74.624H306.16Z" fill="black"/>
<path d="M342.953 96.4365H348.016V78.749H357.766L367.453 96.4365H373.328L363.078 78.249C368.016 76.8115 372.203 72.0615 372.203 65.624C372.203 57.9365 366.891 52.6865 357.953 52.6865H342.953V96.4365ZM348.016 74.249V57.1865H357.641C363.828 57.1865 366.953 60.999 366.953 65.624C366.953 71.374 363.078 74.249 357.953 74.249H348.016Z" fill="black"/>
<path d="M385.309 96.4365H415.934V91.5615H403.184V57.5615H415.934V52.6865H385.309V57.5615H398.121V91.5615H385.309V96.4365Z" fill="black"/>
<path d="M443.102 97.249C452.352 97.249 458.914 90.999 459.414 82.499H454.352C453.852 87.6865 450.289 92.4365 443.102 92.4365C435.289 92.4365 431.789 86.874 431.789 81.1865V67.9365C431.789 62.3115 435.352 56.6865 443.102 56.6865C450.289 56.6865 453.852 61.499 454.352 66.6865H459.414C458.914 58.124 452.352 51.874 443.102 51.874C433.477 51.874 426.789 58.624 426.789 67.624V81.499C426.789 90.499 433.477 97.249 443.102 97.249Z" fill="black"/>
<path d="M472.77 96.4365H498.395V91.874H477.832V76.4365H494.957V71.874H477.832V57.3115H497.707V52.6865H472.77V96.4365Z" fill="black"/>
<path d="M568.043 96.4365H573.105V57.3115H587.23V52.6865H553.918V57.3115H568.043V96.4365Z" fill="black"/>
<path d="M626.898 96.4365H632.211L616.023 52.6865H610.086L593.836 96.4365H599.148L602.836 86.0615H623.211L626.898 96.4365ZM604.523 81.4365L612.836 58.1865H613.211L621.523 81.4365H604.523Z" fill="black"/>
<path d="M655.504 97.249C665.004 97.1865 671.629 90.4365 671.629 81.499V73.4365H653.191V77.874H666.629V81.1865C666.629 86.8115 663.191 92.374 655.504 92.4365C647.691 92.4365 644.191 86.874 644.191 81.1865V67.9365C644.191 62.3115 647.754 56.6865 655.504 56.6865C662.691 56.6865 666.254 61.499 666.754 66.6865H671.816C671.316 58.124 664.754 51.874 655.504 51.874C645.879 51.874 639.191 58.624 639.191 67.624V81.499C639.191 90.499 645.879 97.249 655.504 97.249Z" fill="black"/>
<path d="M103.258 172.249C112.508 172.249 119.07 165.999 119.57 157.499H114.508C114.008 162.687 110.445 167.437 103.258 167.437C95.4453 167.437 91.9453 161.874 91.9453 156.187V142.937C91.9453 137.312 95.5078 131.687 103.258 131.687C110.445 131.687 114.008 136.499 114.508 141.687H119.57C119.07 133.124 112.508 126.874 103.258 126.874C93.6328 126.874 86.9453 133.624 86.9453 142.624V156.499C86.9453 165.499 93.6328 172.249 103.258 172.249Z" fill="black"/>
<path d="M159.613 171.437H164.926L148.738 127.687H142.801L126.551 171.437H131.863L135.551 161.062H155.926L159.613 171.437ZM137.238 156.437L145.551 133.187H145.926L154.238 156.437H137.238Z" fill="black"/>
<path d="M172.156 171.437H177.031V136.874H177.406L199.031 171.437H204.281V127.687H199.406V162.249H199.031L177.156 127.687H172.156V171.437Z" fill="black"/>
<path d="M227.449 141.687H231.074L233.949 127.687H228.512L227.449 141.687Z" fill="black"/>
<path d="M270.68 171.437H275.742V132.312H289.867V127.687H256.555V132.312H270.68V171.437Z" fill="black"/>
<path d="M342.078 171.437H347.141V151.499H369.141V171.437H374.203V127.687H369.141V146.874H347.141V127.687H342.078V171.437Z" fill="black"/>
<path d="M400.621 172.249C410.246 172.249 416.934 165.499 416.934 156.499V142.624C416.934 133.624 410.246 126.874 400.621 126.874C390.996 126.874 384.309 133.624 384.309 142.624V156.499C384.309 165.499 390.996 172.249 400.621 172.249ZM400.621 167.437C392.809 167.437 389.309 161.874 389.309 156.187V142.937C389.309 137.312 392.871 131.687 400.621 131.687C408.371 131.687 411.934 137.312 411.934 142.937V156.187C411.934 161.874 408.434 167.437 400.621 167.437Z" fill="black"/>
<path d="M428.039 171.437H458.227V166.562H433.102V127.687H428.039V171.437Z" fill="black"/>
<path d="M471.145 171.437H483.707C493.332 171.437 500.02 165.499 500.02 156.499V143.249C500.02 134.249 493.332 127.687 483.707 127.687H471.145V171.437ZM476.207 166.937V132.249H483.707C491.457 132.249 495.02 137.937 495.02 143.562V156.187C495.02 161.874 491.52 166.937 483.707 166.937H476.207Z" fill="black"/>
<path d="M570.793 172.249C580.355 172.249 585.98 166.749 585.98 159.874C585.98 142.187 561.73 150.499 561.73 138.562C561.73 134.937 564.418 131.499 570.605 131.499C576.543 131.499 579.855 134.562 579.855 139.562H585.043C585.043 130.499 577.293 126.874 570.668 126.874C561.855 126.874 556.668 132.312 556.668 138.562C556.668 156.062 580.855 146.499 580.855 160.187C580.855 164.749 576.73 167.562 570.98 167.562C564.355 167.562 560.23 163.499 560.23 158.437H555.168C555.168 166.562 562.105 172.249 570.793 172.249Z" fill="black"/>
<path d="M613.023 172.249C623.398 172.249 629.336 165.562 629.336 155.687V127.687H624.336V155.624C624.336 162.937 620.398 167.562 613.023 167.562C605.648 167.562 601.773 162.937 601.773 155.687V127.687H596.711V155.749C596.711 165.687 602.523 172.249 613.023 172.249Z" fill="black"/>
<path d="M655.504 172.249C664.754 172.249 671.316 165.999 671.816 157.499H666.754C666.254 162.687 662.691 167.437 655.504 167.437C647.691 167.437 644.191 161.874 644.191 156.187V142.937C644.191 137.312 647.754 131.687 655.504 131.687C662.691 131.687 666.254 136.499 666.754 141.687H671.816C671.316 133.124 664.754 126.874 655.504 126.874C645.879 126.874 639.191 133.624 639.191 142.624V156.499C639.191 165.499 645.879 172.249 655.504 172.249Z" fill="black"/>
<path d="M681.922 171.437H686.984V151.499H708.984V171.437H714.047V127.687H708.984V146.874H686.984V127.687H681.922V171.437Z" fill="black"/>
<path d="M202.094 246.437H207.406L191.219 202.687H185.281L169.031 246.437H174.344L178.031 236.062H198.406L202.094 246.437ZM179.719 231.437L188.031 208.187H188.406L196.719 231.437H179.719Z" fill="black"/>
<path d="M258.742 246.437H274.117C281.492 246.437 287.617 241.874 287.617 233.999C287.617 227.812 283.492 224.687 280.555 223.687V223.312C284.055 221.437 286.117 218.187 286.117 213.874C286.117 207.499 281.18 202.687 272.867 202.687H258.742V246.437ZM263.742 221.624V207.187H272.867C277.555 207.187 280.93 209.937 280.93 214.249C280.93 218.687 277.617 221.624 272.68 221.624H263.742ZM263.742 241.999V225.874H272.68C277.742 225.874 282.367 228.124 282.367 233.874C282.367 239.499 278.43 241.999 273.242 241.999H263.742Z" fill="black"/>
<path d="M300.348 246.437H330.973V241.562H318.223V207.562H330.973V202.687H300.348V207.562H313.16V241.562H300.348V246.437Z" fill="black"/>
<path d="M358.141 247.249C367.641 247.187 374.266 240.437 374.266 231.499V223.437H355.828V227.874H369.266V231.187C369.266 236.812 365.828 242.374 358.141 242.437C350.328 242.437 346.828 236.874 346.828 231.187V217.937C346.828 212.312 350.391 206.687 358.141 206.687C365.328 206.687 368.891 211.499 369.391 216.687H374.453C373.953 208.124 367.391 201.874 358.141 201.874C348.516 201.874 341.828 208.624 341.828 217.624V231.499C341.828 240.499 348.516 247.249 358.141 247.249Z" fill="black"/>
<path d="M439.602 246.437H446.164L461.664 202.687H455.977L442.977 240.874H442.602L429.914 202.687H424.477L439.602 246.437Z" fill="black"/>
<path d="M499.457 246.437H504.77L488.582 202.687H482.645L466.395 246.437H471.707L475.395 236.062H495.77L499.457 246.437ZM477.082 231.437L485.395 208.187H485.77L494.082 231.437H477.082Z" fill="black"/>
<path d="M513 246.437H543.187V241.562H518.063V202.687H513V246.437Z" fill="black"/>
<path d="M570.543 247.249C580.918 247.249 586.855 240.562 586.855 230.687V202.687H581.855V230.624C581.855 237.937 577.918 242.562 570.543 242.562C563.168 242.562 559.293 237.937 559.293 230.687V202.687H554.23V230.749C554.23 240.687 560.043 247.249 570.543 247.249Z" fill="black"/>
<path d="M600.211 246.437H625.836V241.874H605.273V226.437H622.398V221.874H605.273V207.312H625.148V202.687H600.211V246.437Z" fill="black"/>
</g>
<defs>
<clipPath id="clip0_357_2222">
<rect width="800" height="300" fill="white" transform="translate(0.695312)"/>
</clipPath>
</defs>
</svg>
