<svg width="800" height="493" viewBox="0 0 800 493" fill="none" xmlns="http://www.w3.org/2000/svg">
<g clip-path="url(#clip0_357_2142)">
<path fill-rule="evenodd" clip-rule="evenodd" d="M400 51.282C371.678 51.282 348.718 28.3223 348.718 0H0V492.308H348.718C348.718 463.985 371.678 441.026 400 441.026C428.322 441.026 451.282 463.985 451.282 492.308H800V0H451.282C451.282 28.3223 428.322 51.282 400 51.282Z" fill="#E412B6"/>
<path d="M107.23 288.778C121.261 288.778 135.046 278.562 135.046 261.455V226.747C135.046 209.639 121.261 199.424 107.23 199.424C93.1997 199.424 79.415 209.639 79.415 226.747V261.455C79.415 278.562 93.1997 288.778 107.23 288.778ZM107.23 279.301C96.7689 279.301 89.2612 271.424 89.2612 260.839V227.362C89.2612 216.901 96.892 208.901 107.23 208.901C117.569 208.901 125.2 216.901 125.2 227.362V260.839C125.2 271.424 117.692 279.301 107.23 279.301ZM107.353 250.747C111.169 250.747 114.246 247.67 114.246 243.855C114.246 240.039 111.169 236.962 107.353 236.962C103.538 236.962 100.338 240.039 100.338 243.855C100.338 247.67 103.538 250.747 107.353 250.747Z" fill="black"/>
<path d="M191.007 288.778C194.823 288.778 197.9 285.701 197.9 281.885C197.9 278.07 194.823 274.993 191.007 274.993C187.192 274.993 183.992 278.07 183.992 281.885C183.992 285.701 187.192 288.778 191.007 288.778Z" fill="black"/>
<path d="M274.538 288.778C288.569 288.778 302.353 278.562 302.353 261.455V226.747C302.353 209.639 288.569 199.424 274.538 199.424C260.507 199.424 246.723 209.639 246.723 226.747V261.455C246.723 278.562 260.507 288.778 274.538 288.778ZM274.538 279.301C264.077 279.301 256.569 271.424 256.569 260.839V227.362C256.569 216.901 264.2 208.901 274.538 208.901C284.877 208.901 292.507 216.901 292.507 227.362V260.839C292.507 271.424 285 279.301 274.538 279.301ZM274.661 250.747C278.477 250.747 281.553 247.67 281.553 243.855C281.553 240.039 278.477 236.962 274.661 236.962C270.846 236.962 267.646 240.039 267.646 243.855C267.646 247.67 270.846 250.747 274.661 250.747Z" fill="black"/>
<path d="M361.392 278.07V201.024H352.038C352.038 209.762 346.253 213.332 330.5 213.332V221.332H351.423V278.07H331.853V287.178H386.007V278.07H361.392Z" fill="black"/>
<path d="M500.269 287.178H550.73V278.193H510.238V247.793H543.961V238.808H510.238V210.132H549.377V201.024H500.269V287.178Z" fill="black"/>
<path d="M604.23 287.178H614.2V210.132H642.015V201.024H576.415V210.132H604.23V287.178Z" fill="black"/>
<path d="M661.177 287.178H671.146V247.916H714.469V287.178H724.438V201.024H714.469V238.808H671.146V201.024H661.177V287.178Z" fill="black"/>
</g>
<defs>
<clipPath id="clip0_357_2142">
<rect width="800" height="492.308" fill="white"/>
</clipPath>
</defs>
</svg>
