<svg width="644" height="800" viewBox="0 0 644 800" fill="none" xmlns="http://www.w3.org/2000/svg">
<g clip-path="url(#clip0_357_2146)">
<path fill-rule="evenodd" clip-rule="evenodd" d="M321.649 41.2371C298.875 41.2371 280.412 22.7746 280.412 0H0V395.876H280.412C280.412 373.102 298.875 354.639 321.649 354.639C344.424 354.639 362.887 373.102 362.887 395.876H643.299V0H362.887C362.887 22.7746 344.424 41.2371 321.649 41.2371Z" fill="#FAFF01"/>
<path d="M86.2283 232.209C97.5108 232.209 108.595 223.995 108.595 210.238V182.329C108.595 168.572 97.5108 160.357 86.2283 160.357C74.9459 160.357 63.8613 168.572 63.8613 182.329V210.238C63.8613 223.995 74.9459 232.209 86.2283 232.209ZM86.2283 224.588C77.816 224.588 71.7789 218.254 71.7789 209.743V182.823C71.7789 174.411 77.9149 167.978 86.2283 167.978C94.5417 167.978 100.678 174.411 100.678 182.823V209.743C100.678 218.254 94.6407 224.588 86.2283 224.588ZM86.3273 201.628C89.3953 201.628 91.8696 199.153 91.8696 196.085C91.8696 193.017 89.3953 190.543 86.3273 190.543C83.2593 190.543 80.6861 193.017 80.6861 196.085C80.6861 199.153 83.2593 201.628 86.3273 201.628Z" fill="black"/>
<path d="M153.595 232.209C156.663 232.209 159.138 229.735 159.138 226.667C159.138 223.599 156.663 221.124 153.595 221.124C150.527 221.124 147.954 223.599 147.954 226.667C147.954 229.735 150.527 232.209 153.595 232.209Z" fill="black"/>
<path d="M220.764 232.209C232.047 232.209 243.131 223.995 243.131 210.238V182.329C243.131 168.572 232.047 160.357 220.764 160.357C209.482 160.357 198.397 168.572 198.397 182.329V210.238C198.397 223.995 209.482 232.209 220.764 232.209ZM220.764 224.588C212.352 224.588 206.315 218.254 206.315 209.743V182.823C206.315 174.411 212.451 167.978 220.764 167.978C229.078 167.978 235.214 174.411 235.214 182.823V209.743C235.214 218.254 229.177 224.588 220.764 224.588ZM220.863 201.628C223.931 201.628 226.406 199.153 226.406 196.085C226.406 193.017 223.931 190.543 220.863 190.543C217.795 190.543 215.222 193.017 215.222 196.085C215.222 199.153 217.795 201.628 220.863 201.628Z" fill="black"/>
<path d="M290.606 223.599V161.644H283.084C283.084 168.671 278.432 171.541 265.764 171.541V177.974H282.589V223.599H266.853V230.922H310.399V223.599H290.606Z" fill="black"/>
<path d="M402.28 230.922H442.857V223.698H410.296V199.252H437.414V192.028H410.296V168.968H441.769V161.644H402.28V230.922Z" fill="black"/>
<path d="M485.878 230.922H493.894V168.968H516.261V161.644H463.511V168.968H485.878V230.922Z" fill="black"/>
<path d="M531.67 230.922H539.686V199.351H574.523V230.922H582.54V161.644H574.523V192.028H539.686V161.644H531.67V230.922Z" fill="black"/>
<path fill-rule="evenodd" clip-rule="evenodd" d="M321.649 445.361C298.875 445.361 280.412 426.899 280.412 404.124H0V800H280.412C280.412 777.226 298.875 758.763 321.649 758.763C344.424 758.763 362.887 777.226 362.887 800H643.299V404.124H362.887C362.887 426.899 344.424 445.361 321.649 445.361Z" fill="#FAFF01"/>
<path d="M86.2283 636.334C97.5108 636.334 108.595 628.12 108.595 614.363V586.454C108.595 572.697 97.5108 564.482 86.2283 564.482C74.9459 564.482 63.8613 572.697 63.8613 586.454V614.363C63.8613 628.12 74.9459 636.334 86.2283 636.334ZM86.2283 628.713C77.816 628.713 71.7789 622.379 71.7789 613.868V586.948C71.7789 578.536 77.9149 572.103 86.2283 572.103C94.5417 572.103 100.678 578.536 100.678 586.948V613.868C100.678 622.379 94.6407 628.713 86.2283 628.713ZM86.3273 605.753C89.3953 605.753 91.8696 603.278 91.8696 600.21C91.8696 597.142 89.3953 594.668 86.3273 594.668C83.2593 594.668 80.6861 597.142 80.6861 600.21C80.6861 603.278 83.2593 605.753 86.3273 605.753Z" fill="black"/>
<path d="M153.595 636.334C156.663 636.334 159.138 633.86 159.138 630.792C159.138 627.724 156.663 625.249 153.595 625.249C150.527 625.249 147.954 627.724 147.954 630.792C147.954 633.86 150.527 636.334 153.595 636.334Z" fill="black"/>
<path d="M220.764 636.334C232.047 636.334 243.131 628.12 243.131 614.363V586.454C243.131 572.697 232.047 564.482 220.764 564.482C209.482 564.482 198.397 572.697 198.397 586.454V614.363C198.397 628.12 209.482 636.334 220.764 636.334ZM220.764 628.713C212.352 628.713 206.315 622.379 206.315 613.868V586.948C206.315 578.536 212.451 572.103 220.764 572.103C229.078 572.103 235.214 578.536 235.214 586.948V613.868C235.214 622.379 229.177 628.713 220.764 628.713ZM220.863 605.753C223.931 605.753 226.406 603.278 226.406 600.21C226.406 597.142 223.931 594.668 220.863 594.668C217.795 594.668 215.222 597.142 215.222 600.21C215.222 603.278 217.795 605.753 220.863 605.753Z" fill="black"/>
<path d="M290.606 627.724V565.769H283.084C283.084 572.796 278.432 575.666 265.764 575.666V582.099H282.589V627.724H266.853V635.047H310.399V627.724H290.606Z" fill="black"/>
<path d="M402.28 635.047H442.857V627.823H410.296V603.377H437.414V596.153H410.296V573.093H441.769V565.769H402.28V635.047Z" fill="black"/>
<path d="M485.878 635.047H493.894V573.093H516.261V565.769H463.511V573.093H485.878V635.047Z" fill="black"/>
<path d="M531.67 635.047H539.686V603.476H574.523V635.047H582.54V565.769H574.523V596.153H539.686V565.769H531.67V635.047Z" fill="black"/>
</g>
<defs>
<clipPath id="clip0_357_2146">
<rect width="643.299" height="800" fill="white"/>
</clipPath>
</defs>
</svg>
