<svg width="428" height="800" viewBox="0 0 428 800" fill="none" xmlns="http://www.w3.org/2000/svg">
<g clip-path="url(#clip0_357_2154)">
<path fill-rule="evenodd" clip-rule="evenodd" d="M213.997 27.3973C198.866 27.3973 186.6 15.1311 186.6 0H0.298828V263.014H186.6C186.6 247.883 198.866 235.616 213.997 235.616C229.129 235.616 241.395 247.883 241.395 263.014H427.696V0H241.395C241.395 15.1311 229.129 27.3973 213.997 27.3973Z" fill="#E412B6"/>
<path d="M57.5878 154.276C65.0837 154.276 72.4481 148.819 72.4481 139.679V121.136C72.4481 111.997 65.0837 106.539 57.5878 106.539C50.0919 106.539 42.7275 111.997 42.7275 121.136V139.679C42.7275 148.819 50.0919 154.276 57.5878 154.276ZM57.5878 149.213C51.9988 149.213 47.9878 145.005 47.9878 139.35V121.465C47.9878 115.876 52.0645 111.602 57.5878 111.602C63.1111 111.602 67.1878 115.876 67.1878 121.465V139.35C67.1878 145.005 63.1769 149.213 57.5878 149.213ZM57.6536 133.958C59.6919 133.958 61.3358 132.314 61.3358 130.276C61.3358 128.238 59.6919 126.594 57.6536 126.594C55.6152 126.594 53.9056 128.238 53.9056 130.276C53.9056 132.314 55.6152 133.958 57.6536 133.958Z" fill="black"/>
<path d="M102.345 154.276C104.384 154.276 106.028 152.632 106.028 150.594C106.028 148.556 104.384 146.912 102.345 146.912C100.307 146.912 98.5974 148.556 98.5974 150.594C98.5974 152.632 100.307 154.276 102.345 154.276Z" fill="black"/>
<path d="M146.971 154.276C154.467 154.276 161.832 148.819 161.832 139.679V121.136C161.832 111.997 154.467 106.539 146.971 106.539C139.475 106.539 132.111 111.997 132.111 121.136V139.679C132.111 148.819 139.475 154.276 146.971 154.276ZM146.971 149.213C141.382 149.213 137.371 145.005 137.371 139.35V121.465C137.371 115.876 141.448 111.602 146.971 111.602C152.495 111.602 156.571 115.876 156.571 121.465V139.35C156.571 145.005 152.56 149.213 146.971 149.213ZM147.037 133.958C149.075 133.958 150.719 132.314 150.719 130.276C150.719 128.238 149.075 126.594 147.037 126.594C144.999 126.594 143.289 128.238 143.289 130.276C143.289 132.314 144.999 133.958 147.037 133.958Z" fill="black"/>
<path d="M193.373 148.556V107.394H188.375C188.375 112.062 185.285 113.969 176.869 113.969V118.243H188.047V148.556H177.592V153.421H206.523V148.556H193.373Z" fill="black"/>
<path d="M267.567 153.421H294.526V148.621H272.893V132.38H290.91V127.58H272.893V112.26H293.803V107.394H267.567V153.421Z" fill="black"/>
<path d="M323.108 153.421H328.434V112.26H343.295V107.394H308.248V112.26H323.108V153.421Z" fill="black"/>
<path d="M353.532 153.421H358.858V132.446H382.003V153.421H387.329V107.394H382.003V127.58H358.858V107.394H353.532V153.421Z" fill="black"/>
<path fill-rule="evenodd" clip-rule="evenodd" d="M213.997 295.89C198.866 295.89 186.6 283.624 186.6 268.493H0.298828V531.507H186.6C186.6 516.376 198.866 504.11 213.997 504.11C229.129 504.11 241.395 516.376 241.395 531.507H427.696V268.493H241.395C241.395 283.624 229.129 295.89 213.997 295.89Z" fill="#E412B6"/>
<path d="M57.5878 422.769C65.0837 422.769 72.4481 417.312 72.4481 408.172V389.629C72.4481 380.49 65.0837 375.032 57.5878 375.032C50.0919 375.032 42.7275 380.49 42.7275 389.629V408.172C42.7275 417.312 50.0919 422.769 57.5878 422.769ZM57.5878 417.706C51.9988 417.706 47.9878 413.498 47.9878 407.843V389.958C47.9878 384.369 52.0645 380.095 57.5878 380.095C63.1111 380.095 67.1878 384.369 67.1878 389.958V407.843C67.1878 413.498 63.1769 417.706 57.5878 417.706ZM57.6536 402.451C59.6919 402.451 61.3358 400.808 61.3358 398.769C61.3358 396.731 59.6919 395.087 57.6536 395.087C55.6152 395.087 53.9056 396.731 53.9056 398.769C53.9056 400.808 55.6152 402.451 57.6536 402.451Z" fill="black"/>
<path d="M102.345 422.769C104.384 422.769 106.028 421.125 106.028 419.087C106.028 417.049 104.384 415.405 102.345 415.405C100.307 415.405 98.5974 417.049 98.5974 419.087C98.5974 421.125 100.307 422.769 102.345 422.769Z" fill="black"/>
<path d="M146.971 422.769C154.467 422.769 161.832 417.312 161.832 408.172V389.629C161.832 380.49 154.467 375.032 146.971 375.032C139.475 375.032 132.111 380.49 132.111 389.629V408.172C132.111 417.312 139.475 422.769 146.971 422.769ZM146.971 417.706C141.382 417.706 137.371 413.498 137.371 407.843V389.958C137.371 384.369 141.448 380.095 146.971 380.095C152.495 380.095 156.571 384.369 156.571 389.958V407.843C156.571 413.498 152.56 417.706 146.971 417.706ZM147.037 402.451C149.075 402.451 150.719 400.808 150.719 398.769C150.719 396.731 149.075 395.087 147.037 395.087C144.999 395.087 143.289 396.731 143.289 398.769C143.289 400.808 144.999 402.451 147.037 402.451Z" fill="black"/>
<path d="M193.373 417.049V375.887H188.375C188.375 380.556 185.285 382.462 176.869 382.462V386.736H188.047V417.049H177.592V421.914H206.523V417.049H193.373Z" fill="black"/>
<path d="M267.567 421.914H294.526V417.114H272.893V400.873H290.91V396.073H272.893V380.753H293.803V375.887H267.567V421.914Z" fill="black"/>
<path d="M323.108 421.914H328.434V380.753H343.295V375.887H308.248V380.753H323.108V421.914Z" fill="black"/>
<path d="M353.532 421.914H358.858V400.939H382.003V421.914H387.329V375.887H382.003V396.073H358.858V375.887H353.532V421.914Z" fill="black"/>
<path fill-rule="evenodd" clip-rule="evenodd" d="M213.997 564.384C198.866 564.384 186.6 552.117 186.6 536.986H0.298828V800H186.6C186.6 784.869 198.866 772.603 213.997 772.603C229.129 772.603 241.395 784.869 241.395 800H427.696V536.986H241.395C241.395 552.117 229.129 564.384 213.997 564.384Z" fill="#E412B6"/>
<path d="M57.5878 691.262C65.0837 691.262 72.4481 685.805 72.4481 676.665V658.123C72.4481 648.983 65.0837 643.525 57.5878 643.525C50.0919 643.525 42.7275 648.983 42.7275 658.123V676.665C42.7275 685.805 50.0919 691.262 57.5878 691.262ZM57.5878 686.199C51.9988 686.199 47.9878 681.991 47.9878 676.336V658.451C47.9878 652.862 52.0645 648.588 57.5878 648.588C63.1111 648.588 67.1878 652.862 67.1878 658.451V676.336C67.1878 681.991 63.1769 686.199 57.5878 686.199ZM57.6536 670.945C59.6919 670.945 61.3358 669.301 61.3358 667.262C61.3358 665.224 59.6919 663.58 57.6536 663.58C55.6152 663.58 53.9056 665.224 53.9056 667.262C53.9056 669.301 55.6152 670.945 57.6536 670.945Z" fill="black"/>
<path d="M102.345 691.262C104.384 691.262 106.028 689.618 106.028 687.58C106.028 685.542 104.384 683.898 102.345 683.898C100.307 683.898 98.5974 685.542 98.5974 687.58C98.5974 689.618 100.307 691.262 102.345 691.262Z" fill="black"/>
<path d="M146.971 691.262C154.467 691.262 161.832 685.805 161.832 676.665V658.123C161.832 648.983 154.467 643.525 146.971 643.525C139.475 643.525 132.111 648.983 132.111 658.123V676.665C132.111 685.805 139.475 691.262 146.971 691.262ZM146.971 686.199C141.382 686.199 137.371 681.991 137.371 676.336V658.451C137.371 652.862 141.448 648.588 146.971 648.588C152.495 648.588 156.571 652.862 156.571 658.451V676.336C156.571 681.991 152.56 686.199 146.971 686.199ZM147.037 670.945C149.075 670.945 150.719 669.301 150.719 667.262C150.719 665.224 149.075 663.58 147.037 663.58C144.999 663.58 143.289 665.224 143.289 667.262C143.289 669.301 144.999 670.945 147.037 670.945Z" fill="black"/>
<path d="M193.373 685.542V644.38H188.375C188.375 649.049 185.285 650.956 176.869 650.956V655.229H188.047V685.542H177.592V690.408H206.523V685.542H193.373Z" fill="black"/>
<path d="M267.567 690.408H294.526V685.608H272.893V669.366H290.91V664.566H272.893V649.246H293.803V644.38H267.567V690.408Z" fill="black"/>
<path d="M323.108 690.408H328.434V649.246H343.295V644.38H308.248V649.246H323.108V690.408Z" fill="black"/>
<path d="M353.532 690.408H358.858V669.432H382.003V690.408H387.329V644.38H382.003V664.566H358.858V644.38H353.532V690.408Z" fill="black"/>
</g>
<defs>
<clipPath id="clip0_357_2154">
<rect width="427.397" height="800" fill="white" transform="translate(0.298828)"/>
</clipPath>
</defs>
</svg>
