<svg width="801" height="729" viewBox="0 0 801 729" fill="none" xmlns="http://www.w3.org/2000/svg">
<g clip-path="url(#clip0_357_2410)">
<path d="M801.363 -0.711914H1.36328V728.177H801.363V-0.711914Z" fill="#FAFF01"/>
<path fill-rule="evenodd" clip-rule="evenodd" d="M109.674 354.8H99.1406V365.377V375.954V386.532V397.109V407.687V418.264H109.674V407.687V397.109H109.718V386.532V375.955V365.378H120.252H130.83H141.406H151.984H162.561V365.421V375.954V386.532V397.109V407.687V418.264H173.139V407.687V397.109V386.532V375.955V365.421V365.377V354.843H162.562V354.8H151.984H141.407H130.83H120.252H109.674ZM183.715 354.843H194.293H204.87V365.42H215.448V375.954H204.87H194.293V386.532H204.87V397.109H194.293H183.715V386.532V375.955V365.421V365.377V354.843ZM226.029 354.8H236.606H247.184V365.378L247.184 375.955H236.607V386.532H247.183H257.76V375.954H268.294V365.421H257.76V354.843H268.294H268.338H278.872V365.377V365.421V375.954H289.449H300.027V386.532H310.604V397.109H300.027V407.687L310.604 407.69H321.182V418.268L321.185 428.845V439.423V450H310.608V439.423V428.845V418.268H300.027V428.845L300.027 439.423H289.449V450H278.872V439.423V428.845H268.294V439.423V449.999V460.577V471.155H257.761V460.577V450V439.423H247.183V428.845V418.268H257.761V428.845L268.294 428.845V418.268H278.872L278.872 428.845L289.449 428.845V418.268H278.872L268.338 418.264V407.687V397.109H268.294V407.687H257.761V418.268H247.183L236.606 418.264V407.687V397.109L236.607 386.532L226.029 386.532H215.452L204.87 386.532V375.954H215.448L226.029 375.954L236.607 375.955L236.606 365.378H226.029V354.8ZM257.761 481.733V471.155H247.185V460.577V449.999H236.607V439.423V428.845L236.606 418.264L226.029 418.268V428.845L226.029 439.423H215.451V449.999V460.577V471.154H204.874V481.732V492.309H215.451V502.842H226.029V492.309H236.607V502.842H247.185V492.309H236.607V481.731H226.029V492.309L215.451 492.309L215.452 481.732L215.451 471.154L226.029 471.155H236.607H247.185L247.183 481.733H257.761ZM257.761 481.733H268.294V492.311V502.844H257.761V492.311V481.733ZM289.449 386.532V397.109V407.687H278.871V397.109L278.872 386.532H289.449ZM278.872 375.954V386.532L268.338 386.532V375.955L278.872 375.954ZM300.027 354.843H289.449V365.421H300.026L300.027 375.954L310.604 375.954H321.182V365.42H310.604L300.026 365.421L300.027 354.843ZM331.762 354.8H342.34H352.917H363.494H374.071H384.649H395.227V354.843H405.804V365.377V365.421V375.954V386.532V397.109V407.687V418.264H395.226V407.687V397.109V386.532V375.955V365.421V365.378H384.649H374.072H363.494H352.918H342.34V375.954V386.532V397.109V407.687V418.264H331.762V407.687V397.109V386.532V375.955V365.378V354.8ZM120.252 375.954H130.83H141.406H151.984V386.532V397.109V407.687H141.407H130.83H120.252V397.109V386.532V375.954ZM310.604 375.954H321.182L321.185 386.532L310.604 386.532V375.954ZM352.917 375.954H363.494H374.071H384.649V386.532V397.109V407.687H374.072H363.494H352.917V397.109V386.532V375.954ZM215.451 397.109H226.029V407.687H215.451V397.109ZM194.293 407.69H183.715V418.268V428.845H194.293V439.423H204.87V428.845L194.293 428.845L194.293 418.268V407.69ZM99.1406 418.264H109.674L120.252 418.268H130.83H141.406H151.984L162.561 418.264H173.139V428.845H162.562H151.984H141.407H130.83H120.252H109.674H99.1406V418.264ZM215.452 418.268H204.874L204.87 428.845L215.452 428.845V418.268ZM226.029 450L236.607 449.999V460.577H226.029V450ZM342.34 418.264H331.762V428.845H342.34H352.917H363.494H374.071H384.649H395.226H405.804V418.264H395.226L384.649 418.268H374.072H363.494H352.918L342.34 418.264ZM109.674 439.422H99.1406V450H109.674V460.577H99.1406V471.155V481.733V492.311V502.844H109.674H120.252L130.83 502.842V492.309H141.406V502.844H151.984V492.311H162.561H173.139V502.844H183.716H194.294V492.311H183.716H173.139V481.733H183.716H194.294V471.155H183.716V460.577V449.999H173.139V439.422H162.562H151.984H141.406V449.999H130.83H120.252V439.422H109.674ZM151.984 471.155H162.561H173.139V481.733H162.562H151.984V471.155ZM151.984 460.577V471.155H141.406V481.731H130.83V492.309H120.252V481.733V471.155H130.83V460.577H141.406H151.984ZM151.984 460.577V450H162.561L173.139 449.999V460.577H162.562H151.984ZM120.252 471.155H109.674V460.577H120.252V471.155ZM352.917 439.422H342.339V449.999H331.763V460.577H321.185V471.155V481.733V492.311V502.844H331.763V492.311V481.733H342.34V471.155H352.918V460.577H363.494V471.155V481.733H374.071V492.308H363.494H352.917H342.339V502.886H352.917V502.842H363.494H374.071L384.649 502.843H395.227V492.309V481.732V471.154H405.804V460.577H395.226L395.227 471.154L384.649 471.154V481.732L374.071 481.733L374.072 471.155V460.577H384.649V450H395.226H405.804V439.422H395.227H384.649H374.072H363.494V449.999H352.917V439.422ZM363.494 460.577L363.494 449.999L374.071 450L374.072 460.577H363.494ZM352.917 449.999H342.339L342.34 460.577H352.918L352.917 449.999ZM194.293 449.999H204.87H215.451V460.577H204.87H194.293V449.999ZM289.449 460.577H278.871L278.872 450L268.338 449.999V460.577H278.871V471.155V481.733V492.311H268.338V502.844H278.871H289.449H300.027V492.311H289.449V481.733V471.155H300.026V481.732H310.604V492.31L321.185 492.311V481.733V471.155V460.577L310.604 460.577V471.154L300.026 471.155L300.027 460.577H289.449ZM120.252 513.423H130.83V502.89H141.406H151.984V513.468H141.407H130.83V524.001H141.406H151.984V534.579H162.561V524.001H173.139V534.579H162.561L162.562 545.156H173.139H183.716V555.733H173.139H162.561L162.562 545.156L151.984 545.157H141.407V555.734H130.83V566.312V576.89H120.252L109.674 576.888H99.1406V566.31H109.674H120.252V555.734V545.157H130.83V534.579H120.252V545.157L109.674 545.153H99.1406V534.575V523.997V513.42H109.674L120.252 513.423ZM204.87 545.157V555.734H215.448V566.312V576.89H204.87V587.468V598.046H215.448V608.623H204.87H194.293L183.715 608.62V598.042H194.293V587.468L183.715 587.465V576.887H194.293V566.312L183.716 566.311V555.733H194.293V545.157H204.87ZM204.87 534.579H215.448V545.157H204.87V534.579ZM204.87 534.579H194.293V524.001V513.468V513.423V502.89H204.87H215.448V513.423V513.468V524.001H204.87V534.579ZM120.252 524.001V534.579L109.674 534.575V523.997L120.252 524.001ZM183.716 513.468H173.139H162.561V502.89H173.139H183.716V513.468ZM247.183 502.89H257.761H268.294V513.423H278.872V502.89H289.583V513.423H300.026H300.161H310.604V502.89H321.182V513.468H310.604V524.001H321.182V534.579H310.604H300.161V566.31H310.604H321.182V576.888V587.466V598.044V608.621H310.604V598.044H300.161L289.583 598.046V587.468H278.872V566.312H268.294L257.761 566.312H247.183V555.734H257.761V545.156H247.183V534.578H257.761H268.294L278.872 534.579V524.001H268.294V513.468H257.761H247.183V502.89ZM289.583 598.046V608.623H268.294L257.761 608.621H247.183V598.043H236.606V587.465V576.887H247.183H257.761H268.294V587.465V598.043L289.583 598.046ZM247.183 598.043H257.761V587.465H247.184L247.183 598.043ZM300.026 576.888V566.312H289.583V576.89L300.026 576.888ZM300.026 534.579V524.001H289.583V534.579H300.026ZM289.583 555.557H278.872V544.979H289.583V555.557ZM384.649 502.89H374.071V513.468H384.649V502.89ZM395.226 502.89H405.804V513.468H395.226V502.89ZM352.918 534.579H363.494V524.001H374.072V534.579V545.156H384.649V555.733H374.071L374.072 545.156L363.494 545.157V555.734H352.918V566.312H363.494V576.89H374.071V566.312H363.494V555.734L374.071 555.733V566.312L384.649 566.311V576.889V587.467H374.072L363.494 587.468V598.046H374.072V608.623H363.494H352.917V598.046V587.468V576.89H342.34H331.763L321.182 576.888V566.31L331.763 566.312V555.734H321.185V545.157H331.763V534.579H342.34H352.918ZM331.763 534.579H321.182V524.001L321.185 513.423H331.763V502.89L342.339 502.886L342.34 513.423V513.468V524.001H331.763V534.579ZM384.649 587.467H395.226V576.888V566.311H384.649V555.733H395.226V545.156H405.804V555.733H395.226V566.311L405.804 566.31V576.888V587.466V598.044H395.227V608.622H384.649V598.045V587.467ZM352.917 545.157H342.34V555.734H352.918L352.917 545.157ZM395.226 524.001H384.648V534.579H395.226H405.804V524.001H395.226ZM236.607 555.734H226.029H215.448V545.157V534.579V524.001H226.029V513.468H215.448V502.89H226.029V513.423H236.607V524.001V534.579V545.157V555.734ZM151.984 566.31H162.561H173.139V576.888H162.561H151.984V566.31ZM109.674 587.465H99.1406V598.042V608.62H109.674V598.042H120.252H130.83H141.406H151.984H162.561V608.62H173.139V598.042V587.465H162.562H151.984H141.407H130.83H120.252H109.674ZM226.029 587.465V576.887L215.448 576.89L215.451 587.465L215.448 598.046L226.029 598.043V587.465ZM331.762 587.465H342.34V598.042H331.762V587.465ZM120.252 608.624H130.83H141.406H151.984V619.201V629.779V640.357H141.407H130.83H120.252V629.779V619.201V608.624ZM162.561 619.201V629.779V640.357V650.933H151.984H141.407H130.83H120.252L109.674 650.935V640.357V629.779V619.201V608.62H99.1406V619.201V629.779V640.357V650.935V661.512H109.674H120.252L130.83 661.51H141.406H151.984H162.561L173.139 661.512V650.935V640.357V629.779V619.201V608.62H162.561V619.201ZM183.715 608.62L194.293 608.623L194.293 619.201H204.87V629.779V640.356H194.293V650.933L204.87 650.934V640.356H215.448V650.934V661.512H204.87H194.293L183.715 661.511V650.933V640.355L194.293 640.356L194.293 629.779L194.293 619.201L183.715 619.201V608.62ZM257.761 619.201H247.183V629.779H236.607H226.029V619.201H215.451V629.779L215.448 640.356V650.934H226.029V661.512H236.607V650.934V640.356H247.185L247.183 629.779L257.761 629.779V640.357L247.185 640.356L247.183 650.935H257.761V640.357H268.294V650.935H278.872V661.512H289.583V629.779H300.161V619.201H310.604H321.182V608.621H310.604L300.161 608.624H300.026L289.583 608.623H268.294L257.761 608.621V619.201ZM289.583 629.779H279.005V619.201H289.583V629.779ZM331.763 608.624H342.34L352.917 608.623H363.494V619.201H352.918H342.34H331.763V629.779V640.357H321.185V629.779L321.182 619.201V608.621L331.763 608.624ZM331.763 640.357H342.34V650.935V661.512H331.763H321.185V650.935H331.763V640.357ZM363.494 619.201H374.071L384.649 619.201H395.226H405.804V629.779V640.356V650.934H395.227V661.512H384.649V650.934V640.356H374.072V650.933V661.511H363.494V650.933V640.355L374.072 640.356L374.071 629.779H363.494V619.201ZM310.604 640.355H300.026V650.933H310.604V661.511L321.185 661.512V650.935V640.357L310.604 640.355Z" fill="black"/>
<path d="M460.917 388.889H470.162C480.028 388.889 485.762 382.978 485.762 373.333C485.762 364.267 480.028 357.778 470.162 357.778H460.917V388.889ZM464.517 385.689V361.022H470.162C477.628 361.022 482.073 365.822 482.073 373.333C482.073 381.156 477.539 385.689 470.162 385.689H464.517Z" fill="black"/>
<path d="M501.761 389.467C507.183 389.467 511.228 386.4 512.516 382.089H508.872C507.805 384.8 504.872 386.267 501.805 386.267C497.05 386.267 494.072 383.2 493.894 378.578H512.739V377.022C512.739 370.356 508.561 365.2 501.539 365.2C495.228 365.2 490.205 369.956 490.205 377.333C490.205 384.267 494.694 389.467 501.761 389.467ZM493.983 375.467C494.339 371.2 497.672 368.4 501.539 368.4C505.45 368.4 508.694 370.845 509.005 375.467H493.983Z" fill="black"/>
<path d="M520.668 388.889H524.18V368.756H530.935V365.778H524.18V363.067C524.18 360.578 525.424 358.622 528.535 358.622H530.757V355.556H528.58C523.913 355.556 520.668 358.356 520.668 363.022V365.778H516.313V368.756H520.668V388.889Z" fill="black"/>
<path d="M538.771 361.6C540.282 361.6 541.348 360.489 541.348 359.022C541.348 357.6 540.282 356.489 538.771 356.489C537.304 356.489 536.237 357.6 536.237 359.022C536.237 360.489 537.304 361.6 538.771 361.6ZM536.948 388.889H540.459V365.778H536.948V388.889Z" fill="black"/>
<path d="M548.016 388.889H551.527V375.111C551.527 371.289 554.372 368.489 558.016 368.489C561.261 368.489 563.972 370.889 563.972 374.578V388.889H567.483V374.356C567.483 369.245 564.238 365.2 558.861 365.2C555.261 365.2 552.772 367.067 551.794 369.156H551.527V365.778H548.016V388.889Z" fill="black"/>
<path d="M576.878 361.6C578.389 361.6 579.456 360.489 579.456 359.022C579.456 357.6 578.389 356.489 576.878 356.489C575.412 356.489 574.345 357.6 574.345 359.022C574.345 360.489 575.412 361.6 576.878 361.6ZM575.056 388.889H578.567V365.778H575.056V388.889Z" fill="black"/>
<path d="M595.146 388.889H598.568V385.822H595.368C592.701 385.822 591.768 384.356 591.768 381.867V368.756H598.879V365.778H591.768V359.067H588.479V364.622C588.479 365.378 587.99 365.778 587.368 365.778H583.901V368.756H588.257V381.911C588.257 386.578 590.879 388.889 595.146 388.889Z" fill="black"/>
<path d="M614.868 389.467C620.291 389.467 624.335 386.4 625.624 382.089H621.98C620.913 384.8 617.98 386.267 614.913 386.267C610.157 386.267 607.18 383.2 607.002 378.578H625.846V377.022C625.846 370.356 621.668 365.2 614.646 365.2C608.335 365.2 603.313 369.956 603.313 377.333C603.313 384.267 607.802 389.467 614.868 389.467ZM607.091 375.467C607.446 371.2 610.78 368.4 614.646 368.4C618.557 368.4 621.802 370.845 622.113 375.467H607.091Z" fill="black"/>
<path d="M635.32 388.889H637.008V385.778H635.942C634.831 385.778 634.253 385.111 634.253 383.956V355.556H630.742V383.956C630.742 387.111 632.431 388.889 635.32 388.889Z" fill="black"/>
<path d="M641.93 399.111H644.33C648.108 399.111 649.93 397.333 651.13 394.178L662.153 365.778H658.197L650.997 385.333H650.73L643.575 365.778L639.664 365.778L649.041 390.133L647.975 392.933C647.219 394.933 645.93 395.911 643.664 395.911H641.93V399.111Z" fill="black"/>
<path d="M474.739 442.8C484.028 442.8 490.873 435.822 490.873 426.667C490.873 417.6 484.073 410.533 474.784 410.533C465.539 410.533 458.695 417.511 458.695 426.667C458.695 435.911 465.495 442.8 474.739 442.8ZM474.784 439.422C467.673 439.422 462.428 434.045 462.428 426.667C462.428 419.378 467.673 413.911 474.784 413.911C481.895 413.911 487.139 419.378 487.139 426.667C487.139 434.045 481.895 439.422 474.784 439.422Z" fill="black"/>
<path d="M503.505 442.222H507.149L516.26 419.111H512.393L505.46 437.911H505.193L498.216 419.111H494.438L503.505 442.222Z" fill="black"/>
<path d="M530.493 442.8C535.916 442.8 539.96 439.733 541.249 435.422H537.605C536.538 438.133 533.605 439.6 530.538 439.6C525.782 439.6 522.805 436.533 522.627 431.911H541.471V430.356C541.471 423.689 537.293 418.533 530.271 418.533C523.96 418.533 518.938 423.289 518.938 430.667C518.938 437.6 523.427 442.8 530.493 442.8ZM522.716 428.8C523.071 424.533 526.405 421.733 530.271 421.733C534.182 421.733 537.427 424.178 537.738 428.8H522.716Z" fill="black"/>
<path d="M547.712 442.222H551.223V430.311C551.223 425.911 553.579 422.622 557.801 422.622H559.712V419.111H557.757C554.379 419.111 552.112 421.467 551.446 423.422H551.179V419.111H547.712V442.222Z" fill="black"/>
<path d="M565.507 452.445H569.018V438.489H569.285C569.996 439.689 572.574 442.8 577.418 442.8C583.952 442.8 588.663 437.733 588.663 430.622C588.663 423.556 583.952 418.533 577.152 418.533C572.13 418.533 569.73 421.911 569.152 422.756H568.885V419.111H565.507V452.445ZM577.018 439.6C572.441 439.6 568.885 436.311 568.885 430.622C568.885 425.778 571.907 421.689 576.93 421.689C581.774 421.689 585.063 425.2 585.063 430.622C585.063 435.867 581.774 439.6 577.018 439.6Z" fill="black"/>
<path d="M594.891 442.222H598.402V430.311C598.402 425.911 600.758 422.622 604.98 422.622H606.891V419.111H604.936C601.558 419.111 599.291 421.467 598.624 423.422H598.358V419.111H594.891V442.222Z" fill="black"/>
<path d="M614.508 414.933C616.02 414.933 617.086 413.822 617.086 412.356C617.086 410.933 616.02 409.822 614.508 409.822C613.042 409.822 611.975 410.933 611.975 412.356C611.975 413.822 613.042 414.933 614.508 414.933ZM612.686 442.222H616.197V419.111H612.686V442.222Z" fill="black"/>
<path d="M631.398 442.8C636.776 442.8 640.376 439.867 640.376 435.511C640.376 425.956 626.509 430.845 626.509 424.978C626.509 422.978 628.376 421.556 631.265 421.556C634.332 421.556 635.976 423.022 636.287 425.2H639.665C639.309 421.022 635.754 418.533 631.487 418.533C626.643 418.533 623.132 421.067 623.132 424.978C623.132 434.133 636.954 429.2 636.954 435.689C636.954 438.045 635.043 439.733 631.576 439.733C628.198 439.733 626.243 438.267 625.843 435.511H622.421C622.821 439.822 625.932 442.8 631.398 442.8Z" fill="black"/>
<path d="M657.056 442.8C662.478 442.8 666.523 439.733 667.812 435.422H664.167C663.1 438.133 660.167 439.6 657.1 439.6C652.345 439.6 649.367 436.533 649.189 431.911H668.034V430.356C668.034 423.689 663.856 418.533 656.834 418.533C650.523 418.533 645.5 423.289 645.5 430.667C645.5 437.6 649.989 442.8 657.056 442.8ZM649.278 428.8C649.634 424.533 652.967 421.733 656.834 421.733C660.745 421.733 663.989 424.178 664.3 428.8H649.278Z" fill="black"/>
<path d="M684.008 442.8C689.03 442.8 691.43 439.422 692.008 438.578H692.275V442.222H695.653V408.889H692.141V422.845H691.875C691.164 421.645 688.586 418.533 683.741 418.533C677.208 418.533 672.497 423.6 672.497 430.711C672.497 437.778 677.208 442.8 684.008 442.8ZM684.23 439.645C679.386 439.645 676.097 436.133 676.097 430.711C676.097 425.467 679.386 421.733 684.141 421.733C688.719 421.733 692.275 425.022 692.275 430.711C692.275 435.556 689.253 439.645 684.23 439.645Z" fill="black"/>
<path d="M469.584 496.133C476.384 496.133 480.384 492.222 480.384 487.333C480.384 474.756 463.139 480.667 463.139 472.178C463.139 469.6 465.05 467.156 469.45 467.156C473.673 467.156 476.028 469.333 476.028 472.889H479.717C479.717 466.445 474.206 463.867 469.495 463.867C463.228 463.867 459.539 467.733 459.539 472.178C459.539 484.622 476.739 477.822 476.739 487.556C476.739 490.8 473.806 492.8 469.717 492.8C465.006 492.8 462.073 489.911 462.073 486.311H458.473C458.473 492.089 463.406 496.133 469.584 496.133Z" fill="black"/>
<path d="M495.623 495.556H499.046V492.489H495.846C493.179 492.489 492.246 491.022 492.246 488.533V475.422H499.357V472.445H492.246V465.733H488.957V471.289C488.957 472.045 488.468 472.445 487.846 472.445H484.379V475.422H488.734V488.578C488.734 493.245 491.357 495.556 495.623 495.556Z" fill="black"/>
<path d="M507.39 468.267C508.901 468.267 509.968 467.156 509.968 465.689C509.968 464.267 508.901 463.156 507.39 463.156C505.924 463.156 504.857 464.267 504.857 465.689C504.857 467.156 505.924 468.267 507.39 468.267ZM505.568 495.556H509.079V472.445H505.568V495.556Z" fill="black"/>
<path d="M526.725 496.133C531.747 496.133 536.458 493.111 537.658 487.956H534.058C533.169 490.978 530.191 492.933 526.858 492.933C522.014 492.933 518.503 489.2 518.503 484C518.503 478.978 521.836 475.067 526.769 475.067C530.103 475.067 533.036 477.022 533.969 480.045H537.614C536.369 474.889 531.703 471.867 526.68 471.867C519.88 471.867 514.858 477.156 514.858 484C514.858 490.845 519.747 496.133 526.725 496.133Z" fill="black"/>
<path d="M562.604 495.556L553.626 481.422L562.026 472.445H557.582L547.671 483.333H547.404V462.222H543.893V495.556H547.404V488.133L551.271 484L558.604 495.556H562.604Z" fill="black"/>
<path d="M576.414 496.133C581.836 496.133 585.88 493.067 587.169 488.756H583.525C582.458 491.467 579.525 492.933 576.458 492.933C571.703 492.933 568.725 489.867 568.547 485.245H587.391V483.689C587.391 477.022 583.214 471.867 576.191 471.867C569.88 471.867 564.858 476.622 564.858 484C564.858 490.933 569.347 496.133 576.414 496.133ZM568.636 482.133C568.991 477.867 572.325 475.067 576.191 475.067C580.103 475.067 583.347 477.511 583.658 482.133H568.636Z" fill="black"/>
<path d="M593.632 495.556H597.143V483.645C597.143 479.245 599.499 475.956 603.721 475.956H605.632V472.445H603.677C600.299 472.445 598.032 474.8 597.366 476.756H597.099V472.445H593.632V495.556Z" fill="black"/>
<ellipse cx="345.486" cy="515.648" rx="231.111" ry="128.889" transform="rotate(14.4 345.486 515.648)" fill="#E412B6"/>
<path d="M245.012 529.88C260.819 533.939 272.452 527.234 275.37 515.87C282.877 486.631 239.262 490.08 244.329 470.347C245.868 464.354 251.769 459.813 261.997 462.439C271.812 464.959 275.988 471.427 273.866 479.692L282.441 481.894C286.288 466.913 275.015 457.632 264.064 454.82C249.496 451.08 238.613 457.866 235.96 468.198C228.533 497.126 272.575 491.585 266.765 514.211C264.829 521.753 256.816 524.651 247.311 522.211C236.36 519.399 231.265 510.933 233.414 502.564L225.045 500.416C221.597 513.847 230.651 526.193 245.012 529.88Z" fill="black"/>
<path d="M277.683 536.837L286.465 539.092L297.377 523.613L332.298 532.579L334.403 551.4L343.185 553.655L333.962 474.198L324.147 471.678L277.683 536.837ZM302.233 516.71L326.199 482.557L326.819 482.716L331.368 524.191L302.233 516.71Z" fill="black"/>
<path d="M355.565 556.834L395.135 566.993L397.072 559.451L365.87 551.44L382.503 486.661L374.134 484.513L355.565 556.834Z" fill="black"/>
<path d="M410.653 570.978L453.013 581.854L454.949 574.312L420.958 565.584L427.511 540.066L455.819 547.334L457.755 539.792L429.447 532.524L435.628 508.451L468.482 516.887L470.445 509.241L429.222 498.657L410.653 570.978Z" fill="black"/>
<path d="M636.909 428.76L656.375 447.683L671.482 425.126L684.148 449.139L705.485 432.354L710.111 459.105L735.591 449.735L731.724 476.607L758.852 475.57L746.871 499.931L772.992 507.327L754.069 526.794L776.626 541.9L752.613 554.566L769.398 575.904L742.647 580.529L752.016 606.009L725.145 602.142L726.182 629.271L701.821 617.289L694.424 643.41L674.958 624.487L659.852 647.044L647.186 623.031L625.848 639.816L621.222 613.065L595.742 622.435L599.609 595.563L572.481 596.6L584.463 572.239L558.342 564.843L577.265 545.376L554.708 530.27L578.72 517.604L561.936 496.266L588.687 491.641L579.317 466.161L606.188 470.028L605.151 442.899L629.512 454.881L636.909 428.76Z" fill="#E412B6"/>
<path d="M645.415 542.651C653.039 540.608 657.786 533.594 655.577 525.351L652.099 512.369C649.918 504.23 642.272 500.426 634.648 502.469C627.024 504.512 622.305 511.629 624.486 519.768L627.964 532.75C630.173 540.993 637.791 544.694 645.415 542.651ZM655.263 572.81L682.527 498.584L675.186 495.913L647.921 570.139L655.263 572.81ZM643.593 535.851C639.781 536.872 635.965 534.582 634.943 530.77L631.52 517.994C630.526 514.285 632.686 510.393 636.498 509.372C640.31 508.35 644.229 510.613 645.223 514.322L648.646 527.098C649.668 530.91 647.405 534.83 643.593 535.851ZM695.801 566.255C703.425 564.212 708.171 557.197 705.963 548.955L702.484 535.973C700.303 527.833 692.658 524.029 685.034 526.072C677.41 528.115 672.691 535.232 674.872 543.372L678.35 556.354C680.559 564.596 688.176 568.297 695.801 566.255ZM693.979 559.454C690.167 560.476 686.35 558.186 685.329 554.373L681.906 541.597C680.912 537.888 683.071 533.997 686.884 532.975C690.696 531.954 694.615 534.216 695.609 537.926L699.032 550.702C700.054 554.514 697.791 558.433 693.979 559.454Z" fill="black"/>
<path fill-rule="evenodd" clip-rule="evenodd" d="M402.161 39.0209C421.477 30.9464 442.249 26.9372 463.183 27.2431L463.405 28.0431C477.071 27.9426 490.684 29.7527 503.85 33.4209C515.997 36.7656 527.566 41.9357 538.161 48.7542C545.177 53.2408 551.688 58.4711 557.583 64.3542V44.8431H582.65C586.275 42.8339 590.015 41.0382 593.85 39.4653C601.975 36.0961 610.396 33.4922 619.005 31.6876C631.002 29.178 643.239 28.0005 655.494 28.1765C666.975 28.2093 678.335 30.5206 688.916 34.9765C699.396 39.1564 709.045 45.1771 717.405 52.7542C721.739 56.6507 725.689 60.936 729.209 65.5498C731.265 67.1263 733.259 68.7888 735.185 70.5339C743.752 78.2364 750.819 87.4584 756.029 97.7339C761.925 109.26 764.973 122.032 764.918 134.978C764.882 143.139 763.67 151.252 761.318 159.067C759.066 166.404 755.98 173.457 752.118 180.089C751.591 181.013 751.047 181.991 750.454 183.06C749.648 184.513 748.749 186.131 747.674 188.001C746.356 190.291 744.861 192.825 743.205 195.602C743.744 196.151 744.267 196.718 744.775 197.301C747.012 199.875 748.877 202.715 750.341 205.739C754.966 207.978 759.131 211.142 762.555 215.081C768.575 222.008 771.907 230.867 771.94 240.045C771.957 244.572 771.252 249.073 769.851 253.378V255.289L765.407 263.156L745.807 299.823C745.229 300.978 744.651 302.089 744.029 303.156L735.363 319.289H725.94C721.696 321.426 717.106 322.795 712.385 323.334L710.074 323.689L707.363 324.134H704.607L683.896 324.445H667.274H654.163H642.651H630.963H618.474C607.758 324.897 597.054 323.329 586.918 319.823H586.651C577.317 316.183 569.486 309.495 564.429 300.845C553.927 309.342 542.173 316.164 529.585 321.067C511.715 327.772 492.759 331.117 473.674 330.934C455.448 331.096 437.355 327.824 420.34 321.289C406.811 316.044 394.275 308.529 383.274 299.067C383.007 300.178 382.74 301.201 382.429 302.223C380.396 309.767 376.105 316.51 370.132 321.547C364.158 326.583 356.787 329.672 349.007 330.401H347.363H345.718L321.407 330.667H295.185C290.94 330.694 286.72 330.018 282.696 328.667L280.296 327.867L278.029 326.756C273.591 324.528 269.664 321.402 266.496 317.577C264.477 315.138 262.795 312.45 261.488 309.584L260.249 308.976C258.94 308.319 257.674 307.583 256.46 306.774C248.05 312.537 239.003 317.319 229.496 321.023C211.654 327.717 192.729 331.062 173.674 330.889C155.448 331.051 137.355 327.78 120.34 321.245C103.896 314.943 88.9538 305.269 76.4736 292.845C73.6012 289.921 70.8748 286.868 68.3019 283.697C64.9607 280.991 61.7533 278.111 58.6939 275.065C46.3469 262.498 36.6977 247.54 30.3384 231.11C23.6502 213.592 20.3182 194.971 20.5161 176.221C20.4059 157.375 23.2554 138.628 28.9606 120.665C34.6647 102.91 43.9018 86.4916 56.1161 72.3987C68.7877 57.9833 84.5187 46.5798 102.161 39.0209C121.498 30.9039 142.302 26.8642 163.272 27.1542C176.938 27.0537 190.551 28.8638 203.716 32.532C215.863 35.8767 227.432 41.0468 238.027 47.8653C248.179 54.3711 257.264 62.4067 264.961 71.6876C265.327 72.1285 265.689 72.5718 266.049 73.0174C272.141 77.9217 277.734 83.4311 282.74 89.4672C290.058 98.2859 296.185 108.029 300.963 118.445C305.686 128.692 309.177 139.464 311.363 150.534C313.564 161.404 314.681 172.465 314.696 183.556C314.696 184.385 314.691 185.214 314.681 186.043H320.961C320.694 182.799 320.694 179.554 320.694 176.221C320.569 157.377 323.404 138.63 329.094 120.665C334.798 102.91 344.035 86.4916 356.25 72.3987C368.883 57.9993 384.567 46.5969 402.161 39.0209Z" fill="black"/>
<path fill-rule="evenodd" clip-rule="evenodd" d="M607.926 182.486C607.649 182.885 607.37 183.287 607.091 183.69L607.093 183.688C607.372 183.285 607.649 182.885 607.926 182.486ZM258.677 243.572C258.67 243.667 258.663 243.761 258.656 243.855C258.648 243.958 258.641 244.06 258.633 244.161C258.641 244.061 258.648 243.959 258.656 243.856L258.656 243.855L258.656 243.854C258.663 243.761 258.67 243.667 258.677 243.572ZM463.272 62.8876C473.646 62.776 483.984 64.1225 493.983 66.8876C502.729 69.2731 511.061 72.9747 518.694 77.8654C525.823 82.3987 532.197 88.0226 537.583 94.532C542.948 100.993 547.431 108.136 550.916 115.776C554.481 123.49 557.093 131.609 558.694 139.954C560.474 148.506 561.367 157.219 561.361 165.954C561.587 181.97 558.999 197.9 553.716 213.021C549.049 226.109 541.708 238.081 532.161 248.176C522.764 257.804 511.392 265.279 498.827 270.088C485.079 275.246 470.488 277.794 455.805 277.599C442.035 277.76 428.358 275.317 415.494 270.399C403.683 265.912 392.947 258.992 383.983 250.088C375.029 240.957 368.028 230.1 363.405 218.176C358.419 204.761 355.992 190.53 356.25 176.221C356.134 161.149 358.383 146.151 362.916 131.776C367.092 118.553 373.895 106.308 382.916 95.7765C392.132 85.3361 403.567 77.0902 416.383 71.6432C431.244 65.4663 447.225 62.4395 463.316 62.7543L463.272 62.8876ZM457.094 234.843C462.201 234.973 467.28 234.041 472.008 232.105C476.736 230.169 481.011 227.273 484.561 223.599C487.948 219.991 490.807 215.921 493.05 211.51C495.339 206.828 497.156 201.93 498.472 196.888C499.863 191.653 500.844 186.319 501.405 180.932C502.029 175.681 502.355 170.398 502.383 165.11C502.357 160.648 502.03 156.194 501.405 151.776C500.823 147.134 499.887 142.543 498.605 138.043C497.359 133.522 495.646 129.143 493.494 124.976C491.467 120.98 488.895 117.286 485.85 113.999C482.907 110.905 479.389 108.414 475.494 106.665C471.222 104.748 466.576 103.806 461.894 103.91C456.436 103.793 451.01 104.776 445.939 106.799C441.514 108.584 437.46 111.176 433.983 114.443C430.508 117.74 427.595 121.583 425.361 125.821C423.098 130.313 421.281 135.018 419.939 139.865C418.523 144.918 417.512 150.075 416.916 155.288C416.349 160.498 416.067 165.735 416.072 170.976C416.073 178.503 416.623 186.019 417.716 193.465C418.79 200.653 420.948 207.636 424.116 214.176C427.004 220.144 431.288 225.327 436.605 229.288C442.612 233.391 449.781 235.448 457.05 235.154L457.094 234.843ZM163.272 62.8876C173.646 62.776 183.984 64.1225 193.983 66.8876C202.729 69.2731 211.061 72.9747 218.694 77.8654C225.823 82.3987 232.197 88.0226 237.583 94.532C242.947 100.993 247.431 108.136 250.916 115.776C254.481 123.49 257.093 131.609 258.694 139.954C260.474 148.506 261.367 157.219 261.361 165.954C261.587 181.97 258.999 197.9 253.716 213.021C249.049 226.109 241.708 238.081 232.161 248.176C222.764 257.804 211.392 265.279 198.827 270.088C185.079 275.246 170.488 277.794 155.805 277.599C142.035 277.76 128.357 275.317 115.494 270.399C103.683 265.912 92.947 258.992 83.983 250.088C75.0293 240.957 68.0279 230.1 63.4052 218.176C58.358 204.773 55.8705 190.542 56.0719 176.221C55.9558 161.149 58.2054 146.151 62.7385 131.776C66.9542 118.542 73.8026 106.297 82.8719 95.7765C92.0618 85.3468 103.465 77.1016 116.25 71.6432C131.111 65.4663 147.092 62.4395 163.183 62.7543L163.272 62.8876ZM156.961 234.843C162.068 234.973 167.147 234.041 171.875 232.105C176.603 230.169 180.877 227.273 184.427 223.599C187.815 219.991 190.673 215.921 192.916 211.51C195.26 206.791 197.121 201.847 198.472 196.754C199.863 191.52 200.843 186.185 201.405 180.799C202.029 175.547 202.355 170.265 202.383 164.976C202.357 160.515 202.03 156.061 201.405 151.643C200.823 147.001 199.887 142.41 198.605 137.91C197.359 133.389 195.646 129.01 193.494 124.843C191.467 120.847 188.895 117.152 185.85 113.865C182.895 110.82 179.378 108.375 175.494 106.665C171.222 104.748 166.576 103.806 161.894 103.91C156.436 103.793 151.01 104.776 145.939 106.799C141.543 108.535 137.506 111.066 134.027 114.265C130.552 117.562 127.639 121.406 125.405 125.643C123.142 130.136 121.326 134.84 119.983 139.688C118.567 144.74 117.556 149.897 116.961 155.11C116.438 160.323 116.201 165.56 116.25 170.799C116.251 178.325 116.8 185.841 117.894 193.288C118.968 200.475 121.126 207.458 124.294 213.999C127.182 219.966 131.466 225.15 136.783 229.11C142.79 233.213 149.959 235.27 157.227 234.976L156.961 234.843ZM655.361 63.0209C662.24 63.0569 669.042 64.4777 675.361 67.1987C688.823 72.5479 699.881 82.6102 706.472 95.5098C709.814 101.995 711.537 109.192 711.494 116.488C711.459 121.2 710.756 125.884 709.405 130.399C707.84 135.46 705.661 140.311 702.916 144.843C702.146 146.384 700.902 148.695 699.183 151.776C697.464 154.858 695.376 158.369 692.916 162.31C692.094 163.649 691.246 165.025 690.376 166.438L690.37 166.447L690.363 166.458C688.696 169.164 686.946 172.003 685.139 174.976C683.685 177.369 682.206 179.711 680.709 182.083C679.369 184.205 678.014 186.351 676.65 188.576C673.761 193.288 671.139 197.465 668.472 201.51L661.539 212.621C660.745 213.884 660.017 215.059 659.349 216.137C658.372 217.715 657.522 219.085 656.783 220.221L655.005 223.021H656.116C656.872 223.021 659.005 223.021 661.539 222.754C664.072 222.488 667.094 222.176 670.427 221.91L681.094 220.932C685.005 220.488 688.783 220.088 692.516 219.821L703.05 219.154C706.383 218.843 709.183 218.71 711.405 218.71C716.116 218.71 718.472 219.732 718.472 221.776C718.458 223.142 718.074 224.478 717.361 225.643C716.956 226.347 716.628 227.092 716.383 227.865L696.383 265.243C696.383 265.243 696.072 265.243 695.983 265.954C695.967 266.086 695.956 266.187 695.948 266.265C695.932 266.427 695.926 266.486 695.896 266.502C695.88 266.511 695.857 266.507 695.82 266.501C695.785 266.495 695.737 266.488 695.672 266.488C694.36 268.054 692.56 269.134 690.561 269.554L686.516 270.088L665.672 270.399H649.316H635.983H624.427H613.183H600.694C594.413 270.752 588.118 270.046 582.072 268.31C578.65 266.932 576.961 264.888 576.961 262.221C577.044 260.02 577.654 257.871 578.739 255.954C580.027 253.643 581.672 251.021 583.627 248.043C589.539 239.599 595.539 231.11 601.672 222.488L619.183 197.51C624.739 189.51 629.805 182.176 634.427 175.288C639.05 168.399 642.916 162.621 645.983 157.91C648.157 154.51 649.932 150.872 651.272 147.065C652.316 143.986 652.871 140.761 652.916 137.51C652.982 134.074 652.171 130.678 650.561 127.643C649.067 124.731 646.867 122.24 644.161 120.399C641.328 118.336 638.131 116.828 634.739 115.954C630.93 114.916 626.997 114.408 623.05 114.443C617.594 114.478 612.172 115.317 606.961 116.932C601.24 118.62 595.802 121.152 590.827 124.443C589.536 125.431 587.999 126.046 586.383 126.221C585.949 126.257 585.513 126.157 585.139 125.934C584.764 125.711 584.469 125.376 584.294 124.976C584.036 124.218 583.901 123.422 583.894 122.621C583.954 118.379 584.415 114.153 585.272 109.999C586.205 105.154 587.227 100.532 588.339 96.0876C589.234 92.5047 590.159 89.3261 590.973 86.5287L590.974 86.5249L590.977 86.5134C591.171 85.8462 591.359 85.2007 591.539 84.5765C592.13 82.7599 592.59 80.9033 592.916 79.0209C594.223 78.2889 595.471 77.4568 596.65 76.532C600.018 74.1997 603.66 72.2892 607.494 70.8432C613.646 68.3224 620.013 66.359 626.516 64.9765C635.981 63.0835 645.621 62.2044 655.272 62.3543L655.361 63.0209ZM332.605 221.51C333.357 221.49 334.093 221.725 334.694 222.176C335.005 222.542 335.236 222.967 335.374 223.426C335.511 223.885 335.552 224.367 335.494 224.843L331.627 268.443C331.413 270.542 331.042 272.622 330.516 274.665C330.25 275.865 329.227 276.576 327.45 276.754L303.139 277.065H277.316C276.904 277.127 276.484 277.127 276.072 277.065C276.072 277.065 275.805 276.665 275.805 276.221V275.554C275.983 271.199 276.116 267.776 276.205 265.288V259.332V256.399V252.932C276.205 252.162 276.294 250.962 276.472 249.332C276.472 248.232 276.574 246.912 276.694 245.36L276.694 245.358C276.768 244.401 276.849 243.356 276.916 242.221C277.094 239.243 277.316 235.154 277.583 230.132C277.661 228.035 277.944 225.951 278.427 223.91C278.709 223.284 279.155 222.746 279.719 222.354C280.283 221.963 280.942 221.732 281.627 221.688H307.361L332.516 221.421L332.605 221.51Z" fill="#FAFF01"/>
<path fill-rule="evenodd" clip-rule="evenodd" d="M385.206 86.7116C384.912 86.6702 384.621 86.6219 384.332 86.5669C375.057 84.7982 368.707 76.0559 370.032 66.6265L144.136 34.8789L139.705 46.9723C135.457 58.5642 127.836 68.6242 117.817 75.8628C89.2935 96.4709 83.6532 136.604 105.391 164.276C113.027 173.995 117.58 185.767 118.468 198.08L119.394 210.927L345.29 242.674C346.615 233.245 355.129 226.591 364.532 227.448C364.825 227.474 365.119 227.508 365.413 227.55C375.16 228.92 381.954 237.912 380.587 247.635L604.728 279.136L609.16 267.042C613.407 255.45 621.029 245.39 631.048 238.152C659.571 217.544 665.211 177.411 643.473 149.739C635.838 140.019 631.284 128.248 630.396 115.935L629.47 103.088L405.329 71.5871C403.963 81.31 394.953 88.0814 385.206 86.7116Z" fill="#E412B6"/>
<path d="M180.598 158.797C189.629 160.066 199.426 154.738 200.974 143.726L204.114 121.385C205.661 110.374 197.713 102.551 188.681 101.282C179.65 100.013 169.853 105.341 168.306 116.353L165.166 138.693C163.618 149.705 171.567 157.527 180.598 158.797ZM181.456 152.697C174.722 151.75 170.602 146.001 171.559 139.188L174.588 117.64C175.534 110.906 181.169 106.447 187.824 107.382C194.479 108.317 198.667 114.157 197.72 120.891L194.692 142.439C193.734 149.252 188.189 153.643 181.456 152.697ZM184.118 134.328C186.574 134.674 188.833 132.971 189.178 130.515C189.523 128.06 187.821 125.801 185.365 125.456C182.909 125.11 180.571 126.801 180.226 129.257C179.881 131.713 181.662 133.983 184.118 134.328Z" fill="black"/>
<path d="M234.523 166.375C236.979 166.72 239.238 165.018 239.583 162.562C239.928 160.107 238.226 157.848 235.77 157.503C233.314 157.157 230.976 158.848 230.631 161.304C230.286 163.76 232.067 166.03 234.523 166.375Z" fill="black"/>
<path d="M281.225 171.889L288.514 172.913L308.04 147.22C310.126 144.444 311.805 141.125 312.339 137.322C313.809 126.865 306.91 117.898 296.452 116.428C285.995 114.958 276.711 121.813 275.263 132.112C273.805 142.49 280.477 151.345 291.014 152.825C292.757 153.07 294.872 152.964 296.218 152.587L296.49 152.949L281.225 171.889ZM292.143 147.087C284.855 146.062 280.892 139.77 281.839 133.036C282.796 126.223 288.318 121.425 295.606 122.449C302.815 123.462 306.811 129.517 305.843 136.409C304.896 143.143 299.353 148.1 292.143 147.087Z" fill="black"/>
<path d="M335.071 179.456L342.36 180.481L361.885 154.788C363.972 152.011 365.65 148.693 366.185 144.89C367.654 134.433 360.755 125.465 350.298 123.996C339.841 122.526 330.557 129.381 329.109 139.679C327.651 150.057 334.323 158.912 344.86 160.393C346.603 160.638 348.718 160.531 350.063 160.155L350.336 160.516L335.071 179.456ZM345.989 154.654C338.701 153.63 334.738 147.337 335.685 140.603C336.642 133.79 342.164 128.992 349.452 130.016C356.661 131.03 360.657 137.085 359.689 143.977C358.742 150.711 353.198 155.668 345.989 154.654Z" fill="black"/>
<path d="M433.732 193.322L466.212 197.887L467.025 192.104L440.961 188.441L443.711 168.873L465.418 171.924L466.231 166.141L444.524 163.09L447.118 144.631L472.311 148.172L473.135 142.309L441.525 137.867L433.732 193.322Z" fill="black"/>
<path d="M500.649 202.727L507.066 203.628L514.036 154.036L531.94 156.552L532.764 150.69L490.539 144.755L489.715 150.618L507.619 153.134L500.649 202.727Z" fill="black"/>
<path d="M537.304 207.878L543.721 208.78L547.272 183.508L575.158 187.427L571.607 212.699L578.024 213.601L585.817 158.146L579.4 157.244L575.982 181.565L548.096 177.646L551.514 153.325L545.098 152.423L537.304 207.878Z" fill="black"/>
</g>
<defs>
<clipPath id="clip0_357_2410">
<rect width="800" height="728.889" fill="white" transform="translate(0.695312)"/>
</clipPath>
</defs>
</svg>
