<svg width="801" height="550" viewBox="0 0 801 550" fill="none" xmlns="http://www.w3.org/2000/svg">
<g clip-path="url(#clip0_357_2322)">
<path fill-rule="evenodd" clip-rule="evenodd" d="M427.043 59.299C426.725 59.2543 426.409 59.202 426.097 59.1425C416.065 57.2282 409.199 47.7513 410.636 37.5266L166.296 3.18687L161.498 16.3012C156.899 28.8718 148.651 39.7825 137.811 47.6349C106.95 69.9905 100.834 113.508 124.338 143.504C132.593 154.04 137.514 166.802 138.47 180.153L139.467 194.082L383.808 228.422C385.245 218.197 394.456 210.98 404.628 211.905C404.944 211.934 405.262 211.97 405.58 212.015C416.123 213.497 423.468 223.245 421.987 233.787L664.429 267.86L669.227 254.746C673.826 242.176 682.074 231.265 692.914 223.412C723.775 201.057 729.891 157.539 706.387 127.543C698.132 117.007 693.21 104.245 692.255 90.8942L691.257 76.9654L448.815 42.8924C447.333 53.4352 437.586 60.7807 427.043 59.299Z" fill="#E412B6"/>
<path d="M210.882 129.501L218.44 75.7261L211.911 74.8086C211.054 80.9077 206.666 82.8314 195.671 81.2861L194.886 86.8698L209.49 88.9222L203.924 128.523L190.266 126.604L189.372 132.961L227.169 138.273L228.063 131.916L210.882 129.501Z" fill="black"/>
<path d="M266.071 144.879C268.734 145.253 271.184 143.407 271.558 140.744C271.932 138.081 270.086 135.632 267.424 135.258C264.761 134.883 262.225 136.717 261.851 139.38C261.477 142.043 263.408 144.504 266.071 144.879Z" fill="black"/>
<path d="M316.712 150.857L324.615 151.968L345.788 124.108C348.051 121.098 349.87 117.499 350.45 113.376C352.043 102.036 344.562 92.3127 333.223 90.7191C321.884 89.1255 311.817 96.5582 310.247 107.726C308.666 118.979 315.901 128.58 327.326 130.186C329.216 130.452 331.51 130.336 332.969 129.928L333.264 130.32L316.712 150.857ZM328.551 123.963C320.648 122.853 316.351 116.029 317.377 108.728C318.415 101.34 324.403 96.137 332.306 97.2477C340.123 98.3463 344.456 104.912 343.406 112.386C342.38 119.687 336.368 125.062 328.551 123.963Z" fill="black"/>
<path d="M375.099 159.063L383.002 160.174L404.175 132.314C406.438 129.303 408.257 125.705 408.837 121.581C410.43 110.242 402.949 100.518 391.61 98.9249C380.271 97.3312 370.204 104.764 368.634 115.931C367.053 127.185 374.288 136.786 385.713 138.392C387.603 138.657 389.897 138.542 391.356 138.134L391.651 138.526L375.099 159.063ZM386.938 132.169C379.035 131.059 374.738 124.235 375.764 116.933C376.803 109.546 382.79 104.343 390.693 105.453C398.51 106.552 402.843 113.118 401.793 120.591C400.767 127.893 394.755 133.268 386.938 132.169Z" fill="black"/>
<path d="M482.08 174.098L517.301 179.048L518.182 172.777L489.92 168.805L492.902 147.587L516.439 150.895L517.321 144.624L493.783 141.316L496.596 121.301L523.913 125.14L524.807 118.783L490.531 113.966L482.08 174.098Z" fill="black"/>
<path d="M554.642 184.296L561.6 185.274L569.157 131.499L588.571 134.227L589.465 127.87L543.678 121.435L542.785 127.792L562.199 130.521L554.642 184.296Z" fill="black"/>
<path d="M594.388 189.882L601.346 190.86L605.197 163.457L635.435 167.706L631.584 195.109L638.542 196.087L646.993 135.955L640.035 134.977L636.328 161.35L606.09 157.1L609.797 130.728L602.839 129.75L594.388 189.882Z" fill="black"/>
<path fill-rule="evenodd" clip-rule="evenodd" d="M310.78 208.865C310.459 208.876 310.14 208.879 309.822 208.875C299.609 208.731 291.202 200.591 290.842 190.272L44.251 198.883L41.8034 212.631C39.4573 225.809 33.2291 237.987 23.9173 247.602C-2.59333 274.977 -1.05967 318.896 27.2959 344.355C37.2558 353.297 44.3183 365.01 47.5779 377.993L50.9786 391.537L297.57 382.926C297.209 372.607 305.028 363.899 315.205 363.044C315.522 363.018 315.841 362.999 316.162 362.987C326.802 362.616 335.729 370.94 336.1 381.58L580.776 373.036L583.224 359.288C585.57 346.109 591.798 333.932 601.11 324.317C627.621 296.942 626.087 253.023 597.731 227.564C587.771 218.622 580.709 206.909 577.449 193.926L574.049 180.382L329.373 188.926C329.744 199.566 321.42 208.493 310.78 208.865Z" fill="#FAFF01"/>
<path d="M110.091 315.536L108.196 261.266L101.607 261.496C101.822 267.651 97.8354 270.307 86.7386 270.695L86.9354 276.33L101.673 275.815L103.069 315.781L89.2846 316.263L89.5087 322.678L127.654 321.346L127.43 314.931L110.091 315.536Z" fill="black"/>
<path d="M167.112 321.096C169.8 321.003 171.891 318.76 171.798 316.072C171.704 313.385 169.461 311.293 166.773 311.387C164.086 311.481 161.907 313.727 162.001 316.414C162.095 319.102 164.425 321.19 167.112 321.096Z" fill="black"/>
<path d="M218.022 318.19L225.998 317.912L242.011 286.799C243.716 283.441 244.884 279.581 244.738 275.42C244.339 263.976 235.283 255.699 223.839 256.099C212.396 256.498 203.772 265.566 204.165 276.837C204.562 288.194 213.355 296.393 224.885 295.99C226.792 295.924 229.031 295.411 230.397 294.756L230.756 295.091L218.022 318.19ZM225.011 289.649C217.035 289.928 211.618 283.954 211.361 276.585C211.101 269.13 216.093 262.966 224.069 262.688C231.958 262.412 237.366 268.126 237.629 275.668C237.887 283.037 232.9 289.374 225.011 289.649Z" fill="black"/>
<path d="M276.947 316.133L284.923 315.854L300.936 284.741C302.641 281.383 303.809 277.523 303.663 273.362C303.264 261.918 294.208 253.642 282.764 254.041C271.321 254.441 262.697 263.509 263.09 274.779C263.487 286.136 272.28 294.335 283.81 293.933C285.717 293.866 287.956 293.354 289.322 292.698L289.681 293.033L276.947 316.133ZM283.936 287.592C275.96 287.87 270.543 281.897 270.286 274.528C270.026 267.072 275.018 260.908 282.994 260.63C290.883 260.354 296.291 266.068 296.554 273.61C296.812 280.979 291.825 287.316 283.936 287.592Z" fill="black"/>
<path d="M384.914 312.362L420.458 311.121L420.237 304.792L391.715 305.788L390.967 284.375L414.721 283.545L414.5 277.217L390.746 278.046L390.041 257.847L417.609 256.884L417.385 250.468L382.794 251.676L384.914 312.362Z" fill="black"/>
<path d="M458.143 309.805L465.165 309.56L463.27 255.289L482.863 254.605L482.639 248.19L436.431 249.803L436.655 256.219L456.248 255.535L458.143 309.805Z" fill="black"/>
<path d="M498.255 308.404L505.278 308.159L504.312 280.504L534.828 279.438L535.794 307.093L542.816 306.848L540.697 246.162L533.675 246.408L534.604 273.023L504.088 274.088L503.158 247.473L496.136 247.718L498.255 308.404Z" fill="black"/>
<path fill-rule="evenodd" clip-rule="evenodd" d="M491.592 367.412C491.271 367.407 490.951 367.393 490.634 367.372C480.443 366.695 472.474 358.125 472.654 347.802L225.95 343.496L222.786 357.097C219.754 370.134 212.897 381.969 203.095 391.084C175.188 417.034 174.421 460.972 201.405 487.88C210.883 497.332 217.323 509.399 219.899 522.534L222.586 536.237L469.29 540.543C469.47 530.22 477.733 521.934 487.942 521.612C488.26 521.602 488.579 521.6 488.9 521.606C499.545 521.792 508.024 530.571 507.838 541.216L752.626 545.489L755.79 531.888C758.822 518.851 765.679 507.016 775.481 497.901C803.388 471.951 804.155 428.012 777.171 401.104C767.693 391.653 761.253 379.586 758.677 366.451L755.99 352.747L511.202 348.475C511.017 359.12 502.237 367.598 491.592 367.412Z" fill="#E412B6"/>
<path d="M285.598 463.437L286.545 409.141L279.954 409.026C279.846 415.184 275.726 417.629 264.624 417.435L264.525 423.072L279.27 423.33L278.572 463.314L264.782 463.073L264.67 469.492L302.832 470.158L302.944 463.74L285.598 463.437Z" fill="black"/>
<path d="M342.25 471.974C344.938 472.021 347.144 469.89 347.191 467.201C347.238 464.513 345.108 462.306 342.419 462.26C339.73 462.213 337.437 464.342 337.39 467.03C337.344 469.719 339.561 471.927 342.25 471.974Z" fill="black"/>
<path d="M393.242 471.736L401.221 471.875L418.841 441.643C420.719 438.379 422.087 434.585 422.16 430.422C422.36 418.973 413.749 410.234 402.3 410.034C390.852 409.834 381.765 418.438 381.568 429.714C381.37 441.076 389.722 449.724 401.257 449.925C403.165 449.959 405.428 449.564 406.826 448.982L407.167 449.335L393.242 471.736ZM401.715 443.6C393.735 443.461 388.639 437.212 388.767 429.839C388.897 422.38 394.206 416.486 402.185 416.626C410.078 416.764 415.179 422.752 415.048 430.298C414.919 437.67 409.607 443.738 401.715 443.6Z" fill="black"/>
<path d="M452.193 472.765L460.173 472.904L477.792 442.672C479.671 439.408 481.039 435.614 481.112 431.451C481.311 420.002 472.701 411.263 461.252 411.063C449.803 410.863 440.717 419.467 440.52 430.743C440.322 442.105 448.673 450.753 460.209 450.954C462.117 450.988 464.38 450.593 465.778 450.011L466.119 450.364L452.193 472.765ZM460.666 444.629C452.687 444.49 447.59 438.241 447.719 430.868C447.849 423.409 453.158 417.515 461.137 417.655C469.03 417.793 474.131 423.781 473.999 431.327C473.871 438.699 468.559 444.767 460.666 444.629Z" fill="black"/>
<path d="M560.209 474.65L595.77 475.271L595.881 468.939L567.345 468.441L567.719 447.018L591.484 447.433L591.595 441.101L567.83 440.687L568.183 420.478L595.764 420.959L595.876 414.541L561.269 413.937L560.209 474.65Z" fill="black"/>
<path d="M633.472 475.929L640.498 476.052L641.446 421.756L661.047 422.099L661.159 415.68L614.93 414.873L614.818 421.292L634.42 421.634L633.472 475.929Z" fill="black"/>
<path d="M673.603 476.63L680.629 476.752L681.111 449.084L711.642 449.617L711.159 477.285L718.184 477.408L719.244 416.694L712.219 416.571L711.754 443.199L681.223 442.666L681.688 416.039L674.663 415.916L673.603 476.63Z" fill="black"/>
</g>
<defs>
<clipPath id="clip0_357_2322">
<rect width="800" height="549.398" fill="white" transform="translate(0.695312)"/>
</clipPath>
</defs>
</svg>
