<svg width="801" height="418" viewBox="0 0 801 418" fill="none" xmlns="http://www.w3.org/2000/svg">
<g clip-path="url(#clip0_357_2337)">
<path fill-rule="evenodd" clip-rule="evenodd" d="M444.088 0C444.088 24.0124 424.66 43.4783 400.695 43.4783C376.73 43.4783 357.303 24.0124 357.303 0H79.5916L76.6204 11.9083C69.9896 38.4838 58.1237 63.4631 41.7201 85.3778C-12.9796 158.455 -12.9796 258.936 41.7201 332.013C58.1237 353.928 69.9896 378.907 76.6204 405.483L79.5916 417.391H357.303C357.303 393.379 376.73 373.913 400.695 373.913C424.66 373.913 444.088 393.379 444.088 417.391H721.799L724.77 405.483C731.401 378.907 743.267 353.928 759.671 332.013C814.37 258.936 814.37 158.455 759.671 85.3778C743.267 63.4631 731.401 38.4838 724.77 11.9083L721.799 0H444.088Z" fill="#FAFF01"/>
<path fill-rule="evenodd" clip-rule="evenodd" d="M218.837 83.566C218.837 96.0878 209.533 105.479 196.142 105.479C182.75 105.479 173.446 96.0878 173.446 83.566V64.2617C173.446 51.7399 182.75 42.3486 196.142 42.3486C209.533 42.3486 218.837 51.7399 218.837 64.2617V83.566ZM180.402 83.1312C180.402 91.0443 185.272 98.7834 196.142 98.7834C207.011 98.7834 211.881 91.0443 211.881 83.1312V64.6965C211.881 56.8704 206.924 49.0443 196.142 49.0443C185.359 49.0443 180.402 56.8704 180.402 64.6965V83.1312ZM140.604 104.349H133.56V49.9139H113.908V43.4791H160.256V49.9139H140.604V104.349ZM218.841 354.261C218.841 366.782 209.537 376.174 196.146 376.174C182.754 376.174 173.45 366.782 173.45 354.261V334.956C173.45 322.435 182.754 313.043 196.146 313.043C209.537 313.043 218.841 322.435 218.841 334.956V354.261ZM180.407 353.826C180.407 361.739 185.276 369.478 196.146 369.478C207.015 369.478 211.885 361.739 211.885 353.826V335.391C211.885 327.565 206.928 319.739 196.146 319.739C185.363 319.739 180.407 327.565 180.407 335.391V353.826ZM120.521 375.043H113.738V314.174H123.651L136.782 367.304H137.303L150.434 314.174H160.347V375.043H153.564V329.652H153.042L142.086 375.043H131.999L121.042 329.652H120.521V375.043ZM255.249 376.174C268.64 376.174 277.945 366.782 277.945 354.261V334.956C277.945 322.435 268.64 313.043 255.249 313.043C241.858 313.043 232.553 322.435 232.553 334.956V354.261C232.553 366.782 241.858 376.174 255.249 376.174ZM255.249 369.478C244.379 369.478 239.51 361.739 239.51 353.826V335.391C239.51 327.565 244.466 319.739 255.249 319.739C266.032 319.739 270.988 327.565 270.988 335.391V353.826C270.988 361.739 266.118 369.478 255.249 369.478ZM298.787 375.043H292.004V314.174H298.961L329.396 362.261H329.917V314.174H336.7V375.043H329.396L299.309 326.956H298.787V375.043ZM134.27 226.727C134.27 243.648 120.635 253.753 106.757 253.753C92.8789 253.753 79.2441 243.648 79.2441 226.727V192.396C79.2441 175.474 92.8789 165.37 106.757 165.37C120.635 165.37 134.27 175.474 134.27 192.396V226.727ZM88.9833 226.118C88.9833 236.587 96.4094 244.379 106.757 244.379C117.105 244.379 124.531 236.587 124.531 226.118V193.005C124.531 182.657 116.983 174.744 106.757 174.744C96.5311 174.744 88.9833 182.657 88.9833 193.005V226.118ZM113.696 209.318C113.696 213.092 110.653 216.135 106.879 216.135C103.105 216.135 99.9398 213.092 99.9398 209.318C99.9398 205.544 103.105 202.5 106.879 202.5C110.653 202.5 113.696 205.544 113.696 209.318ZM196.441 246.935C196.441 250.709 193.397 253.753 189.623 253.753C185.85 253.753 182.684 250.709 182.684 246.935C182.684 243.161 185.85 240.118 189.623 240.118C193.397 240.118 196.441 243.161 196.441 246.935ZM272.246 253.753C286.125 253.753 299.759 243.648 299.759 226.727V192.396C299.759 175.474 286.125 165.37 272.246 165.37C258.368 165.37 244.733 175.474 244.733 192.396V226.727C244.733 243.648 258.368 253.753 272.246 253.753ZM272.246 244.379C261.898 244.379 254.472 236.587 254.472 226.118V193.005C254.472 182.657 262.02 174.744 272.246 174.744C282.472 174.744 290.02 182.657 290.02 193.005V226.118C290.02 236.587 282.594 244.379 272.246 244.379ZM272.368 216.135C276.142 216.135 279.185 213.092 279.185 209.318C279.185 205.544 276.142 202.5 272.368 202.5C268.594 202.5 265.429 205.544 265.429 209.318C265.429 213.092 268.594 216.135 272.368 216.135ZM382.869 225.266C382.869 241.457 370.452 253.753 354.747 253.753C340.017 253.753 328.208 244.379 327.113 230.013H336.365C337.947 239.387 345.008 244.622 354.382 244.622C364.608 244.622 372.887 236.709 372.887 225.266C372.887 214.309 365.095 206.64 353.408 206.64C343.913 206.64 339.287 212.605 337.826 215.04H328.817L331.739 166.953H377.513V175.961H340.382L338.556 203.353H339.287C339.287 203.353 344.521 197.631 355.113 197.631C371.304 197.631 382.869 210.413 382.869 225.266ZM495.523 252.17H545.437V243.283H505.384V213.213H538.741V204.327H505.384V175.961H544.097V166.953H495.523V252.17ZM608.216 252.17H598.355V175.961H570.842V166.953H635.729V175.961H608.216V252.17ZM654.682 252.17H664.543V213.335H707.395V252.17H717.256V166.953H707.395V204.327H664.543V166.953H654.682V252.17ZM478.957 104.348H486.001V49.9128H505.653V43.478H459.305V49.9128H478.957V104.348ZM519.191 104.348H526.235V76.6085H556.843V104.348H563.887V43.478H556.843V70.1737H526.235V43.478H519.191V104.348ZM618.468 104.348H582.816V43.478H617.512V49.9128H589.86V70.1737H613.686V76.5215H589.86V97.9998H618.468V104.348Z" fill="black"/>
<path d="M44.3145 192.464L753.218 180.09L753.825 214.867L44.9215 227.241L44.3145 192.464Z" fill="#E412B6"/>
</g>
<defs>
<clipPath id="clip0_357_2337">
<rect width="800" height="417.391" fill="white" transform="translate(0.695312)"/>
</clipPath>
</defs>
</svg>
