<svg width="801" height="250" viewBox="0 0 801 250" fill="none" xmlns="http://www.w3.org/2000/svg">
<g clip-path="url(#clip0_357_2226)">
<path fill-rule="evenodd" clip-rule="evenodd" d="M401.941 25C401.523 25 401.108 24.9898 400.695 24.9696C387.433 24.322 376.879 13.3904 376.879 0H56.0912L52.2872 17.7081C48.6409 34.6819 39.9961 50.1828 27.4609 62.2238C-8.22655 96.5043 -8.22655 153.496 27.4609 187.776C39.9961 199.817 48.6409 215.318 52.2872 232.292L56.0912 250H376.879C376.879 236.61 387.433 225.678 400.695 225.03C401.108 225.01 401.523 225 401.941 225C415.783 225 427.003 236.193 427.003 250H745.299L749.103 232.292C752.75 215.318 761.395 199.817 773.93 187.776C809.617 153.496 809.617 96.5043 773.93 62.2238C761.395 50.1828 752.75 34.6819 749.103 17.7081L745.299 0H427.003C427.003 13.8071 415.783 25 401.941 25Z" fill="#FAFF01"/>
<path d="M131.118 165.425C143.943 165.425 156.543 156.088 156.543 140.45V108.725C156.543 93.0875 143.943 83.75 131.118 83.75C118.293 83.75 105.693 93.0875 105.693 108.725V140.45C105.693 156.088 118.293 165.425 131.118 165.425ZM131.118 156.763C121.556 156.763 114.693 149.563 114.693 139.888V109.288C114.693 99.725 121.668 92.4125 131.118 92.4125C140.568 92.4125 147.543 99.725 147.543 109.288V139.888C147.543 149.563 140.681 156.763 131.118 156.763ZM131.231 130.663C134.718 130.663 137.531 127.85 137.531 124.363C137.531 120.875 134.718 118.063 131.231 118.063C127.743 118.063 124.818 120.875 124.818 124.363C124.818 127.85 127.743 130.663 131.231 130.663Z" fill="black"/>
<path d="M207.696 165.425C211.183 165.425 213.996 162.613 213.996 159.125C213.996 155.638 211.183 152.825 207.696 152.825C204.208 152.825 201.283 155.638 201.283 159.125C201.283 162.613 204.208 165.425 207.696 165.425Z" fill="black"/>
<path d="M273.811 163.963H284.161L306.323 124.363C308.686 120.088 310.373 115.138 310.373 109.738C310.373 94.8875 299.011 83.75 284.161 83.75C269.311 83.75 257.723 95.1125 257.723 109.738C257.723 124.475 268.748 135.5 283.711 135.5C286.186 135.5 289.111 134.938 290.911 134.15L291.361 134.6L273.811 163.963ZM284.161 127.288C273.811 127.288 267.061 119.3 267.061 109.738C267.061 100.063 273.811 92.3 284.161 92.3C294.398 92.3 301.148 99.95 301.148 109.738C301.148 119.3 294.398 127.288 284.161 127.288Z" fill="black"/>
<path d="M350.275 163.963H360.625L382.788 124.363C385.15 120.088 386.838 115.138 386.838 109.738C386.838 94.8875 375.475 83.75 360.625 83.75C345.775 83.75 334.188 95.1125 334.188 109.738C334.188 124.475 345.213 135.5 360.175 135.5C362.65 135.5 365.575 134.938 367.375 134.15L367.825 134.6L350.275 163.963ZM360.625 127.288C350.275 127.288 343.525 119.3 343.525 109.738C343.525 100.063 350.275 92.3 360.625 92.3C370.863 92.3 377.613 99.95 377.613 109.738C377.613 119.3 370.863 127.288 360.625 127.288Z" fill="black"/>
<path d="M490.38 163.963H536.505V155.75H499.493V127.963H530.318V119.75H499.493V93.5375H535.268V85.2125H490.38V163.963Z" fill="black"/>
<path d="M585.407 163.963H594.52V93.5375H619.945V85.2125H559.982V93.5375H585.407V163.963Z" fill="black"/>
<path d="M637.46 163.963H646.572V128.075H686.172V163.963H695.285V85.2125H686.172V119.75H646.572V85.2125H637.46V163.963Z" fill="black"/>
</g>
<defs>
<clipPath id="clip0_357_2226">
<rect width="800" height="250" fill="white" transform="translate(0.695312)"/>
</clipPath>
</defs>
</svg>
