<svg width="801" height="300" viewBox="0 0 801 300" fill="none" xmlns="http://www.w3.org/2000/svg">
<g clip-path="url(#clip0_357_2217)">
<path fill-rule="evenodd" clip-rule="evenodd" d="M400.695 0H57.7657L54.8715 13.5384C50.6233 33.4107 41.8529 52.0306 29.2443 67.9461C-8.82103 115.995 -8.82103 184.005 29.2443 232.054C41.8529 247.969 50.6233 266.589 54.8715 286.462L57.7657 300H400.695H743.625L746.519 286.462C750.767 266.589 759.538 247.969 772.146 232.054C810.212 184.005 810.212 115.995 772.146 67.9461C759.538 52.0306 750.767 33.4107 746.519 13.5384L743.625 0H400.695Z" fill="#FAFF01"/>
<path d="M112.758 100.001H120.32L125.133 63.0635H125.508L130.32 100.001H137.883L143.695 56.251H138.57L134.195 93.8135H133.82L129.008 56.251H121.633L116.82 93.8135H116.445L112.07 56.251H106.945L112.758 100.001Z" fill="black"/>
<path d="M152.488 100.001H183.113V95.126H170.363V61.126H183.113V56.251H152.488V61.126H165.301V95.126H152.488V100.001Z" fill="black"/>
<path d="M195.219 100.001H225.406V95.126H200.281V56.251H195.219V100.001Z" fill="black"/>
<path d="M237.699 100.001H267.887V95.126H242.762V56.251H237.699V100.001Z" fill="black"/>
<path d="M337.723 100.813C346.973 100.813 353.535 94.5635 354.035 86.0635H348.973C348.473 91.251 344.91 96.001 337.723 96.001C329.91 96.001 326.41 90.4385 326.41 84.751V71.501C326.41 65.876 329.973 60.251 337.723 60.251C344.91 60.251 348.473 65.0635 348.973 70.251H354.035C353.535 61.6885 346.973 55.4385 337.723 55.4385C328.098 55.4385 321.41 62.1885 321.41 71.1885V85.0635C321.41 94.0635 328.098 100.813 337.723 100.813Z" fill="black"/>
<path d="M380.203 100.813C389.828 100.813 396.516 94.0635 396.516 85.0635V71.1885C396.516 62.1885 389.828 55.4385 380.203 55.4385C370.578 55.4385 363.891 62.1885 363.891 71.1885V85.0635C363.891 94.0635 370.578 100.813 380.203 100.813ZM380.203 96.001C372.391 96.001 368.891 90.4385 368.891 84.751V71.501C368.891 65.876 372.453 60.251 380.203 60.251C387.953 60.251 391.516 65.876 391.516 71.501V84.751C391.516 90.4385 388.016 96.001 380.203 96.001Z" fill="black"/>
<path d="M422.934 100.813C432.496 100.813 438.121 95.3135 438.121 88.4385C438.121 70.751 413.871 79.0635 413.871 67.126C413.871 63.501 416.559 60.0635 422.746 60.0635C428.684 60.0635 431.996 63.126 431.996 68.126H437.184C437.184 59.0635 429.434 55.4385 422.809 55.4385C413.996 55.4385 408.809 60.876 408.809 67.126C408.809 84.626 432.996 75.0635 432.996 88.751C432.996 93.3135 428.871 96.126 423.121 96.126C416.496 96.126 412.371 92.0635 412.371 87.001H407.309C407.309 95.126 414.246 100.813 422.934 100.813Z" fill="black"/>
<path d="M462.664 100.001H467.727V60.876H481.852V56.251H448.539V60.876H462.664V100.001Z" fill="black"/>
<path d="M533.375 100.001H538.25V67.376H538.625L546.5 100.001H553.75L561.625 67.376H562V100.001H566.875V56.251H559.75L550.313 94.4385H549.938L540.5 56.251H533.375V100.001Z" fill="black"/>
<path d="M592.605 100.813C602.23 100.813 608.918 94.0635 608.918 85.0635V71.1885C608.918 62.1885 602.23 55.4385 592.605 55.4385C582.98 55.4385 576.293 62.1885 576.293 71.1885V85.0635C576.293 94.0635 582.98 100.813 592.605 100.813ZM592.605 96.001C584.793 96.001 581.293 90.4385 581.293 84.751V71.501C581.293 65.876 584.855 60.251 592.605 60.251C600.355 60.251 603.918 65.876 603.918 71.501V84.751C603.918 90.4385 600.418 96.001 592.605 96.001Z" fill="black"/>
<path d="M619.898 100.001H624.961V82.3135H634.711L644.398 100.001H650.273L640.023 81.8135C644.961 80.376 649.148 75.626 649.148 69.1885C649.148 61.501 643.836 56.251 634.898 56.251H619.898V100.001ZM624.961 77.8135V60.751H634.586C640.773 60.751 643.898 64.5635 643.898 69.1885C643.898 74.9385 640.023 77.8135 634.898 77.8135H624.961Z" fill="black"/>
<path d="M664.754 100.001H690.379V95.4385H669.816V80.001H686.941V75.4385H669.816V60.876H689.691V56.251H664.754V100.001Z" fill="black"/>
<path d="M131.248 175.001H161.873V170.126H149.123V136.126H161.873V131.251H131.248V136.126H144.061V170.126H131.248V175.001Z" fill="black"/>
<path d="M172.979 175.001H177.854V140.438H178.229L199.854 175.001H205.104V131.251H200.229V165.813H199.854L177.979 131.251H172.979V175.001Z" fill="black"/>
<path d="M271.502 175.001H276.564V135.876H290.689V131.251H257.377V135.876H271.502V175.001Z" fill="black"/>
<path d="M300.42 175.001H305.482V155.063H327.482V175.001H332.545V131.251H327.482V150.438H305.482V131.251H300.42V175.001Z" fill="black"/>
<path d="M346.15 175.001H371.775V170.438H351.213V155.001H368.338V150.438H351.213V135.876H371.088V131.251H346.15V175.001Z" fill="black"/>
<path d="M431.424 175.001H436.486V155.438H455.111V150.876H436.486V135.876H456.424V131.251H431.424V175.001Z" fill="black"/>
<path d="M486.404 175.813C496.779 175.813 502.717 169.126 502.717 159.251V131.251H497.717V159.188C497.717 166.501 493.779 171.126 486.404 171.126C479.029 171.126 475.154 166.501 475.154 159.251V131.251H470.092V159.313C470.092 169.251 475.904 175.813 486.404 175.813Z" fill="black"/>
<path d="M526.385 175.001H531.447V135.876H545.572V131.251H512.26V135.876H526.385V175.001Z" fill="black"/>
<path d="M571.365 175.813C581.74 175.813 587.678 169.126 587.678 159.251V131.251H582.678V159.188C582.678 166.501 578.74 171.126 571.365 171.126C563.99 171.126 560.115 166.501 560.115 159.251V131.251H555.053V159.313C555.053 169.251 560.865 175.813 571.365 175.813Z" fill="black"/>
<path d="M598.658 175.001H603.721V157.313H613.471L623.158 175.001H629.033L618.783 156.813C623.721 155.376 627.908 150.626 627.908 144.188C627.908 136.501 622.596 131.251 613.658 131.251H598.658V175.001ZM603.721 152.813V135.751H613.346C619.533 135.751 622.658 139.563 622.658 144.188C622.658 149.938 618.783 152.813 613.658 152.813H603.721Z" fill="black"/>
<path d="M643.514 175.001H669.139V170.438H648.576V155.001H665.701V150.438H648.576V135.876H668.451V131.251H643.514V175.001Z" fill="black"/>
<path d="M189.041 250.813C199.416 250.813 205.354 244.126 205.354 234.251V206.251H200.354V234.188C200.354 241.501 196.416 246.126 189.041 246.126C181.666 246.126 177.791 241.501 177.791 234.251V206.251H172.729V234.313C172.729 244.251 178.541 250.813 189.041 250.813Z" fill="black"/>
<path d="M215.459 250.001H220.334V215.438H220.709L242.334 250.001H247.584V206.251H242.709V240.813H242.334L220.459 206.251H215.459V250.001Z" fill="black"/>
<path d="M259.564 250.001H272.127C281.752 250.001 288.439 244.063 288.439 235.063V221.813C288.439 212.813 281.752 206.251 272.127 206.251H259.564V250.001ZM264.627 245.501V210.813H272.127C279.877 210.813 283.439 216.501 283.439 222.126V234.751C283.439 240.438 279.939 245.501 272.127 245.501H264.627Z" fill="black"/>
<path d="M316.482 250.813C326.107 250.813 332.795 244.063 332.795 235.063V221.188C332.795 212.188 326.107 205.438 316.482 205.438C306.857 205.438 300.17 212.188 300.17 221.188V235.063C300.17 244.063 306.857 250.813 316.482 250.813ZM316.482 246.001C308.67 246.001 305.17 240.438 305.17 234.751V221.501C305.17 215.876 308.732 210.251 316.482 210.251C324.232 210.251 327.795 215.876 327.795 221.501V234.751C327.795 240.438 324.295 246.001 316.482 246.001Z" fill="black"/>
<path d="M358.963 250.813C369.338 250.813 375.275 244.126 375.275 234.251V206.251H370.275V234.188C370.275 241.501 366.338 246.126 358.963 246.126C351.588 246.126 347.713 241.501 347.713 234.251V206.251H342.65V234.313C342.65 244.251 348.463 250.813 358.963 250.813Z" fill="black"/>
<path d="M387.006 250.001H402.381C409.756 250.001 415.881 245.438 415.881 237.563C415.881 231.376 411.756 228.251 408.818 227.251V226.876C412.318 225.001 414.381 221.751 414.381 217.438C414.381 211.063 409.443 206.251 401.131 206.251H387.006V250.001ZM392.006 225.188V210.751H401.131C405.818 210.751 409.193 213.501 409.193 217.813C409.193 222.251 405.881 225.188 400.943 225.188H392.006ZM392.006 245.563V229.438H400.943C406.006 229.438 410.631 231.688 410.631 237.438C410.631 243.063 406.693 245.563 401.506 245.563H392.006Z" fill="black"/>
<path d="M441.424 250.001H446.486V210.876H460.611V206.251H427.299V210.876H441.424V250.001Z" fill="black"/>
<path d="M473.592 250.001H499.217V245.438H478.654V230.001H495.779V225.438H478.654V210.876H498.529V206.251H473.592V250.001Z" fill="black"/>
<path d="M514.447 250.001H527.01C536.635 250.001 543.322 244.063 543.322 235.063V221.813C543.322 212.813 536.635 206.251 527.01 206.251H514.447V250.001ZM519.51 245.501V210.813H527.01C534.76 210.813 538.322 216.501 538.322 222.126V234.751C538.322 240.438 534.822 245.501 527.01 245.501H519.51Z" fill="black"/>
<path d="M556.303 250.001H586.49V245.126H561.365V206.251H556.303V250.001Z" fill="black"/>
<path d="M616.408 233.188L631.721 206.251H625.971L613.971 227.938H613.596L601.471 206.251H595.971L611.283 233.188V245.126H601.658V250.001H626.096V245.126H616.408V233.188Z" fill="black"/>
<path d="M150.695 224.243L648.157 214.298L648.406 226.796L150.945 236.741L150.695 224.243Z" fill="#E412B6"/>
</g>
<defs>
<clipPath id="clip0_357_2217">
<rect width="800" height="300" fill="white" transform="translate(0.695312)"/>
</clipPath>
</defs>
</svg>
