<svg width="801" height="418" viewBox="0 0 801 418" fill="none" xmlns="http://www.w3.org/2000/svg">
<g clip-path="url(#clip0_357_2333)">
<path fill-rule="evenodd" clip-rule="evenodd" d="M444.084 0C444.084 24.0124 424.658 43.4783 400.695 43.4783C376.732 43.4783 357.307 24.0124 357.307 0H79.5845L76.6136 11.9083C69.9834 38.4838 58.1185 63.4631 41.7164 85.3778C-12.9784 158.455 -12.9784 258.936 41.7164 332.013C58.1185 353.928 69.9834 378.907 76.6136 405.483L79.5845 417.391H357.307C357.307 393.379 376.732 373.913 400.695 373.913C424.658 373.913 444.084 393.379 444.084 417.391H721.806L724.777 405.483C731.407 378.907 743.272 353.928 759.674 332.013C814.369 258.936 814.369 158.455 759.674 85.3778C743.272 63.4631 731.407 38.4838 724.777 11.9083L721.806 0H444.084Z" fill="#E412B6"/>
<path fill-rule="evenodd" clip-rule="evenodd" d="M306.757 105.479C320.148 105.479 329.453 96.0878 329.453 83.566V64.2617C329.453 51.7399 320.148 42.3486 306.757 42.3486C293.366 42.3486 284.061 51.7399 284.061 64.2617V83.566C284.061 96.0878 293.366 105.479 306.757 105.479ZM306.757 98.7834C295.888 98.7834 291.018 91.0443 291.018 83.1312V64.6965C291.018 56.8704 295.975 49.0443 306.757 49.0443C317.54 49.0443 322.496 56.8704 322.496 64.6965V83.1312C322.496 91.0443 317.627 98.7834 306.757 98.7834ZM244.176 104.349H251.219V49.9139H270.871V43.4791H224.523V49.9139H244.176V104.349ZM503.393 104.348H496.35V49.9128H476.697V43.478H523.045V49.9128H503.393V104.348ZM543.627 104.348H536.583V43.478H543.627V70.1737H574.235V43.478H581.279V104.348H574.235V76.6085H543.627V104.348ZM600.208 104.348H635.86V97.9998H607.252V76.5215H631.078V70.1737H607.252V49.9128H634.904V43.478H600.208V104.348ZM558.927 209.827C572.318 209.827 581.622 200.436 581.622 187.914V168.61C581.622 156.088 572.318 146.696 558.927 146.696C545.535 146.696 536.231 156.088 536.231 168.61V187.914C536.231 200.436 545.535 209.827 558.927 209.827ZM558.927 203.131C548.057 203.131 543.188 195.392 543.188 187.479V169.044C543.188 161.218 548.144 153.392 558.927 153.392C569.709 153.392 574.666 161.218 574.666 169.044V187.479C574.666 195.392 569.796 203.131 558.927 203.131ZM476.519 208.696H483.302V163.305H483.823L494.78 208.696H504.867L515.823 163.305H516.345V208.696H523.128V147.827H513.215L500.084 200.957H499.563L486.432 147.827H476.519V208.696ZM640.726 187.914C640.726 200.436 631.421 209.827 618.03 209.827C604.639 209.827 595.334 200.436 595.334 187.914V168.61C595.334 156.088 604.639 146.696 618.03 146.696C631.421 146.696 640.726 156.088 640.726 168.61V187.914ZM602.291 187.479C602.291 195.392 607.16 203.131 618.03 203.131C628.899 203.131 633.769 195.392 633.769 187.479V169.044C633.769 161.218 628.813 153.392 618.03 153.392C607.247 153.392 602.291 161.218 602.291 169.044V187.479ZM654.785 208.696H661.568V160.61H662.09L692.177 208.696H699.481V147.827H692.698V195.914H692.177L661.742 147.827H654.785V208.696ZM738.41 193.392H734.15L732.671 171.827V147.827H739.889V171.827L738.41 193.392ZM741.193 204.957C741.193 207.653 739.019 209.827 736.323 209.827C733.628 209.827 731.367 207.653 731.367 204.957C731.367 202.262 733.628 200.088 736.323 200.088C739.019 200.088 741.193 202.262 741.193 204.957Z" fill="black"/>
</g>
<defs>
<clipPath id="clip0_357_2333">
<rect width="800" height="417.391" fill="white" transform="translate(0.695312)"/>
</clipPath>
</defs>
</svg>
