<svg width="801" height="442" viewBox="0 0 801 442" fill="none" xmlns="http://www.w3.org/2000/svg">
<g clip-path="url(#clip0_357_2493)">
<rect width="800" height="441.379" transform="translate(0.695312)" fill="white"/>
<path d="M800.695 0H0.695312V441.379H800.695V0Z" fill="#FAFF01"/>
<path fill-rule="evenodd" clip-rule="evenodd" d="M243.109 217.796C242.941 217.388 242.784 216.974 242.639 216.556C239.121 215.437 235.934 213.393 233.432 210.598C231.086 207.952 229.372 204.807 228.42 201.402V201.103V200.804L224.518 185.262C220.372 192.136 215.321 198.423 209.501 203.954C203.632 209.506 197.063 214.267 189.96 218.115C185.377 220.579 180.605 222.662 175.692 224.344C177.602 225.336 179.464 226.425 181.271 227.609C184.312 229.593 187.126 231.906 189.661 234.506L190.696 232.689L194.765 225.793L202.489 224.046C205.96 223.218 209.638 222.46 213.455 221.747C217.615 220.85 222.121 220.092 226.811 219.448C231.501 218.804 236.535 218.299 241.776 217.908C242.218 217.869 242.663 217.832 243.109 217.796ZM72.2362 191.08C75.564 194.931 79.2801 198.408 83.3173 201.46C84.1898 202.621 85.094 203.759 86.0293 204.873C90.7964 210.389 96.3603 215.138 102.523 218.971C100.375 219.287 98.3504 219.61 96.443 219.954C95.9012 220.052 95.3611 220.148 94.8251 220.243L94.8205 220.244C92.5834 220.641 90.4167 221.026 88.489 221.471L88.3078 221.513C85.9867 222.048 83.8453 222.543 82.0752 223.08H81.9603H81.8224L78.7649 224.276C76.6788 224.818 74.6589 225.589 72.7419 226.575C69.5319 228.257 66.7727 230.685 64.6959 233.655L64.581 233.816L64.466 234C62.9222 236.369 61.7659 238.968 61.0408 241.701C60.5814 243.385 60.0181 245.402 59.3507 247.792L59.2477 248.161V248.299V248.437C58.7768 250.219 58.306 251.977 57.8442 253.701L57.3396 255.586V255.747V255.908C56.6729 258.552 55.9143 261.287 55.0408 264.023L54.3281 266.506V269.08C54.2999 273.103 55.4996 277.039 57.767 280.362C60.0344 283.685 63.2616 286.237 67.0178 287.678C66.9078 289.235 66.7942 290.822 66.6785 292.439C66.5037 294.88 66.3239 297.392 66.1442 299.977C65.8454 304.276 65.5235 308.575 65.1787 312.827L63.4545 334.345V334.689C63.2477 338.414 62.9718 341.77 62.6959 344.644V344.965C62.4431 348.115 62.2362 351.333 62.0522 354.483L61.0637 369.724V370.322V370.919C60.963 373.733 61.4376 376.537 62.4583 379.161C63.4791 381.785 65.0245 384.172 67.0001 386.178C68.9756 388.184 71.3397 389.765 73.9477 390.826C74.7012 391.132 75.4705 391.393 76.2514 391.608C76.3649 391.952 76.4875 392.294 76.6192 392.632C77.64 395.256 79.1854 397.644 81.161 399.649C83.1366 401.655 85.5007 403.236 88.1086 404.297C90.7166 405.357 93.5135 405.874 96.3281 405.816C98.6423 405.824 100.952 405.608 103.225 405.172C105.356 404.793 107.454 404.247 109.501 403.54C110.903 403.034 112.42 402.483 114.098 401.862L118.236 400.299L123.615 398.506C126.788 397.448 129.34 396.552 131.455 395.77C136.833 394.225 141.41 390.669 144.236 385.839L145.707 383.172L147.546 379.793L147.891 375.977L149.363 359.77C155.144 359.135 160.855 357.965 166.42 356.276H166.558C174.02 353.972 181.128 350.667 187.688 346.456C187.664 346.722 187.64 346.984 187.615 347.241V347.632C187.386 350.391 187.156 352.942 186.926 355.241C186.696 357.54 186.466 360.161 186.282 362.483V362.965C186.144 365.448 186.075 368.207 186.075 371.172C186.006 374.567 186.768 377.928 188.294 380.961C189.821 383.994 192.066 386.608 194.834 388.575L195.156 388.804L195.501 389.011C197.269 390.109 199.173 390.95 201.154 391.519C201.495 392.628 201.93 393.71 202.455 394.754C203.982 397.787 206.227 400.401 208.995 402.368L209.317 402.598L209.661 402.804C213.157 404.974 217.18 406.143 221.294 406.184C224.173 406.185 227.036 405.735 229.776 404.85C231.248 404.414 232.558 403.977 233.753 403.494L238.926 401.54L239.501 401.333L247.524 398.529C250.213 397.54 252.581 396.712 254.581 396.023H254.742H254.88C256.669 395.423 258.426 394.732 260.144 393.954C262.469 392.873 264.565 391.366 266.325 389.519C267.14 389.981 267.981 390.392 268.842 390.75L268.857 390.781C269.759 392.734 270.869 394.584 272.167 396.299C274.001 398.743 276.259 400.837 278.834 402.483C282.637 404.976 287.09 406.295 291.638 406.276C293.688 406.268 295.727 405.998 297.707 405.471C300.046 404.928 302.292 404.046 304.374 402.85C306.471 401.676 308.568 400.616 310.403 399.689L310.926 399.425C312.88 398.437 314.604 397.678 316.098 397.126H316.328H316.558C318.121 396.391 319.615 395.724 320.995 395.149L322.857 394.322C324.186 397.264 326.186 399.854 328.696 401.885C332.613 405.004 337.482 406.684 342.489 406.644C345.188 406.642 347.879 406.341 350.512 405.747C352.519 405.291 354.499 404.723 356.443 404.046L361.294 402.575C362.949 402.092 364.903 401.586 367.133 401.103C369.363 400.62 371.064 400.161 372.857 399.632C374.65 399.103 375.96 398.712 377.294 398.253L377.73 398.115L378.144 397.954H378.397H379.156L382.788 396.299C385.424 395.13 387.781 393.412 389.7 391.259C391.618 389.106 393.055 386.569 393.914 383.816C394.438 382.178 394.792 380.491 394.972 378.781V378.552V378.299L395.345 373.972C395.997 374.508 396.658 375.035 397.327 375.55C398.828 377.504 400.428 379.38 402.121 381.172C409.273 388.726 417.873 394.762 427.409 398.919H427.524C437.319 403.093 447.864 405.22 458.512 405.172C461.983 405.172 465.638 405.034 469.363 404.781C473.47 404.556 477.557 404.041 481.592 403.241C485.808 402.477 489.953 401.362 493.983 399.908C497.036 398.86 500.003 397.577 502.857 396.069L504.696 399.103H507.914C509.876 400.125 511.999 400.801 514.19 401.103H514.558H514.926C519.73 401.586 525.018 402.046 530.65 402.483C531.71 402.565 532.779 402.649 533.855 402.733C538.492 403.097 543.261 403.471 548.075 403.77C554.006 404.138 559.914 404.437 565.868 404.69C571.822 404.942 577.891 405.057 583.501 405.057C585.156 405.057 586.696 405.057 588.098 404.942C590.708 404.811 593.289 404.339 595.776 403.54C598.889 402.572 601.785 401.01 604.305 398.942C605.435 398.043 606.482 397.042 607.432 395.954C608.955 398.265 610.933 400.241 613.245 401.763C615.557 403.284 618.155 404.319 620.88 404.804L622.512 405.103H640.512C649.739 405.095 658.954 404.473 668.098 403.241C677.6 401.976 686.97 399.868 696.098 396.942C705.247 394.014 714.044 390.082 722.328 385.218C731.003 380.092 738.803 373.612 745.432 366.023C752.275 358.183 757.662 349.183 761.34 339.448C765.325 328.602 767.288 317.117 767.133 305.563C767.19 299.175 766.456 292.805 764.949 286.598C763.521 280.786 761.26 275.211 758.236 270.046C755.273 264.97 751.622 260.328 747.386 256.253C745.153 254.125 742.828 252.1 740.417 250.181C738.357 247.431 736.075 244.848 733.592 242.46C729.675 238.726 725.47 235.306 721.018 232.23C713.389 226.94 704.881 223.048 695.891 220.735C685.779 218.238 675.386 217.064 664.972 217.241C658.857 217.241 653.845 217.241 649.661 217.632C645.438 217.789 641.237 218.328 637.11 219.241C633.026 220.156 629.099 221.666 625.455 223.724C623.118 225.073 620.897 226.611 618.811 228.322C618.338 227.428 617.792 226.574 617.179 225.77C615.573 223.576 613.551 221.72 611.228 220.307C608.904 218.895 606.325 217.955 603.638 217.54C602.517 217.324 601.378 217.216 600.236 217.218H599.569H598.88L567.974 219.479C569.155 218.944 570.312 218.392 571.432 217.839L573.73 216.735C575.34 216.046 576.949 215.287 578.512 214.437C580.204 213.608 581.854 212.695 583.455 211.701H583.592C586.701 209.929 589.278 207.357 591.057 204.252C592.835 201.148 593.75 197.624 593.707 194.046C593.72 189.268 591.966 184.654 588.784 181.09C586.24 178.24 582.926 176.223 579.273 175.259C578.499 172.327 577.042 169.593 574.991 167.296C573.055 165.129 570.675 163.443 568.038 162.335C567.289 161.05 566.575 159.814 565.894 158.634L565.501 157.954L562.121 151.77C562.995 151.126 563.868 150.46 564.719 149.77C568.157 146.926 571.279 143.72 574.029 140.207C577.226 136.19 579.806 131.719 581.684 126.942C583.918 121.438 585.05 115.549 585.018 109.609C585.276 100.247 582.842 91.0083 578.006 82.9883C574.303 76.937 569.312 71.7947 563.404 67.9183C559.167 61.4613 553.43 56.1158 546.673 52.3447C540.026 48.5949 532.788 46.006 525.271 44.6895C518.285 43.3141 511.193 42.545 504.075 42.3906H503.707C497.753 42.3906 492.006 42.6205 486.65 43.0803C481.294 43.5401 476.374 43.9769 471.684 44.6205C466.995 45.2642 462.489 46.0228 458.328 46.9194C456.614 47.2887 455.025 47.6073 453.513 47.9105C451.353 48.3434 449.35 48.7451 447.363 49.2182L446.213 49.4711C444.503 47.5742 442.452 46.0147 440.167 44.8734C438.215 43.8685 436.11 43.1927 433.937 42.8734C432.816 42.6574 431.677 42.5496 430.535 42.5516H429.868H429.202L385.524 45.747H338.213C334.013 43.3784 329.238 42.2243 324.42 42.4136C321.172 42.4645 317.931 42.7333 314.719 43.2182C311.34 43.724 307.294 44.4596 302.351 45.5171C299.087 46.1838 296.443 46.8274 294.351 47.4711C291.659 48.195 289.077 49.2775 286.673 50.6895C283.016 52.8334 280.055 55.9861 278.144 59.77L277.799 60.4596L277.524 61.1723C277.409 61.4582 277.283 61.7758 277.145 62.1283C275.065 60.2275 272.641 58.738 270.002 57.7405C269.84 57.6793 269.678 57.62 269.515 57.5627C268.235 54.2299 266.263 51.2058 263.73 48.6895C261.568 46.6189 259.01 45.0061 256.209 43.9474C253.408 42.8888 250.423 42.4062 247.432 42.5286C245.564 42.5369 243.698 42.6597 241.845 42.8964C240.121 43.0573 238.144 43.2872 235.845 43.609C231.501 44.2067 227.684 44.7815 224.581 45.2872C221.309 45.7835 218.075 46.5055 214.903 47.4481C210.384 48.6632 206.263 51.041 202.949 54.3447C201.666 55.656 200.554 57.1235 199.638 58.7125C198.972 58.0918 198.282 57.5171 197.592 56.9424C188.774 49.7416 178.617 44.3584 167.707 41.1033C156.338 37.6314 144.646 35.3207 132.811 34.2067H131.868L131.822 34.0918H130.88C126.666 34.134 122.569 35.4838 119.155 37.9545C115.742 40.4253 113.179 43.8952 111.822 47.8849C111.822 48.0347 111.754 48.1748 111.687 48.3115C111.652 48.3845 111.616 48.4565 111.592 48.5286C105.275 50.8295 99.2306 53.8208 93.5695 57.4481C85.2594 62.7127 77.9184 69.3694 71.8683 77.1263C65.6951 85.0892 60.922 94.0446 57.7534 103.609C54.4223 113.89 52.7689 124.641 52.8568 135.448C52.8152 145.609 54.4542 155.707 57.7074 165.333V165.494C60.9559 174.835 65.8793 183.505 72.2362 191.08ZM394.398 233.709C395.935 234.577 397.344 235.641 398.592 236.869C401.962 234.152 405.525 231.694 409.251 229.512C405.066 229.464 400.724 229.354 396.489 229.172C393.948 229.063 391.394 228.946 388.838 228.819C389.296 229.813 389.684 230.835 390.001 231.877C391.528 232.309 393.004 232.922 394.398 233.709ZM487.133 305.103C487.216 305.161 487.3 305.218 487.385 305.275C485.657 308.456 484.698 312.012 484.604 315.655V316.046C484.259 316.046 483.914 316.017 483.569 315.988C483.225 315.96 482.88 315.931 482.535 315.931C479.351 315.869 476.198 316.571 473.34 317.977L473.018 318.115L472.719 318.299C471.045 319.227 469.318 320.056 467.546 320.781C466.322 321.308 465.053 321.724 463.753 322.023C462.172 322.39 460.566 322.644 458.949 322.781C458.592 322.813 458.222 322.842 457.839 322.868C457.727 321.587 457.676 320.3 457.684 319.011C457.642 315.777 458.115 312.556 459.087 309.471C459.784 307.179 460.898 305.036 462.374 303.149C463.448 301.827 464.807 300.766 466.351 300.046H466.466C468.108 299.294 469.902 298.932 471.707 298.988C473.041 298.95 474.371 299.145 475.638 299.563H475.822H476.029C477.87 300.174 479.654 300.943 481.363 301.862L481.569 302H481.799C483.516 302.904 485.181 303.901 486.788 304.988L486.949 305.103H487.133ZM495.615 227.425C493.742 226.275 491.8 225.242 489.803 224.332L492.029 223.563C494.742 222.575 497.087 221.747 499.11 221.057H499.248H499.409C502.604 219.885 503.684 219.471 504.673 218.988C506.948 217.922 509.005 216.453 510.745 214.659C511.624 215.162 512.533 215.605 513.465 215.988C514.198 217.531 515.057 219.011 516.032 220.414H507.937L502.604 229.471L501.409 231.471C499.557 230.012 497.623 228.661 495.615 227.425ZM312.374 205.724L315.015 199.149C315.638 200.76 316.465 202.291 317.478 203.701L317.96 204.391L318.512 205.034L318.673 205.218L321.524 209.816H324.742C325.861 210.392 327.029 210.859 328.232 211.213C328.88 213.454 329.907 215.571 331.271 217.471L331.753 218.161L332.305 218.804L332.466 218.988L335.317 223.586H338.535C338.835 223.74 339.138 223.887 339.445 224.025L333.248 225.517C330.048 226.189 327.049 227.598 324.489 229.632C321.015 232.458 318.528 236.314 317.386 240.644C313.307 235.08 308.077 230.462 302.052 227.103C299.633 225.737 297.135 224.525 294.574 223.472L294.65 223.448C297.497 222.577 300.167 221.207 302.535 219.402C304.687 217.807 306.565 215.874 308.098 213.678C309.376 211.85 310.412 209.864 311.179 207.77C311.478 207.08 311.753 206.391 312.029 205.655L312.374 205.724ZM143.041 145.793C143.044 146.481 143.062 147.168 143.096 147.855C143.252 147.718 143.402 147.575 143.547 147.425C144.478 146.542 145.255 145.508 145.845 144.368C146.714 142.566 147.414 140.689 147.937 138.758C148.521 136.496 148.921 134.189 149.133 131.862V131.54C149.314 129.668 149.421 127.791 149.452 125.911C148.79 126.672 148.213 127.503 147.73 128.391C146.723 130.252 145.862 132.189 145.156 134.184C144.492 136.183 143.97 138.226 143.592 140.299C143.29 142.116 143.106 143.952 143.041 145.793Z" fill="black"/>
<path d="M110.948 131.862C110.951 136.233 111.398 140.593 112.281 144.874C113.152 148.995 114.706 152.943 116.879 156.552C119.013 160 121.936 162.892 125.408 164.989C129.388 167.298 133.934 168.452 138.534 168.322C142.158 168.175 145.722 167.348 149.04 165.885C151.992 164.538 154.666 162.651 156.925 160.322C159.132 158.041 160.977 155.436 162.396 152.598C163.834 149.654 164.974 146.573 165.799 143.402C166.649 140.162 167.226 136.855 167.523 133.517C167.865 130.295 168.041 127.057 168.052 123.816C168.06 119.657 167.488 115.518 166.35 111.517C165.297 107.704 163.56 104.113 161.224 100.92C158.951 97.8754 156.04 95.3647 152.695 93.5633C149.045 91.6402 144.957 90.6976 140.833 90.8277C137.524 90.7751 134.244 91.45 131.224 92.8047C128.424 94.1182 125.873 95.9071 123.684 98.0921C121.384 100.311 119.418 102.851 117.845 105.632C116.285 108.453 114.962 111.398 113.891 114.437C112.891 117.4 112.122 120.436 111.592 123.517C111.181 126.28 110.966 129.069 110.948 131.862V131.862ZM128.442 197.77C120.113 197.926 111.855 196.205 104.281 192.736C97.4118 189.534 91.2941 184.92 86.3274 179.196C81.4 173.32 77.597 166.587 75.109 159.333C72.5089 151.64 71.2038 143.569 71.2469 135.448C71.152 126.64 72.4873 117.875 75.2009 109.494C77.7163 101.874 81.5099 94.7382 86.4193 88.3909C91.1644 82.2705 96.9359 77.0201 103.477 72.8737C110.202 68.5884 117.566 65.3992 125.293 63.4254C126.029 63.4254 126.557 62.8737 126.925 61.7242C127.371 60.5014 127.732 59.2494 128.006 57.9771C128.268 56.6943 128.629 55.4338 129.086 54.207C129.5 53.0806 130.097 52.5059 130.879 52.5059C141.504 53.502 152.001 55.566 162.212 58.6668C170.826 61.1901 178.852 65.4021 185.822 71.0576C192.353 76.5704 197.429 83.6044 200.603 91.5403C204.32 101.125 206.087 111.356 205.799 121.632C205.86 128.857 204.94 136.057 203.063 143.035C201.295 149.553 198.666 155.807 195.247 161.632C191.937 167.231 187.859 172.338 183.132 176.805C178.447 181.252 173.19 185.056 167.5 188.115C161.641 191.275 155.397 193.662 148.925 195.218C142.2 196.925 135.288 197.782 128.35 197.77H128.442ZM281.546 185.195C281.247 185.977 280.948 186.736 280.649 187.494C280.428 188.202 280.094 188.87 279.661 189.471C279.22 190.096 278.676 190.64 278.052 191.081C277.364 191.609 276.584 192.006 275.753 192.253C271.96 193.448 268.235 194.552 264.511 195.31C260.787 196.069 257.063 197.287 253.293 198.529C252.677 198.752 252.047 198.936 251.408 199.081C250.91 199.193 250.401 199.255 249.891 199.264C249.471 199.298 249.048 199.241 248.652 199.098C248.256 198.956 247.894 198.73 247.592 198.437C247.084 197.843 246.715 197.145 246.511 196.391L215.638 74.207C215.214 72.961 214.974 71.66 214.925 70.3449C214.902 69.7502 215.002 69.157 215.219 68.603C215.437 68.049 215.767 67.5462 216.189 67.1265C217.297 66.0185 218.689 65.2388 220.212 64.8737C222.602 64.1661 225.037 63.6208 227.5 63.2415C230.488 62.7817 234.143 62.23 238.442 61.6323C240.542 61.3411 242.312 61.1342 243.753 61.0116C244.972 60.8432 246.2 60.751 247.431 60.7357C248.639 60.5717 249.863 60.8942 250.833 61.6323C251.559 62.3694 252.116 63.2559 252.465 64.23L269.569 138.437L293.73 70.276C294.075 69.3105 294.373 68.5518 294.626 67.9771C294.97 67.3258 295.497 66.7901 296.143 66.4369C297.212 65.841 298.357 65.3925 299.546 65.1036C301.109 64.6208 303.339 64.0691 306.212 63.4714C310.695 62.5288 314.396 61.8392 317.339 61.4024C319.69 61.0369 322.063 60.8295 324.442 60.7817C325.953 60.6227 327.477 60.902 328.833 61.5863C329.181 61.8574 329.461 62.207 329.649 62.6064C329.836 63.0059 329.927 63.444 329.914 63.8852C329.958 64.3473 329.862 64.8121 329.638 65.2185C329.454 65.6553 329.247 66.184 329.017 66.8507L281.546 185.195ZM411.753 118.529C411.382 119.751 410.937 120.948 410.419 122.115C409.753 123.609 408.971 125.31 408.121 127.241C407.27 129.173 406.373 131.218 405.339 133.425L402.465 139.977C402.21 140.642 401.878 141.274 401.477 141.862C401.097 142.277 400.6 142.566 400.052 142.69C399.138 142.895 398.206 143.01 397.27 143.035H392.419L379.937 143.31L377.408 170.782H423.385V174.276C423.385 174.414 422.764 175.218 421.868 176.713C420.971 178.207 419.914 179.885 418.718 181.931C417.523 183.977 416.258 186.023 414.948 188.115C413.638 190.207 412.534 191.793 411.638 193.058C411.13 194.027 410.425 194.881 409.569 195.563C408.804 196.221 407.912 196.714 406.948 197.012C405.966 197.329 404.945 197.507 403.914 197.54C402.833 197.54 401.615 197.54 400.304 197.54C394.925 197.54 389.301 197.418 383.431 197.173C377.615 196.943 371.937 196.644 366.006 196.276C360.075 195.908 354.511 195.517 348.948 195.035C343.385 194.552 338.327 194.161 333.592 193.678C333.126 193.594 332.708 193.34 332.419 192.966C332.115 192.546 331.961 192.036 331.983 191.517C331.73 191.517 331.983 191.012 332.419 190C332.856 188.989 333.822 187.701 334.856 186.046C335.891 184.391 336.971 182.598 338.166 180.575C339.362 178.552 340.626 176.391 341.776 174.276L343.132 154.299C343.362 150.897 343.546 148.345 343.661 146.667C343.776 144.989 343.937 144.092 343.937 143.977C341.238 143.991 338.542 143.814 335.868 143.448C334.12 143.15 333.247 142.483 333.247 141.471C333.468 140.494 333.899 139.576 334.511 138.782C335.408 137.448 336.488 135.954 337.753 134.184C339.017 132.414 340.327 130.667 341.707 128.805C343.086 126.943 344.396 125.241 345.477 123.678L347.776 93.1495H347.523L343.914 93.3334H340.833C338.762 93.4013 336.69 93.2549 334.649 92.8967C333.454 92.5288 332.856 91.9082 332.856 90.9886C333.044 90.0606 333.411 89.1781 333.937 88.3909C334.657 87.0882 335.553 85.5557 336.626 83.7932C337.707 82.0461 338.925 80.253 340.029 78.4139C341.132 76.5748 342.327 74.7128 343.27 73.1036L348.649 63.9082H386.189L430.488 60.9197H430.925C431.244 60.9258 431.555 61.0214 431.822 61.1955C432.164 61.3425 432.453 61.5913 432.649 61.9082C432.969 62.3465 433.124 62.8839 433.086 63.4254L431.73 68.0231C431.316 69.3564 430.81 70.7587 430.212 72.253C429.615 73.7472 428.948 75.1955 428.235 76.7357L424.281 87.1495C423.963 88.0024 423.478 88.7837 422.856 89.4484C421.845 90.1186 420.64 90.434 419.431 90.3449C414.833 90.4522 409.745 90.6591 404.167 90.9656C398.603 91.2185 392.189 91.4484 384.948 91.7013C384.745 92.3654 384.629 93.0532 384.603 93.7472C384.603 94.23 384.603 95.1955 384.419 96.6208L383.96 100.759C383.845 102.69 383.661 104.736 383.431 106.966C383.201 109.196 382.879 111.908 382.534 115.127L391.408 114.989C394.327 114.851 396.994 114.759 399.385 114.713L405.592 114.437H409.362C409.939 114.469 410.496 114.66 410.971 114.989C411.293 115.216 411.546 115.526 411.704 115.887C411.862 116.247 411.919 116.644 411.868 117.035C411.87 117.555 411.801 118.073 411.661 118.575L411.753 118.529ZM484.764 185.862C484.705 186.416 484.589 186.963 484.419 187.494C484.326 187.766 484.172 188.013 483.969 188.216C483.766 188.42 483.519 188.574 483.247 188.667L479.661 190C477.546 190.713 475.063 191.586 472.281 192.598L464.029 195.471L457.822 197.77C456.945 198.124 456.046 198.424 455.132 198.667C454.153 199.03 453.118 199.216 452.075 199.218C451.261 199.237 450.461 199.013 449.776 198.575C449.451 198.293 449.199 197.937 449.043 197.536C448.887 197.136 448.83 196.703 448.879 196.276C448.879 193.632 448.879 191.241 449.04 189.081C449.201 186.92 449.431 184.483 449.684 182.184C449.937 179.885 450.167 177.173 450.396 174.299C450.626 171.425 450.971 167.885 451.201 163.862C451.5 158.598 451.845 153.54 452.19 148.69C452.534 143.839 452.902 138.69 453.27 133.425L454.534 118.069C454.718 115.563 454.879 113.012 455.063 110.437C455.247 107.862 455.431 105.104 455.615 102.368L456.603 91.4024C456.603 91.2875 456.419 91.2185 456.052 91.2185C455.238 91.2736 454.431 91.3966 453.638 91.5863C452.488 91.7702 451.155 92.0001 449.592 92.299L444.373 93.2875L438.626 94.184C438.138 94.1793 437.655 94.0858 437.201 93.9082C436.787 93.6783 436.58 93.4024 436.58 93.1036C436.563 92.9131 436.621 92.7235 436.741 92.5748L451.178 67.1725C454.465 66.4599 458.075 65.7472 461.776 65.0346C465.477 64.3219 469.707 63.5633 474.075 62.9656C478.442 62.3679 483.086 61.8852 488.006 61.5174C492.925 61.1495 498.121 60.8967 503.615 60.8967C509.704 61.0045 515.772 61.6352 521.753 62.7817C527.274 63.7201 532.594 65.602 537.477 68.3449C542.021 70.857 545.832 74.5095 548.534 78.9426C551.517 84.0594 552.976 89.9214 552.741 95.8392C552.776 99.407 552.105 102.946 550.764 106.253C549.549 109.354 547.883 112.258 545.822 114.874C543.882 117.344 541.686 119.602 539.27 121.609C537.077 123.392 534.773 125.035 532.373 126.529C530.521 127.746 528.603 128.859 526.626 129.862C524.948 130.644 523.822 131.15 523.224 131.379C523.195 131.531 523.195 131.687 523.224 131.839C523.339 132.023 523.546 132.368 523.845 132.92C524.144 133.471 524.557 134.115 525.109 135.081C525.661 136.046 526.442 137.218 527.408 138.851C528.373 140.483 529.5 142.184 530.81 144.598C532.121 147.012 533.684 149.816 535.408 153.127C537.132 156.437 539.385 160.023 541.776 163.977C544.167 167.931 546.925 172.299 550.052 176.92C551.033 177.804 552.244 178.393 553.546 178.621C554.856 178.805 556.098 178.92 557.224 178.989C558.185 178.969 559.147 179.03 560.098 179.173C560.879 179.173 561.27 179.586 561.27 180.23C561.27 180.874 560.764 181.287 559.753 181.954C558.741 182.621 557.661 183.173 556.327 183.839C554.994 184.506 553.661 185.127 552.281 185.724L549.247 187.15C547.799 187.862 546.304 188.552 544.649 189.218C542.994 189.885 541.431 190.621 539.638 191.517C537.845 192.414 535.822 193.219 533.615 194.299C531.408 195.379 529.017 196.598 526.258 198.161C525.618 198.542 524.919 198.814 524.189 198.966C523.639 199.141 523.066 199.234 522.488 199.241C521.49 199.267 520.509 198.977 519.684 198.414C518.914 197.951 518.243 197.342 517.707 196.621C517.185 195.902 516.738 195.132 516.373 194.322C516.075 193.586 515.799 192.989 515.569 192.529L489.086 136.138L484.764 185.862ZM490.258 125.127C493.562 125.076 496.813 124.29 499.776 122.828C503.047 121.287 506.069 119.264 508.741 116.828C511.399 114.421 513.644 111.594 515.385 108.46C517.064 105.6 517.967 102.351 518.006 99.0346C518.006 90.3603 512.795 86.0231 502.373 86.0231C500.715 85.9899 499.058 86.1364 497.431 86.4599C496.113 86.7051 494.917 86.889 493.845 87.0116L490.258 125.127ZM186.373 274.552C186.362 279.192 185.845 283.817 184.833 288.345C184.02 292.182 182.698 295.893 180.902 299.379C179.249 302.587 177.161 305.55 174.695 308.184C172.151 310.865 169.356 313.297 166.35 315.448C160.362 319.747 153.716 323.047 146.672 325.218C139.722 327.353 132.494 328.445 125.224 328.46C124.029 328.46 122.81 328.46 121.615 328.46C120.419 328.46 119.316 328.322 118.12 328.184L115.155 360.966L113.638 363.724C112.714 364.387 111.678 364.877 110.58 365.173C108.672 365.885 106.258 366.713 103.385 367.678L97.7297 369.563L92.9711 371.356C91.5917 371.908 90.3044 372.391 89.109 372.805C87.9719 373.203 86.8029 373.503 85.6147 373.701C84.4336 373.934 83.2324 374.05 82.0285 374.046C81.3158 374.088 80.6125 373.867 80.0515 373.425C79.7827 373.11 79.5792 372.744 79.4529 372.35C79.3266 371.955 79.28 371.539 79.3159 371.127L80.3044 355.77C80.4883 352.713 80.6952 349.655 80.9481 346.575C81.2009 343.494 81.5228 339.931 81.7527 335.977L83.4538 314.529C83.8216 310.161 84.1511 305.786 84.4423 301.402C84.7335 297.019 85.0324 292.858 85.3389 288.92C85.6377 284.989 85.9136 281.287 86.1435 277.885C86.3734 274.483 86.6032 271.379 86.7872 268.805C83.5458 269.54 80.9481 270.069 78.9711 270.437C77.5124 270.69 76.0372 270.836 74.5573 270.874C73.3159 270.874 72.6722 270.345 72.6722 269.264C73.5151 266.322 74.2814 263.448 74.9711 260.644C75.6377 258.345 76.2814 255.793 76.9481 253.287L78.7412 246.805C78.9552 245.994 79.2883 245.219 79.7297 244.506C80.1124 243.933 80.6345 243.466 81.2469 243.15C82.0239 242.762 82.841 242.462 83.6837 242.253L87.3619 241.104C88.927 240.632 90.5153 240.241 92.1205 239.931C94.2124 239.448 96.5803 238.989 99.2239 238.575C101.868 238.161 104.81 237.655 107.937 237.241C111.063 236.828 114.189 236.46 117.362 236.161C120.534 235.862 123.753 235.517 126.879 235.356C130.006 235.196 132.925 234.989 135.684 234.989C142.191 234.954 148.684 235.586 155.063 236.874C160.791 237.976 166.254 240.169 171.155 243.333C175.815 246.291 179.626 250.411 182.212 255.287C185.143 261.256 186.542 267.861 186.281 274.506L186.373 274.552ZM120.626 301.448C120.624 302.065 120.749 302.676 120.994 303.241C121.224 303.724 121.891 303.977 122.971 303.977C124.991 303.913 126.99 303.549 128.902 302.897C131.337 302.053 133.655 300.902 135.799 299.471C138.192 297.915 140.365 296.044 142.258 293.908C144.269 291.635 145.794 288.975 146.741 286.092C147.23 284.598 147.561 283.057 147.73 281.494C148.055 279.326 148.208 277.135 148.189 274.943C148.313 273.159 147.971 271.374 147.198 269.762C146.424 268.15 145.245 266.766 143.776 265.747C140.395 263.63 136.449 262.596 132.465 262.782C131.566 262.785 130.668 262.838 129.776 262.943C128.836 263.012 127.905 263.166 126.994 263.402C126.234 263.596 125.506 263.898 124.833 264.299C124.572 264.405 124.343 264.577 124.17 264.799C123.997 265.021 123.884 265.285 123.845 265.563L123.661 267.54C123.661 268.322 123.477 269.609 123.316 271.402C123.155 273.195 122.925 275.127 122.672 277.402C122.419 279.678 122.281 282 122.052 284.598C121.822 287.196 121.661 289.494 121.431 291.77C121.201 294.046 121.063 296.069 120.879 297.793C120.695 299.517 120.695 300.736 120.626 301.448ZM240.166 360.621C240.099 361.176 239.976 361.723 239.799 362.253C239.709 362.527 239.556 362.775 239.352 362.979C239.148 363.182 238.9 363.335 238.626 363.425C238.396 363.425 237.201 363.977 235.04 364.759C232.879 365.54 230.442 366.345 227.684 367.356L219.408 370.23L213.224 372.529C212.346 372.88 211.447 373.179 210.534 373.425C209.553 373.777 208.519 373.956 207.477 373.954C206.666 373.977 205.867 373.761 205.178 373.333C204.853 373.052 204.601 372.696 204.445 372.295C204.289 371.894 204.233 371.462 204.281 371.035C204.281 368.391 204.281 366 204.465 363.839C204.649 361.678 204.856 359.242 205.086 356.943C205.316 354.644 205.569 351.931 205.799 349.058C206.029 346.184 206.373 342.644 206.626 338.621C206.933 333.349 207.262 328.291 207.615 323.448C207.96 318.552 208.327 313.448 208.672 308.184L209.937 292.828C210.12 290.322 210.304 287.77 210.488 285.195C210.672 282.621 210.833 279.862 211.017 277.127L212.006 266.161C212.006 266.161 211.822 265.977 211.477 265.977C210.655 266.022 209.839 266.145 209.04 266.345C207.914 266.529 206.557 266.759 204.994 267.058L199.799 268.046L194.052 268.943C193.556 268.94 193.065 268.847 192.603 268.667C192.189 268.437 191.983 268.161 191.983 267.862C191.972 267.669 192.038 267.479 192.166 267.333L206.672 241.885C209.96 241.173 213.569 240.46 217.247 239.747C220.925 239.035 225.201 238.276 229.569 237.678C233.937 237.081 238.58 236.598 243.477 236.23C248.373 235.862 253.592 235.609 259.109 235.609C265.198 235.717 271.266 236.348 277.247 237.494C282.763 238.429 288.075 240.311 292.948 243.058C297.492 245.57 301.303 249.222 304.006 253.655C306.985 258.765 308.444 264.619 308.212 270.529C308.286 274.097 307.653 277.644 306.35 280.966C305.126 284.062 303.461 286.965 301.408 289.586C299.469 292.057 297.272 294.315 294.856 296.322C292.655 298.094 290.352 299.737 287.96 301.241C285.799 302.621 283.891 303.724 282.212 304.575C280.534 305.425 279.385 305.862 278.787 306.092C278.77 306.245 278.77 306.399 278.787 306.552C278.787 306.736 279.132 307.081 279.431 307.632C279.73 308.184 280.143 308.828 280.672 309.793C281.201 310.759 282.029 311.931 282.971 313.563C283.914 315.195 285.063 316.897 286.373 319.31C287.684 321.724 289.247 324.529 290.971 327.839C292.695 331.15 294.971 334.736 297.362 338.69C299.753 342.644 302.511 347.012 305.615 351.632C306.602 352.521 307.822 353.111 309.132 353.333C310.442 353.517 311.661 353.632 312.81 353.701C313.771 353.687 314.731 353.741 315.684 353.862C316.465 353.862 316.833 354.299 316.833 354.943C316.833 355.586 316.327 356 315.316 356.667C314.304 357.333 313.224 357.885 311.914 358.552C310.603 359.219 309.247 359.839 307.868 360.437L304.81 361.862C303.385 362.575 301.868 363.264 300.212 363.931C298.557 364.598 296.971 365.333 295.178 366.23C293.385 367.127 291.385 367.931 289.155 369.012C286.925 370.092 284.557 371.31 281.799 372.874C281.162 373.262 280.462 373.535 279.73 373.678C279.179 373.854 278.606 373.947 278.029 373.954C277.036 373.986 276.06 373.695 275.247 373.127C274.469 372.674 273.796 372.063 273.27 371.333C272.738 370.617 272.283 369.847 271.914 369.035C271.678 368.423 271.41 367.824 271.109 367.241L244.465 310.851L240.166 360.621ZM245.638 299.839C248.942 299.794 252.194 299.008 255.155 297.54C258.43 295.994 261.459 293.972 264.143 291.54C266.795 289.128 269.039 286.302 270.787 283.173C272.449 280.306 273.344 277.06 273.385 273.747C273.385 265.073 268.174 260.736 257.753 260.736C256.094 260.703 254.437 260.849 252.81 261.173C251.492 261.418 250.297 261.602 249.224 261.724L245.638 299.839ZM325.822 370.621L330.304 309.196C331.837 288.598 332.948 273.479 333.638 263.839C334.327 254.199 334.688 249.41 334.718 249.471C334.718 248.414 334.718 247.494 334.902 246.782C334.928 246.17 335.044 245.566 335.247 244.989C335.395 244.571 335.648 244.199 335.983 243.908C336.38 243.632 336.837 243.451 337.316 243.379L368.419 236C369.163 235.763 369.938 235.639 370.718 235.632C371.049 235.593 371.384 235.647 371.685 235.79C371.985 235.932 372.24 236.156 372.419 236.437C372.873 237.422 373.078 238.503 373.017 239.586C372.603 243.287 372.258 246.759 372.029 250C371.799 253.241 371.569 256.322 371.408 259.196C371.247 262.069 371.155 264.989 371.04 267.724C370.925 270.46 370.764 273.127 370.58 275.816C370.396 278.506 369.891 281.678 369.592 284.621C369.293 287.563 369.132 290.598 368.879 293.816C368.626 297.035 368.373 300.253 368.075 303.793C367.776 307.333 367.546 311.058 367.178 315.287L363.224 362.621C363.165 363.17 363.041 363.71 362.856 364.23C362.767 364.5 362.617 364.746 362.418 364.95C362.218 365.153 361.975 365.308 361.707 365.402C361.339 365.492 360.978 365.607 360.626 365.747L358.029 366.736C356.94 367.104 355.676 367.494 354.235 367.908C352.81 368.322 351.293 368.713 349.638 369.081C346.948 369.678 344.58 370.276 342.557 370.874L337.247 372.483C335.84 372.989 334.405 373.412 332.948 373.747C331.65 374.039 330.324 374.185 328.994 374.184C328.167 374.228 327.352 373.975 326.695 373.471C326.327 373.104 326.055 372.652 325.903 372.155C325.75 371.658 325.723 371.131 325.822 370.621V370.621ZM384.649 307.035C384.622 300.649 385.394 294.286 386.948 288.092C388.536 282.144 390.852 276.415 393.845 271.035C396.745 265.81 400.307 260.98 404.442 256.667C412.882 248.023 423.452 241.759 435.086 238.506C441.288 236.811 447.691 235.968 454.121 236C458.74 235.949 463.356 236.303 467.914 237.058C471.458 237.608 474.944 238.486 478.327 239.678C480.937 240.511 483.438 241.653 485.776 243.081C487.543 244.145 489.226 245.344 490.81 246.667C490.81 246.667 490.81 246.897 490.81 247.31C490.81 248.207 490.81 249.839 490.994 252.253C491.178 254.667 491.339 257.31 491.523 260.23C491.707 263.15 491.937 266.161 492.075 269.218C492.212 272.276 492.327 274.805 492.327 277.035C492.306 277.469 492.189 277.893 491.983 278.276C491.73 278.713 491.132 278.92 490.19 278.92C489.522 278.905 488.859 278.812 488.212 278.644C486.528 278.101 484.926 277.327 483.454 276.345C481.286 274.872 479.037 273.521 476.718 272.299C474.003 270.772 471.147 269.509 468.189 268.529C464.9 267.358 461.428 266.782 457.937 266.828C453.433 266.769 448.974 267.721 444.888 269.615C440.802 271.509 437.193 274.296 434.327 277.77C431.395 281.391 429.172 285.532 427.776 289.977C426.183 294.938 425.407 300.124 425.477 305.333C425.466 310.085 426.006 314.821 427.086 319.448C428.049 323.574 429.688 327.513 431.937 331.104C434.056 334.354 436.846 337.113 440.121 339.196C443.601 341.234 447.582 342.261 451.615 342.161C455.017 342.161 458.052 342.161 460.672 341.793C463.158 341.589 465.625 341.197 468.052 340.621C470.321 340.093 472.543 339.378 474.695 338.483C477.12 337.479 479.484 336.336 481.776 335.058C482.081 335.015 482.39 335.015 482.695 335.058C482.872 335.045 483.048 335.092 483.194 335.192C483.34 335.293 483.448 335.44 483.5 335.609C483.718 336.244 483.804 336.917 483.753 337.586V348.345C483.753 350.322 483.753 352.276 483.753 354.184C483.753 356.092 483.753 357.724 483.753 359.218C483.753 360.713 483.753 361.954 483.753 362.897C483.823 363.346 483.823 363.804 483.753 364.253C480.964 366.003 477.978 367.415 474.856 368.46C471.707 369.621 468.46 370.498 465.155 371.081C461.871 371.734 458.545 372.149 455.201 372.322C451.845 372.575 448.603 372.69 445.5 372.69C437.473 372.789 429.514 371.22 422.126 368.082C414.737 364.944 408.082 360.305 402.58 354.46C397.022 348.459 392.688 341.431 389.822 333.77C386.43 325.287 384.675 316.239 384.649 307.104V307.035ZM581.385 293.241C581.004 294.46 580.559 295.657 580.052 296.828C579.385 298.322 578.603 300.023 577.753 301.954C576.902 303.885 575.983 305.931 574.971 308.138C573.96 310.345 573.063 312.483 572.098 314.69C571.833 315.35 571.502 315.982 571.109 316.575C570.729 316.989 570.232 317.278 569.684 317.402C568.762 317.609 567.823 317.724 566.879 317.747C565.753 317.747 564.144 317.747 562.052 317.747L549.569 318.023L547.04 345.494H593.017V348.989C592.902 349.127 592.396 349.931 591.5 351.425C590.603 352.92 589.546 354.598 588.35 356.621C587.155 358.644 585.891 360.736 584.58 362.828C583.27 364.92 582.144 366.506 581.247 367.77C580.739 368.734 580.043 369.586 579.201 370.276C578.436 370.933 577.544 371.426 576.58 371.724C575.591 372.044 574.562 372.222 573.523 372.253C572.465 372.253 571.224 372.253 569.937 372.253C564.557 372.253 558.933 372.13 553.063 371.885C547.247 371.655 541.454 371.356 535.638 370.989C529.822 370.621 524.144 370.23 518.58 369.747C513.017 369.264 507.96 368.874 503.224 368.391C502.758 368.307 502.341 368.053 502.052 367.678C501.747 367.259 501.593 366.748 501.615 366.23C501.362 366.23 501.615 365.724 502.052 364.713C502.488 363.701 503.454 362.414 504.488 360.759C505.523 359.104 506.603 357.31 507.799 355.287C508.994 353.264 510.258 351.104 511.385 348.989L512.833 328.782C513.063 325.379 513.247 322.828 513.362 321.15C513.477 319.471 513.638 318.575 513.638 318.46C510.931 318.472 508.228 318.296 505.546 317.931C503.822 317.632 502.948 316.966 502.948 315.954C503.16 314.973 503.592 314.053 504.213 313.264C505.109 311.931 506.19 310.437 507.431 308.667L511.385 303.287C512.833 301.425 514.098 299.724 515.155 298.161L517.454 267.632H517.178L513.592 267.816H510.626C508.554 267.892 506.48 267.738 504.442 267.356C503.247 267.012 502.649 266.391 502.649 265.471C502.836 264.547 503.194 263.666 503.707 262.874C504.442 261.563 505.339 260.069 506.419 258.276C507.5 256.483 508.718 254.736 509.822 252.874C510.925 251.012 512.121 249.196 513.063 247.586L518.442 238.391H555.983L600.258 235.15H600.695C601.014 235.156 601.325 235.251 601.592 235.425C601.931 235.568 602.214 235.819 602.396 236.138C602.725 236.573 602.888 237.111 602.856 237.655L601.5 242.253C601.086 243.586 600.58 244.989 599.983 246.483C599.385 247.977 598.718 249.425 598.006 251.081L594.052 261.494C593.733 262.347 593.248 263.129 592.626 263.793C591.615 264.463 590.411 264.779 589.201 264.69C584.603 264.812 579.515 265.019 573.937 265.31C568.373 265.563 561.96 265.793 554.718 266.046C554.515 266.71 554.399 267.398 554.373 268.092C554.373 268.575 554.373 269.54 554.189 270.966L553.73 275.104C553.615 277.012 553.431 279.081 553.201 281.31C552.971 283.54 552.649 286.253 552.304 289.471L561.178 289.127C564.121 288.989 566.787 288.897 569.178 288.851L575.385 288.575C577.178 288.575 578.419 288.575 579.155 288.575C579.731 288.61 580.288 288.801 580.764 289.127C581.086 289.354 581.339 289.664 581.497 290.025C581.655 290.385 581.712 290.782 581.661 291.173C581.704 291.889 581.611 292.606 581.385 293.287V293.241ZM610.672 372.437C610.369 372.4 610.08 372.291 609.828 372.119C609.576 371.947 609.369 371.717 609.224 371.448C608.923 370.899 608.773 370.281 608.787 369.655C608.781 369.151 608.9 368.654 609.132 368.207L620.189 347.127C620.189 346.874 620.327 345.954 620.465 344.322C620.603 342.69 620.81 340.713 620.994 338.322C621.178 335.931 621.362 333.127 621.523 330.138C621.684 327.15 622.006 324.184 622.259 321.264C622.511 318.345 622.695 315.54 622.879 312.897C623.063 310.253 623.339 307.954 623.5 306.161C623.5 305.448 623.661 304.368 623.776 302.943C623.891 301.517 624.006 299.724 624.144 297.816C624.281 295.908 624.396 293.839 624.58 291.609L625.132 284.966L626.373 266.207L621.362 267.379C619.615 267.724 617.914 268.069 616.235 268.368L611.638 269.173C610.388 269.343 609.129 269.435 607.868 269.448C607.553 269.456 607.243 269.376 606.971 269.218C606.699 269.06 606.476 268.829 606.327 268.552C606.037 267.966 605.888 267.321 605.891 266.667C605.842 266.046 606.031 265.43 606.419 264.943L629.224 243.678C630.903 242.133 632.745 240.777 634.718 239.632C636.793 238.46 639.033 237.608 641.362 237.104C644.462 236.435 647.617 236.05 650.787 235.954C654.557 235.709 659.316 235.586 665.063 235.586C673.872 235.461 682.659 236.489 691.201 238.644C698.109 240.365 704.65 243.316 710.511 247.356C714.203 249.885 717.685 252.707 720.925 255.793C727.047 261.642 731.377 269.114 733.408 277.333C734.539 282.068 735.08 286.925 735.017 291.793C735.173 301.102 733.615 310.359 730.419 319.104C727.541 326.766 723.313 333.851 717.937 340.023C712.637 345.986 706.431 351.075 699.546 355.104C692.435 359.289 684.879 362.667 677.017 365.173C668.939 367.763 660.646 369.625 652.235 370.736C643.929 371.852 635.559 372.42 627.178 372.437H610.672ZM662.833 264.391L661.753 275.264C661.408 279.035 661.017 283.058 660.603 287.379C660.19 291.701 659.868 295.977 659.523 300.391C659.178 304.805 658.787 309.104 658.442 313.425C658.098 317.747 657.753 321.655 657.454 325.356C657.155 329.058 656.879 332.391 656.649 335.333C656.419 338.276 656.19 340.598 656.006 342.345L655.753 345.035C662.067 345.233 668.348 344.032 674.144 341.517C678.942 339.368 683.135 336.067 686.35 331.908C689.545 327.599 691.836 322.688 693.086 317.471C694.556 311.656 695.282 305.677 695.247 299.678C695.26 295.24 694.617 290.825 693.339 286.575C692.079 282.298 690.238 278.214 687.868 274.437C685.717 270.858 682.686 267.89 679.063 265.816C675.458 263.869 671.413 262.88 667.316 262.943C666.52 262.969 665.738 263.156 665.017 263.494C664.268 263.729 663.538 264.021 662.833 264.368V264.391Z" fill="#FAFF01"/>
<path d="M250.473 67.9729L270.331 77.1459L288.161 63.0102L305.076 75.3423L325.642 64.071L338.962 79.0884L361.473 71.1146L370.688 88.2402L394.278 83.8705L399.033 102.446L422.797 101.848L422.91 121.16L445.933 124.357L441.399 143.663L462.798 150.532L453.791 169.09L472.743 179.367L459.61 196.464L475.386 209.754L458.631 224.733L470.626 240.526L450.893 252.811L458.645 270.499L436.692 279.618L439.904 298.522L416.575 304.125L415.123 323.518L391.315 325.39L385.254 344.527L361.882 342.595L351.446 360.74L329.407 355.079L314.997 371.536L295.139 362.363L277.309 376.499L260.394 364.167L239.828 375.438L226.508 360.42L203.997 368.394L194.782 351.269L171.192 355.638L166.437 337.063L142.673 337.661L142.56 318.349L119.537 315.152L124.071 295.846L102.672 288.977L111.679 270.419L92.727 260.142L105.86 243.045L90.0839 229.755L106.839 214.776L94.8443 198.983L114.577 186.698L106.825 169.01L128.778 159.891L125.566 140.987L148.895 135.384L150.347 115.991L174.155 114.119L180.216 94.9822L203.588 96.9142L214.024 78.7686L236.063 84.4298L250.473 67.9729Z" fill="#E412B6"/>
<path d="M151.809 208.805L177.875 203.265L176.981 199.055L155.286 203.667L148.151 170.099L143.78 171.029L151.809 208.805Z" fill="black"/>
<path d="M188.274 201.055L214.718 195.434L213.823 191.224L202.814 193.564L196.574 164.206L207.583 161.866L206.688 157.657L180.244 163.278L181.139 167.487L192.202 165.136L198.442 194.494L187.379 196.845L188.274 201.055Z" fill="black"/>
<path d="M223.713 193.522L227.923 192.627L221.935 164.456L222.259 164.387L235.046 191.113L241.306 189.782L242.118 160.166L242.442 160.097L248.43 188.268L252.639 187.373L244.61 149.596L238.458 150.904L237.317 185.61L236.994 185.679L221.836 154.437L215.684 155.745L223.713 193.522Z" fill="black"/>
<path d="M261.635 185.461L288.079 179.84L287.184 175.631L276.175 177.971L269.935 148.613L280.944 146.273L280.049 142.064L253.605 147.684L254.5 151.894L265.563 149.542L271.803 178.9L260.74 181.252L261.635 185.461Z" fill="black"/>
<path d="M309.379 175.313L313.75 174.384L306.569 140.601L318.766 138.008L317.917 134.015L289.153 140.129L290.001 144.122L302.198 141.53L309.379 175.313Z" fill="black"/>
<path d="M337.155 169.409L359.281 164.706L358.444 160.766L340.689 164.54L337.855 151.21L352.642 148.067L351.805 144.128L337.018 147.271L334.345 134.697L351.507 131.049L350.658 127.055L329.125 131.632L337.155 169.409Z" fill="black"/>
<path d="M372.432 161.91L383.28 159.605C391.59 157.838 396.275 151.484 394.623 143.713L392.191 132.272C390.54 124.501 383.561 120.062 375.25 121.828L364.402 124.134L372.432 161.91ZM375.978 157.096L369.611 127.144L376.087 125.768C382.779 124.345 386.899 128.602 387.931 133.459L390.249 144.361C391.292 149.272 389.199 154.285 382.454 155.719L375.978 157.096Z" fill="black"/>
<path d="M178.563 269.658C186.82 267.903 190.668 262.121 189.406 256.185C186.159 240.912 166.746 252.541 164.555 242.233C163.89 239.103 165.579 235.641 170.922 234.506C176.049 233.416 179.471 235.452 180.389 239.77L184.868 238.818C183.205 230.993 175.848 229.285 170.127 230.501C162.518 232.118 159.037 237.765 160.184 243.162C163.396 258.273 182.526 245.577 185.038 257.395C185.875 261.335 182.83 264.52 177.865 265.576C172.144 266.792 167.837 264.041 166.908 259.67L162.536 260.599C164.028 267.614 171.062 271.252 178.563 269.658Z" fill="black"/>
<path d="M202.304 263.878L206.676 262.949L203.498 248L212.727 246.039C219.364 244.628 223.277 238.889 221.832 232.089C220.375 225.235 214.728 221.754 207.874 223.211L194.275 226.101L202.304 263.878ZM202.672 244.115L199.472 229.058L208.322 227.177C212.856 226.213 216.435 228.724 217.353 233.041C218.282 237.412 216.056 241.27 211.523 242.233L202.672 244.115Z" fill="black"/>
<path d="M240.496 255.76L262.622 251.057L261.785 247.118L244.03 250.891L241.197 237.562L255.983 234.419L255.146 230.479L240.359 233.622L237.686 221.048L254.848 217.4L253.999 213.407L232.466 217.983L240.496 255.76Z" fill="black"/>
<path d="M288.389 246.314C296.376 244.616 300.895 238.015 299.767 230.583L295.396 231.513C295.916 236.084 293.712 240.839 287.506 242.158C280.76 243.592 276.717 239.431 275.673 234.52L273.241 223.079C272.209 218.222 274.252 212.712 280.944 211.289C287.15 209.97 291.11 213.472 292.494 217.859L296.865 216.93C294.862 209.628 288.048 205.436 280.061 207.134C271.75 208.9 267.214 215.956 268.866 223.727L271.413 235.708C273.065 243.479 280.078 248.08 288.389 246.314Z" fill="black"/>
<path d="M311.698 240.626L338.142 235.005L337.247 230.795L326.238 233.136L319.998 203.778L331.007 201.438L330.112 197.228L303.669 202.849L304.563 207.058L315.627 204.707L321.867 234.065L310.804 236.416L311.698 240.626Z" fill="black"/>
<path d="M373.581 227.472L378.169 226.497L356.161 191.691L351.035 192.781L345.033 233.54L349.62 232.565L350.9 222.93L368.493 219.19L373.581 227.472ZM351.508 218.627L354.419 197.025L354.742 196.957L366.187 215.507L351.508 218.627Z" fill="black"/>
<path d="M385.275 224.986L411.341 219.446L410.447 215.237L388.752 219.848L381.617 186.281L377.246 187.21L385.275 224.986Z" fill="black"/>
<path d="M228.411 324.868C236.721 323.102 241.257 316.046 239.605 308.275L237.059 296.294C235.407 288.523 228.394 283.922 220.083 285.688C211.772 287.455 207.236 294.511 208.888 302.282L211.435 314.262C213.086 322.034 220.1 326.635 228.411 324.868ZM227.527 320.713C220.781 322.147 216.738 317.986 215.695 313.075L213.263 301.634C212.23 296.777 214.274 291.266 220.966 289.844C227.658 288.421 231.766 292.624 232.799 297.481L235.231 308.922C236.274 313.833 234.273 319.279 227.527 320.713Z" fill="black"/>
<path d="M254.149 318.664L258.52 317.735L254.93 300.843L271.012 297.425L270.174 293.485L254.092 296.904L251.339 283.952L268.555 280.292L267.706 276.299L246.119 280.887L254.149 318.664Z" fill="black"/>
<path d="M290.829 310.867L295.2 309.938L291.61 293.047L307.692 289.628L306.855 285.689L290.773 289.107L288.02 276.155L305.235 272.496L304.386 268.502L282.799 273.091L290.829 310.867Z" fill="black"/>
<path d="M327.24 303.128L349.366 298.425L348.529 294.485L330.774 298.259L327.94 284.93L342.727 281.786L341.89 277.847L327.103 280.99L324.43 268.416L341.592 264.768L340.743 260.774L319.21 265.351L327.24 303.128Z" fill="black"/>
<path d="M361.87 295.767L366.241 294.838L362.995 279.566L371.414 277.776L383.025 291.271L388.098 290.192L375.909 276.369C379.908 274.222 382.652 269.352 381.471 263.793C380.06 257.155 374.509 253.597 366.792 255.237L353.84 257.991L361.87 295.767ZM362.169 275.68L359.037 260.947L367.348 259.18C372.691 258.045 376.089 260.763 376.938 264.757C377.993 269.722 375.175 272.915 370.749 273.856L362.169 275.68Z" fill="black"/>
<path fill-rule="evenodd" clip-rule="evenodd" d="M687.262 66.1593C681.414 63.6895 678.676 56.9467 681.145 51.0987L609.143 20.6895L566.212 122.341L638.215 152.75C640.684 146.902 647.427 144.163 653.275 146.633C659.123 149.103 661.862 155.846 659.392 161.694L731.395 192.103L774.326 90.4519L702.323 60.0426C699.853 65.8906 693.11 68.6291 687.262 66.1593Z" fill="#E412B6"/>
<path d="M606.102 89.6682C608.999 90.8917 612.736 89.9845 614.228 86.4522L617.254 79.2858C618.746 75.7534 616.791 72.4421 613.894 71.2186C610.997 69.995 607.26 70.9022 605.768 74.4346L602.741 81.601C601.249 85.1334 603.205 88.4447 606.102 89.6682ZM606.928 87.7114C604.768 86.7992 603.905 84.518 604.828 82.3325L607.747 75.4203C608.659 73.2602 610.933 72.2738 613.067 73.1753C615.202 74.0769 616.08 76.3941 615.168 78.5542L612.248 85.4665C611.325 87.652 609.088 88.6237 606.928 87.7114ZM609.444 81.8264C610.231 82.1591 611.135 81.7921 611.468 81.0043C611.8 80.2165 611.433 79.3129 610.646 78.9802C609.858 78.6475 608.929 79.0037 608.596 79.7915C608.263 80.5793 608.656 81.4937 609.444 81.8264Z" fill="black"/>
<path d="M623.4 96.9738C624.188 97.3065 625.091 96.9395 625.424 96.1517C625.757 95.3639 625.39 94.4603 624.602 94.1276C623.814 93.7949 622.885 94.1511 622.552 94.9389C622.22 95.7267 622.612 96.6411 623.4 96.9738Z" fill="black"/>
<path d="M642.489 104.647L644.522 105.505L646.422 101.007L648.76 101.995L649.533 100.165L647.195 99.1775L648.891 95.1623L646.858 94.3037L645.162 98.3189L639.774 96.0436L639.839 95.8911L650.053 86.8792L647.893 85.9669L637.3 95.238L636.613 96.8644L644.389 100.149L642.489 104.647Z" fill="black"/>
<path d="M657.92 111.553C661.427 113.034 664.747 111.98 666.11 108.753C667.215 106.135 665.914 103.969 664.989 103.039L665.054 102.887C666.198 102.801 668.041 102.052 668.889 100.045C670.091 97.1986 668.533 94.2945 665.712 93.1032C662.866 91.9011 659.723 92.8196 658.521 95.6659C657.673 97.6735 658.421 99.5169 659.158 100.397L659.093 100.549C657.782 100.535 655.322 101.113 654.216 103.73C652.853 106.958 654.413 110.072 657.92 111.553ZM662.428 100.879C660.573 100.096 659.896 98.2232 660.572 96.6222C661.248 95.0212 662.976 94.1934 664.907 95.0091C666.838 95.8248 667.449 97.64 666.773 99.241C666.097 100.842 664.283 101.663 662.428 100.879ZM658.714 109.672C656.249 108.631 655.542 106.476 656.326 104.621C657.27 102.385 659.55 101.88 661.633 102.76C663.717 103.64 664.945 105.626 664 107.862C663.217 109.717 661.179 110.713 658.714 109.672Z" fill="black"/>
<path d="M687.395 123.612L697.815 128.012L698.598 126.157L690.237 122.626L692.888 116.349L699.851 119.29L700.635 117.435L693.672 114.494L696.172 108.573L704.254 111.986L705.048 110.105L694.908 105.823L687.395 123.612Z" fill="black"/>
<path d="M708.861 132.678L710.92 133.547L717.638 117.639L723.382 120.064L724.176 118.184L710.631 112.463L709.837 114.344L715.58 116.769L708.861 132.678Z" fill="black"/>
<path d="M720.619 137.644L722.678 138.513L726.101 130.406L735.047 134.184L731.623 142.291L733.681 143.16L741.194 125.371L739.136 124.502L735.841 132.304L726.896 128.526L730.191 120.724L728.132 119.855L720.619 137.644Z" fill="black"/>
</g>
<defs>
<clipPath id="clip0_357_2493">
<rect width="800" height="441.379" fill="white" transform="translate(0.695312)"/>
</clipPath>
</defs>
</svg>
