<svg width="801" height="250" viewBox="0 0 801 250" fill="none" xmlns="http://www.w3.org/2000/svg">
<g clip-path="url(#clip0_357_2230)">
<path fill-rule="evenodd" clip-rule="evenodd" d="M401.941 25C401.523 25 401.108 24.9898 400.695 24.9696C387.433 24.322 376.879 13.3904 376.879 0H56.0912L52.2872 17.7081C48.6409 34.6819 39.9961 50.1828 27.4609 62.2238C-8.22655 96.5043 -8.22655 153.496 27.4609 187.776C39.9961 199.817 48.6409 215.318 52.2872 232.292L56.0912 250H376.879C376.879 236.61 387.433 225.678 400.695 225.03C401.108 225.01 401.523 225 401.941 225C415.783 225 427.003 236.193 427.003 250H745.299L749.103 232.292C752.75 215.318 761.395 199.817 773.93 187.776C809.617 153.496 809.617 96.5043 773.93 62.2238C761.395 50.1828 752.75 34.6819 749.103 17.7081L745.299 0H427.003C427.003 13.8071 415.783 25 401.941 25Z" fill="#E412B6"/>
<path d="M131.12 165.427C143.945 165.427 156.545 156.089 156.545 140.452V108.727C156.545 93.0895 143.945 83.752 131.12 83.752C118.295 83.752 105.695 93.0895 105.695 108.727V140.452C105.695 156.089 118.295 165.427 131.12 165.427ZM131.12 156.764C121.558 156.764 114.695 149.564 114.695 139.889V109.289C114.695 99.727 121.67 92.4145 131.12 92.4145C140.57 92.4145 147.545 99.727 147.545 109.289V139.889C147.545 149.564 140.683 156.764 131.12 156.764ZM131.233 130.664C134.72 130.664 137.533 127.852 137.533 124.364C137.533 120.877 134.72 118.064 131.233 118.064C127.745 118.064 124.82 120.877 124.82 124.364C124.82 127.852 127.745 130.664 131.233 130.664Z" fill="black"/>
<path d="M207.698 165.427C211.185 165.427 213.998 162.614 213.998 159.127C213.998 155.639 211.185 152.827 207.698 152.827C204.21 152.827 201.285 155.639 201.285 159.127C201.285 162.614 204.21 165.427 207.698 165.427Z" fill="black"/>
<path d="M273.813 163.964H284.163L306.325 124.364C308.688 120.089 310.375 115.139 310.375 109.739C310.375 94.8895 299.013 83.752 284.163 83.752C269.313 83.752 257.725 95.1145 257.725 109.739C257.725 124.477 268.75 135.502 283.713 135.502C286.188 135.502 289.113 134.939 290.913 134.152L291.363 134.602L273.813 163.964ZM284.163 127.289C273.813 127.289 267.063 119.302 267.063 109.739C267.063 100.064 273.813 92.302 284.163 92.302C294.4 92.302 301.15 99.952 301.15 109.739C301.15 119.302 294.4 127.289 284.163 127.289Z" fill="black"/>
<path d="M350.277 163.964H360.627L382.79 124.364C385.152 120.089 386.84 115.139 386.84 109.739C386.84 94.8895 375.477 83.752 360.627 83.752C345.777 83.752 334.19 95.1145 334.19 109.739C334.19 124.477 345.215 135.502 360.177 135.502C362.652 135.502 365.577 134.939 367.377 134.152L367.827 134.602L350.277 163.964ZM360.627 127.289C350.277 127.289 343.527 119.302 343.527 109.739C343.527 100.064 350.277 92.302 360.627 92.302C370.865 92.302 377.615 99.952 377.615 109.739C377.615 119.302 370.865 127.289 360.627 127.289Z" fill="black"/>
<path d="M490.382 163.964H536.507V155.752H499.495V127.964H530.32V119.752H499.495V93.5395H535.27V85.2145H490.382V163.964Z" fill="black"/>
<path d="M585.409 163.964H594.522V93.5395H619.947V85.2145H559.984V93.5395H585.409V163.964Z" fill="black"/>
<path d="M637.462 163.964H646.574V128.077H686.174V163.964H695.287V85.2145H686.174V119.752H646.574V85.2145H637.462V163.964Z" fill="black"/>
</g>
<defs>
<clipPath id="clip0_357_2230">
<rect width="800" height="250" fill="white" transform="translate(0.695312)"/>
</clipPath>
</defs>
</svg>
